G04 #@! TF.FileFunction,Legend,Bot*
%FSLAX46Y46*%
G04 Gerber Fmt 4.6, Leading zero omitted, Abs format (unit mm)*
G04 Created by KiCad (PCBNEW (2014-12-07 BZR 5316)-product) date 01/01/2015 14:19:40*
%MOMM*%
G01*
G04 APERTURE LIST*
%ADD10C,0.100000*%
%ADD11C,0.190500*%
%ADD12C,0.254000*%
%ADD13C,0.099060*%
%ADD14C,0.109220*%
%ADD15C,2.235200*%
%ADD16R,0.889000X1.397000*%
%ADD17R,1.397000X0.889000*%
%ADD18C,2.500000*%
G04 APERTURE END LIST*
D10*
D11*
X150845455Y-90407870D02*
X151289955Y-89637973D01*
X150715823Y-90039733D01*
X150776691Y-89341640D01*
X150332191Y-90111537D01*
X149693447Y-89693875D02*
X149745603Y-89772870D01*
X149892250Y-89857537D01*
X149986740Y-89863208D01*
X150065735Y-89811052D01*
X150235069Y-89517757D01*
X150240740Y-89423267D01*
X150188584Y-89344272D01*
X150041936Y-89259605D01*
X149947447Y-89253934D01*
X149868451Y-89306090D01*
X149826117Y-89379414D01*
X150150402Y-89664404D01*
X149272040Y-88815105D02*
X148912206Y-89438355D01*
X148906535Y-89532845D01*
X148922030Y-89590674D01*
X148974187Y-89669669D01*
X149084172Y-89733169D01*
X149178662Y-89738840D01*
X148996873Y-89291708D02*
X149049030Y-89370703D01*
X149195676Y-89455370D01*
X149290167Y-89461041D01*
X149347995Y-89445546D01*
X149426991Y-89393389D01*
X149553991Y-89173419D01*
X149559662Y-89078929D01*
X149544167Y-89021100D01*
X149492010Y-88942105D01*
X149345363Y-88857439D01*
X149250873Y-88851767D01*
X148279133Y-88926203D02*
X148511967Y-88522924D01*
X148590963Y-88470767D01*
X148685452Y-88476439D01*
X148832099Y-88561106D01*
X148884256Y-88640100D01*
X148300300Y-88889541D02*
X148352457Y-88968537D01*
X148535766Y-89074370D01*
X148630256Y-89080041D01*
X148709251Y-89027885D01*
X148751585Y-88954561D01*
X148757256Y-88860071D01*
X148705099Y-88781076D01*
X148521790Y-88675243D01*
X148469633Y-88596248D01*
X148318835Y-88264772D02*
X148025541Y-88095439D01*
X148357016Y-87944640D02*
X147976016Y-88604552D01*
X147897022Y-88656708D01*
X147802531Y-88651037D01*
X147729208Y-88608704D01*
X147362590Y-88397037D02*
X147457081Y-88402708D01*
X147514909Y-88387213D01*
X147593905Y-88335056D01*
X147720905Y-88115086D01*
X147726575Y-88020596D01*
X147711081Y-87962767D01*
X147658923Y-87883772D01*
X147548938Y-87820272D01*
X147454449Y-87814601D01*
X147396620Y-87830096D01*
X147317625Y-87882252D01*
X147190625Y-88102223D01*
X147184953Y-88196713D01*
X147200449Y-88254542D01*
X147252605Y-88333537D01*
X147362590Y-88397037D01*
X147072336Y-87545106D02*
X146776002Y-88058370D01*
X147030002Y-87618429D02*
X147014508Y-87560601D01*
X146962351Y-87481606D01*
X146852365Y-87418106D01*
X146757876Y-87412434D01*
X146678880Y-87464591D01*
X146446047Y-87867870D01*
X145807303Y-87450209D02*
X145859459Y-87529204D01*
X146006107Y-87613871D01*
X146100597Y-87619542D01*
X146179592Y-87567386D01*
X146348925Y-87274091D01*
X146354597Y-87179601D01*
X146302440Y-87100606D01*
X146155793Y-87015939D01*
X146061303Y-87010268D01*
X145982307Y-87062424D01*
X145939974Y-87135748D01*
X146264259Y-87420738D01*
X144890760Y-86921042D02*
X144759608Y-86894204D01*
X144576299Y-86788371D01*
X144524142Y-86709375D01*
X144508647Y-86651547D01*
X144514319Y-86557057D01*
X144556652Y-86483734D01*
X144635647Y-86431577D01*
X144693475Y-86416082D01*
X144787966Y-86421753D01*
X144955779Y-86469758D01*
X145050269Y-86475430D01*
X145108098Y-86459934D01*
X145187093Y-86407778D01*
X145229426Y-86334454D01*
X145235098Y-86239964D01*
X145219603Y-86182136D01*
X145167445Y-86103141D01*
X144984137Y-85997308D01*
X144852986Y-85970469D01*
X143989710Y-86449704D02*
X144084201Y-86455375D01*
X144142029Y-86439880D01*
X144221025Y-86387723D01*
X144348025Y-86167753D01*
X144353695Y-86073263D01*
X144338201Y-86015434D01*
X144286044Y-85936439D01*
X144176059Y-85872939D01*
X144081569Y-85867268D01*
X144023740Y-85882763D01*
X143944745Y-85934919D01*
X143817745Y-86154890D01*
X143812073Y-86249380D01*
X143827569Y-86307209D01*
X143879725Y-86386204D01*
X143989710Y-86449704D01*
X143293137Y-86047537D02*
X143387628Y-86053209D01*
X143466623Y-86001052D01*
X143847623Y-85341141D01*
X142889858Y-85814704D02*
X142984349Y-85820375D01*
X143042177Y-85804880D01*
X143121173Y-85752723D01*
X143248173Y-85532753D01*
X143253843Y-85438263D01*
X143238349Y-85380434D01*
X143186192Y-85301439D01*
X143076206Y-85237939D01*
X142981717Y-85232268D01*
X142923888Y-85247763D01*
X142844893Y-85299919D01*
X142717893Y-85519890D01*
X142712221Y-85614380D01*
X142727717Y-85672209D01*
X142779873Y-85751204D01*
X142889858Y-85814704D01*
X142086340Y-84666440D02*
X141606698Y-85073871D01*
X141719723Y-84454773D01*
X141207978Y-83817141D02*
X141574595Y-84028808D01*
X141399591Y-84416592D01*
X141384095Y-84358763D01*
X141331939Y-84279768D01*
X141148630Y-84173935D01*
X141054140Y-84168263D01*
X140996312Y-84183758D01*
X140917317Y-84235916D01*
X140811484Y-84419224D01*
X140805812Y-84513714D01*
X140821307Y-84571542D01*
X140873463Y-84650538D01*
X141056772Y-84756371D01*
X141151262Y-84762042D01*
X141209091Y-84746548D01*
X152712556Y-93142952D02*
X153157056Y-92373055D01*
X152733723Y-93106290D02*
X152785880Y-93185285D01*
X152932526Y-93269952D01*
X153027017Y-93275623D01*
X153084845Y-93260128D01*
X153163841Y-93207971D01*
X153290841Y-92988001D01*
X153296512Y-92893511D01*
X153281017Y-92835682D01*
X153228860Y-92756687D01*
X153082213Y-92672021D01*
X152987723Y-92666349D01*
X152235954Y-92867785D02*
X152330444Y-92873457D01*
X152388272Y-92857962D01*
X152467268Y-92805805D01*
X152594268Y-92585834D01*
X152599939Y-92491344D01*
X152584444Y-92433516D01*
X152532287Y-92354521D01*
X152422302Y-92291021D01*
X152327812Y-92285349D01*
X152269983Y-92300844D01*
X152190989Y-92353001D01*
X152063989Y-92572971D01*
X152058317Y-92667462D01*
X152073812Y-92725290D01*
X152125968Y-92804285D01*
X152235954Y-92867785D01*
X151539381Y-92465619D02*
X151633872Y-92471290D01*
X151712866Y-92419134D01*
X152093866Y-91759222D01*
X151212464Y-91592521D02*
X150852631Y-92215771D01*
X150846960Y-92310260D01*
X150862455Y-92368089D01*
X150914612Y-92447084D01*
X151024597Y-92510584D01*
X151119087Y-92516256D01*
X150937298Y-92069123D02*
X150989455Y-92148119D01*
X151136101Y-92232785D01*
X151230592Y-92238457D01*
X151288420Y-92222962D01*
X151367416Y-92170805D01*
X151494416Y-91950834D01*
X151500087Y-91856344D01*
X151484592Y-91798516D01*
X151432435Y-91719521D01*
X151285788Y-91634854D01*
X151191298Y-91629182D01*
X150219558Y-91703619D02*
X150452392Y-91300339D01*
X150531387Y-91248183D01*
X150625877Y-91253854D01*
X150772524Y-91338521D01*
X150824681Y-91417516D01*
X150240725Y-91666957D02*
X150292882Y-91745952D01*
X150476191Y-91851786D01*
X150570681Y-91857457D01*
X150649676Y-91805301D01*
X150692010Y-91731977D01*
X150697681Y-91637486D01*
X150645524Y-91558492D01*
X150462215Y-91452658D01*
X150410058Y-91373663D01*
X150149274Y-90978688D02*
X149852941Y-91491952D01*
X150106941Y-91052011D02*
X150091446Y-90994183D01*
X150039289Y-90915188D01*
X149929304Y-90851688D01*
X149834815Y-90846016D01*
X149755819Y-90898173D01*
X149522985Y-91301452D01*
X149046383Y-91026286D02*
X149140874Y-91031957D01*
X149198702Y-91016462D01*
X149277697Y-90964305D01*
X149404697Y-90744335D01*
X149410368Y-90649845D01*
X149394874Y-90592016D01*
X149342716Y-90513021D01*
X149232731Y-90449521D01*
X149138242Y-90443850D01*
X149080412Y-90459345D01*
X149001418Y-90511501D01*
X148874418Y-90731472D01*
X148868746Y-90825962D01*
X148884242Y-90883791D01*
X148936398Y-90962786D01*
X149046383Y-91026286D01*
X148866114Y-90237855D02*
X148572821Y-90068522D01*
X148459795Y-90687619D02*
X148840795Y-90027708D01*
X148846467Y-89933218D01*
X148794310Y-89854223D01*
X148720987Y-89811890D01*
X148426173Y-89983855D02*
X148132880Y-89814522D01*
X148019854Y-90433619D02*
X148400854Y-89773708D01*
X148406526Y-89679218D01*
X148354369Y-89600223D01*
X148281046Y-89557890D01*
X147622247Y-90106296D02*
X147564419Y-90121791D01*
X147579914Y-90179619D01*
X147637743Y-90164124D01*
X147622247Y-90106296D01*
X147579914Y-90179619D01*
X146904508Y-89740791D02*
X146956664Y-89819786D01*
X147103311Y-89904453D01*
X147197802Y-89910124D01*
X147255630Y-89894629D01*
X147334626Y-89842472D01*
X147461626Y-89622502D01*
X147467296Y-89528012D01*
X147451802Y-89470183D01*
X147399645Y-89391188D01*
X147252998Y-89306522D01*
X147158508Y-89300850D01*
X146443400Y-89523453D02*
X146537891Y-89529124D01*
X146595719Y-89513629D01*
X146674714Y-89461472D01*
X146801714Y-89241502D01*
X146807385Y-89147012D01*
X146791891Y-89089183D01*
X146739733Y-89010188D01*
X146629748Y-88946688D01*
X146535259Y-88941017D01*
X146477429Y-88956512D01*
X146398435Y-89008668D01*
X146271435Y-89228639D01*
X146265763Y-89323129D01*
X146281259Y-89380958D01*
X146333415Y-89459953D01*
X146443400Y-89523453D01*
X145856812Y-89184786D02*
X146153146Y-88671522D01*
X146110812Y-88744845D02*
X146095318Y-88687017D01*
X146043160Y-88608022D01*
X145933175Y-88544522D01*
X145838686Y-88538850D01*
X145759690Y-88591007D01*
X145526857Y-88994286D01*
X145759690Y-88591007D02*
X145765362Y-88496517D01*
X145713205Y-88417522D01*
X145603220Y-88354022D01*
X145508730Y-88348350D01*
X145429734Y-88400507D01*
X145196901Y-88803786D01*
X144746025Y-87468061D02*
X144834436Y-88838928D01*
X144430044Y-87676689D02*
X144136751Y-87507356D01*
X144023726Y-88126453D02*
X144404726Y-87466542D01*
X144410398Y-87372052D01*
X144358240Y-87293057D01*
X144284918Y-87250724D01*
X143583785Y-87872453D02*
X143880118Y-87359189D01*
X143795452Y-87505835D02*
X143801123Y-87411346D01*
X143785629Y-87353517D01*
X143733472Y-87274522D01*
X143660148Y-87232189D01*
X143022923Y-86473228D02*
X143111335Y-87844095D01*
X141970669Y-86941120D02*
X142203502Y-86537841D01*
X142282498Y-86485684D01*
X142376987Y-86491356D01*
X142523635Y-86576023D01*
X142575791Y-86655017D01*
X141991836Y-86904458D02*
X142043992Y-86983454D01*
X142227301Y-87089287D01*
X142321791Y-87094958D01*
X142400787Y-87042802D01*
X142443120Y-86969478D01*
X142448791Y-86874988D01*
X142396635Y-86795993D01*
X142213326Y-86690160D01*
X142161169Y-86611165D01*
X141773385Y-86436160D02*
X141186797Y-86097493D01*
X140947179Y-85665856D02*
X140502679Y-86435752D01*
X140926013Y-85702517D02*
X140873857Y-85623523D01*
X140727209Y-85538856D01*
X140632720Y-85533184D01*
X140574890Y-85548679D01*
X140495896Y-85600836D01*
X140368896Y-85820806D01*
X140363224Y-85915297D01*
X140378720Y-85973125D01*
X140430876Y-86052120D01*
X140577523Y-86136787D01*
X140672013Y-86142458D01*
X139954273Y-85776954D02*
X140250607Y-85263689D01*
X140165940Y-85410336D02*
X140171612Y-85315846D01*
X140156117Y-85258018D01*
X140103960Y-85179023D01*
X140030636Y-85136689D01*
X139367686Y-85438287D02*
X139462176Y-85443959D01*
X139520004Y-85428464D01*
X139599000Y-85376307D01*
X139726000Y-85156336D01*
X139731671Y-85061846D01*
X139716176Y-85004018D01*
X139664019Y-84925023D01*
X139554034Y-84861523D01*
X139459544Y-84855851D01*
X139401715Y-84871346D01*
X139322721Y-84923503D01*
X139195721Y-85143473D01*
X139190049Y-85237964D01*
X139205544Y-85295792D01*
X139257700Y-85374787D01*
X139367686Y-85438287D01*
X139077432Y-84586356D02*
X138632932Y-85356253D01*
X139056265Y-84623018D02*
X139004109Y-84544023D01*
X138857461Y-84459356D01*
X138762972Y-84453685D01*
X138705142Y-84469180D01*
X138626148Y-84521336D01*
X138499148Y-84741307D01*
X138493476Y-84835797D01*
X138508972Y-84893626D01*
X138561128Y-84972621D01*
X138707775Y-85057288D01*
X138802265Y-85062959D01*
X137974540Y-84633954D02*
X138069031Y-84639626D01*
X138126859Y-84624131D01*
X138205855Y-84571974D01*
X138332855Y-84352003D01*
X138338525Y-84257513D01*
X138323031Y-84199685D01*
X138270873Y-84120690D01*
X138160888Y-84057190D01*
X138066399Y-84051518D01*
X138008570Y-84067013D01*
X137929575Y-84119170D01*
X137802575Y-84339140D01*
X137796903Y-84433631D01*
X137812399Y-84491459D01*
X137864555Y-84570454D01*
X137974540Y-84633954D01*
X137445782Y-84279793D02*
X137351291Y-84274121D01*
X137204644Y-84189455D01*
X137152487Y-84110459D01*
X137158159Y-84015970D01*
X137179326Y-83979307D01*
X137258320Y-83927151D01*
X137352811Y-83932822D01*
X137462796Y-83996322D01*
X137557286Y-84001994D01*
X137636282Y-83949837D01*
X137657448Y-83913175D01*
X137663119Y-83818685D01*
X137610963Y-83739690D01*
X137500978Y-83676190D01*
X137406487Y-83670518D01*
X148864987Y-91552139D02*
X148718340Y-91467472D01*
X148623850Y-91461800D01*
X148508193Y-91492790D01*
X148386865Y-91618271D01*
X148238698Y-91874903D01*
X148190693Y-92042717D01*
X148221684Y-92158373D01*
X148273840Y-92237369D01*
X148420487Y-92322035D01*
X148514978Y-92327707D01*
X148630634Y-92296717D01*
X148751963Y-92171236D01*
X148900129Y-91914604D01*
X148948134Y-91746790D01*
X148917144Y-91631134D01*
X148864987Y-91552139D01*
X148056909Y-91427771D02*
X147612409Y-92197667D01*
X148035743Y-91464432D02*
X147983586Y-91385438D01*
X147836939Y-91300771D01*
X147742449Y-91295099D01*
X147684620Y-91310594D01*
X147605625Y-91362751D01*
X147478625Y-91582721D01*
X147472953Y-91677212D01*
X147488449Y-91735040D01*
X147540605Y-91814035D01*
X147687253Y-91898702D01*
X147781743Y-91904373D01*
X146791876Y-91332874D02*
X146844032Y-91411869D01*
X146990680Y-91496536D01*
X147085170Y-91502207D01*
X147164165Y-91450051D01*
X147333499Y-91156756D01*
X147339170Y-91062266D01*
X147287013Y-90983271D01*
X147140366Y-90898604D01*
X147045876Y-90892933D01*
X146966881Y-90945089D01*
X146924547Y-91018413D01*
X147248832Y-91303403D01*
X146700425Y-90644604D02*
X146404091Y-91157869D01*
X146658091Y-90717928D02*
X146642597Y-90660099D01*
X146590440Y-90581104D01*
X146480455Y-90517604D01*
X146385965Y-90511933D01*
X146306969Y-90564089D01*
X146074136Y-90967369D01*
X145120931Y-90417036D02*
X145565431Y-89647139D01*
X145353765Y-90013756D02*
X144913824Y-89759756D01*
X144680990Y-90163036D02*
X145125490Y-89393139D01*
X143984417Y-89760869D02*
X144217251Y-89357590D01*
X144296247Y-89305433D01*
X144390736Y-89311105D01*
X144537384Y-89395772D01*
X144589540Y-89474766D01*
X144005584Y-89724207D02*
X144057741Y-89803203D01*
X144241050Y-89909036D01*
X144335540Y-89914707D01*
X144414535Y-89862551D01*
X144456869Y-89789227D01*
X144462540Y-89694737D01*
X144410384Y-89615742D01*
X144227075Y-89509909D01*
X144174917Y-89430914D01*
X143617800Y-89549203D02*
X143914134Y-89035938D01*
X143829467Y-89182585D02*
X143835139Y-89088095D01*
X143819644Y-89030267D01*
X143767487Y-88951272D01*
X143694163Y-88908938D01*
X142811242Y-89083536D02*
X143255742Y-88313640D01*
X142832409Y-89046874D02*
X142884566Y-89125870D01*
X143031213Y-89210536D01*
X143125703Y-89216208D01*
X143183531Y-89200713D01*
X143262527Y-89148556D01*
X143389527Y-88928585D01*
X143395198Y-88834095D01*
X143379703Y-88776267D01*
X143327546Y-88697272D01*
X143180899Y-88612605D01*
X143086409Y-88606933D01*
X142814282Y-88400939D02*
X142371302Y-88829537D01*
X142436322Y-88378252D01*
X142078008Y-88660203D01*
X142227695Y-88062272D01*
X141308111Y-88215703D02*
X141540945Y-87812424D01*
X141619941Y-87760267D01*
X141714430Y-87765939D01*
X141861078Y-87850606D01*
X141913234Y-87929600D01*
X141329278Y-88179041D02*
X141381435Y-88258037D01*
X141564744Y-88363870D01*
X141659234Y-88369541D01*
X141738229Y-88317385D01*
X141780563Y-88244061D01*
X141786234Y-88149571D01*
X141734078Y-88070576D01*
X141550769Y-87964743D01*
X141498611Y-87885748D01*
X140941494Y-88004037D02*
X141237828Y-87490772D01*
X141153161Y-87637419D02*
X141158833Y-87542929D01*
X141143338Y-87485101D01*
X141091181Y-87406106D01*
X141017857Y-87363772D01*
X140192765Y-87522875D02*
X140244921Y-87601870D01*
X140391569Y-87686537D01*
X140486059Y-87692208D01*
X140565054Y-87640052D01*
X140734388Y-87346758D01*
X140740059Y-87252267D01*
X140687902Y-87173273D01*
X140541255Y-87088606D01*
X140446765Y-87082934D01*
X140367770Y-87135091D01*
X140325436Y-87208415D01*
X140649721Y-87493405D01*
D12*
X142772190Y-97487619D02*
X142772190Y-96471619D01*
X142288380Y-97487619D02*
X142288380Y-96471619D01*
X141707809Y-97487619D01*
X141707809Y-96471619D01*
X148094095Y-94742000D02*
X148190857Y-94693619D01*
X148336000Y-94693619D01*
X148481142Y-94742000D01*
X148577904Y-94838762D01*
X148626285Y-94935524D01*
X148674666Y-95129048D01*
X148674666Y-95274190D01*
X148626285Y-95467714D01*
X148577904Y-95564476D01*
X148481142Y-95661238D01*
X148336000Y-95709619D01*
X148239238Y-95709619D01*
X148094095Y-95661238D01*
X148045714Y-95612857D01*
X148045714Y-95274190D01*
X148239238Y-95274190D01*
X147610285Y-95709619D02*
X147610285Y-94693619D01*
X147029714Y-95709619D01*
X147029714Y-94693619D01*
X146545904Y-95709619D02*
X146545904Y-94693619D01*
X146303999Y-94693619D01*
X146158857Y-94742000D01*
X146062095Y-94838762D01*
X146013714Y-94935524D01*
X145965333Y-95129048D01*
X145965333Y-95274190D01*
X146013714Y-95467714D01*
X146062095Y-95564476D01*
X146158857Y-95661238D01*
X146303999Y-95709619D01*
X146545904Y-95709619D01*
D13*
X135420589Y-96933808D02*
G75*
G03X135420589Y-96933808I-127000J0D01*
G01*
X135865089Y-95943941D02*
X135357089Y-96823823D01*
X135357089Y-96823823D02*
X136676911Y-97585823D01*
X136676911Y-97585823D02*
X137184911Y-96705941D01*
X137692911Y-95826059D02*
X138200911Y-94946177D01*
X138200911Y-94946177D02*
X136881089Y-94184177D01*
X136881089Y-94184177D02*
X136373089Y-95064059D01*
X131031192Y-91986589D02*
G75*
G03X131031192Y-91986589I-127000J0D01*
G01*
X131894059Y-91415089D02*
X131014177Y-91923089D01*
X131014177Y-91923089D02*
X131776177Y-93242911D01*
X131776177Y-93242911D02*
X132656059Y-92734911D01*
X133535941Y-92226911D02*
X134415823Y-91718911D01*
X134415823Y-91718911D02*
X133653823Y-90399089D01*
X133653823Y-90399089D02*
X132773941Y-90907089D01*
X129794000Y-85598000D02*
G75*
G03X129794000Y-85598000I-127000J0D01*
G01*
X130810000Y-85598000D02*
X129794000Y-85598000D01*
X129794000Y-85598000D02*
X129794000Y-87122000D01*
X129794000Y-87122000D02*
X130810000Y-87122000D01*
X131826000Y-87122000D02*
X132842000Y-87122000D01*
X132842000Y-87122000D02*
X132842000Y-85598000D01*
X132842000Y-85598000D02*
X131826000Y-85598000D01*
X131793192Y-79413589D02*
G75*
G03X131793192Y-79413589I-127000J0D01*
G01*
X132656059Y-79985089D02*
X131776177Y-79477089D01*
X131776177Y-79477089D02*
X131014177Y-80796911D01*
X131014177Y-80796911D02*
X131894059Y-81304911D01*
X132773941Y-81812911D02*
X133653823Y-82320911D01*
X133653823Y-82320911D02*
X134415823Y-81001089D01*
X134415823Y-81001089D02*
X133535941Y-80493089D01*
X136740411Y-75024192D02*
G75*
G03X136740411Y-75024192I-127000J0D01*
G01*
X137184911Y-76014059D02*
X136676911Y-75134177D01*
X136676911Y-75134177D02*
X135357089Y-75896177D01*
X135357089Y-75896177D02*
X135865089Y-76776059D01*
X136373089Y-77655941D02*
X136881089Y-78535823D01*
X136881089Y-78535823D02*
X138200911Y-77773823D01*
X138200911Y-77773823D02*
X137692911Y-76893941D01*
X143129000Y-73660000D02*
G75*
G03X143129000Y-73660000I-127000J0D01*
G01*
X143002000Y-74803000D02*
X143002000Y-73787000D01*
X143002000Y-73787000D02*
X141478000Y-73787000D01*
X141478000Y-73787000D02*
X141478000Y-74803000D01*
X141478000Y-75819000D02*
X141478000Y-76835000D01*
X141478000Y-76835000D02*
X143002000Y-76835000D01*
X143002000Y-76835000D02*
X143002000Y-75819000D01*
X149440411Y-75659192D02*
G75*
G03X149440411Y-75659192I-127000J0D01*
G01*
X148741911Y-76649059D02*
X149249911Y-75769177D01*
X149249911Y-75769177D02*
X147930089Y-75007177D01*
X147930089Y-75007177D02*
X147422089Y-75887059D01*
X146914089Y-76766941D02*
X146406089Y-77646823D01*
X146406089Y-77646823D02*
X147725911Y-78408823D01*
X147725911Y-78408823D02*
X148233911Y-77528941D01*
X153829808Y-80606411D02*
G75*
G03X153829808Y-80606411I-127000J0D01*
G01*
X152712941Y-81177911D02*
X153592823Y-80669911D01*
X153592823Y-80669911D02*
X152830823Y-79350089D01*
X152830823Y-79350089D02*
X151950941Y-79858089D01*
X151071059Y-80366089D02*
X150191177Y-80874089D01*
X150191177Y-80874089D02*
X150953177Y-82193911D01*
X150953177Y-82193911D02*
X151833059Y-81685911D01*
X155194000Y-87122000D02*
G75*
G03X155194000Y-87122000I-127000J0D01*
G01*
X153924000Y-87122000D02*
X154940000Y-87122000D01*
X154940000Y-87122000D02*
X154940000Y-85598000D01*
X154940000Y-85598000D02*
X153924000Y-85598000D01*
X152908000Y-85598000D02*
X151892000Y-85598000D01*
X151892000Y-85598000D02*
X151892000Y-87122000D01*
X151892000Y-87122000D02*
X152908000Y-87122000D01*
X139298654Y-94996523D02*
G75*
G03X139298654Y-94996523I-127000J0D01*
G01*
X139467484Y-93892470D02*
X139204524Y-94873851D01*
X139204524Y-94873851D02*
X140676595Y-95268291D01*
X140676595Y-95268291D02*
X140939555Y-94286910D01*
X141202516Y-93305530D02*
X141465476Y-92324149D01*
X141465476Y-92324149D02*
X139993405Y-91929709D01*
X139993405Y-91929709D02*
X139730445Y-92911090D01*
X135326751Y-92195618D02*
G75*
G03X135326751Y-92195618I-127000J0D01*
G01*
X136007974Y-91387395D02*
X135289554Y-92105815D01*
X135289554Y-92105815D02*
X136367185Y-93183446D01*
X136367185Y-93183446D02*
X137085605Y-92465026D01*
X137804026Y-91746605D02*
X138522446Y-91028185D01*
X138522446Y-91028185D02*
X137444815Y-89950554D01*
X137444815Y-89950554D02*
X136726395Y-90668974D01*
X133336035Y-87956275D02*
G75*
G03X133336035Y-87956275I-126999J0D01*
G01*
X134313090Y-87660445D02*
X133331709Y-87923405D01*
X133331709Y-87923405D02*
X133726149Y-89395476D01*
X133726149Y-89395476D02*
X134707530Y-89132516D01*
X135688910Y-88869555D02*
X136670291Y-88606595D01*
X136670291Y-88606595D02*
X136275851Y-87134524D01*
X136275851Y-87134524D02*
X135294470Y-87397484D01*
X133857477Y-83418654D02*
G75*
G03X133857477Y-83418654I-127000J0D01*
G01*
X134834530Y-83714484D02*
X133853149Y-83451524D01*
X133853149Y-83451524D02*
X133458709Y-84923595D01*
X133458709Y-84923595D02*
X134440090Y-85186555D01*
X135421470Y-85449516D02*
X136402851Y-85712476D01*
X136402851Y-85712476D02*
X136797291Y-84240405D01*
X136797291Y-84240405D02*
X135815910Y-83977445D01*
X136531382Y-79573751D02*
G75*
G03X136531382Y-79573751I-127000J0D01*
G01*
X137212605Y-80381974D02*
X136494185Y-79663554D01*
X136494185Y-79663554D02*
X135416554Y-80741185D01*
X135416554Y-80741185D02*
X136134974Y-81459605D01*
X136853395Y-82178026D02*
X137571815Y-82896446D01*
X137571815Y-82896446D02*
X138649446Y-81818815D01*
X138649446Y-81818815D02*
X137931026Y-81100395D01*
X140897724Y-77583036D02*
G75*
G03X140897724Y-77583036I-126999J0D01*
G01*
X141066555Y-78687090D02*
X140803595Y-77705709D01*
X140803595Y-77705709D02*
X139331524Y-78100149D01*
X139331524Y-78100149D02*
X139594484Y-79081530D01*
X139857445Y-80062910D02*
X140120405Y-81044291D01*
X140120405Y-81044291D02*
X141592476Y-80649851D01*
X141592476Y-80649851D02*
X141329516Y-79668470D01*
X145435346Y-77977477D02*
G75*
G03X145435346Y-77977477I-127000J0D01*
G01*
X145012516Y-79081530D02*
X145275476Y-78100149D01*
X145275476Y-78100149D02*
X143803405Y-77705709D01*
X143803405Y-77705709D02*
X143540445Y-78687090D01*
X143277484Y-79668470D02*
X143014524Y-80649851D01*
X143014524Y-80649851D02*
X144486595Y-81044291D01*
X144486595Y-81044291D02*
X144749555Y-80062910D01*
X149153249Y-80397382D02*
G75*
G03X149153249Y-80397382I-127000J0D01*
G01*
X148218026Y-81205605D02*
X148936446Y-80487185D01*
X148936446Y-80487185D02*
X147858815Y-79409554D01*
X147858815Y-79409554D02*
X147140395Y-80127974D01*
X146421974Y-80846395D02*
X145703554Y-81564815D01*
X145703554Y-81564815D02*
X146781185Y-82642446D01*
X146781185Y-82642446D02*
X147499605Y-81924026D01*
X151397963Y-84763725D02*
G75*
G03X151397963Y-84763725I-126999J0D01*
G01*
X150166910Y-85059555D02*
X151148291Y-84796595D01*
X151148291Y-84796595D02*
X150753851Y-83324524D01*
X150753851Y-83324524D02*
X149772470Y-83587484D01*
X148791090Y-83850445D02*
X147809709Y-84113405D01*
X147809709Y-84113405D02*
X148204149Y-85585476D01*
X148204149Y-85585476D02*
X149185530Y-85322516D01*
D14*
X137610463Y-98061130D02*
X137643012Y-98052409D01*
X137699389Y-98002416D01*
X137723216Y-97961146D01*
X137738323Y-97887326D01*
X137720880Y-97822228D01*
X137691523Y-97777765D01*
X137620896Y-97709474D01*
X137558990Y-97673732D01*
X137464534Y-97646713D01*
X137411350Y-97643521D01*
X137346252Y-97660964D01*
X137289874Y-97710956D01*
X137266047Y-97752226D01*
X137250941Y-97826046D01*
X137259663Y-97858596D01*
X137413457Y-98497664D02*
X137556423Y-98250040D01*
X137484940Y-98373852D02*
X137051598Y-98123662D01*
X137137332Y-98118133D01*
X137202430Y-98100690D01*
X137246894Y-98071333D01*
X132495577Y-94093067D02*
X132528126Y-94101788D01*
X132601946Y-94086682D01*
X132643216Y-94062854D01*
X132693209Y-94006478D01*
X132710652Y-93941380D01*
X132707459Y-93888195D01*
X132680440Y-93793740D01*
X132644699Y-93731834D01*
X132576407Y-93661206D01*
X132531944Y-93631850D01*
X132466846Y-93614407D01*
X132393026Y-93629512D01*
X132351756Y-93653340D01*
X132301764Y-93709717D01*
X132293042Y-93742267D01*
X132127960Y-93837577D02*
X132095411Y-93828855D01*
X132042226Y-93832047D01*
X131939050Y-93891616D01*
X131909692Y-93936080D01*
X131900972Y-93968629D01*
X131904163Y-94021813D01*
X131927991Y-94063084D01*
X131984368Y-94113076D01*
X132374957Y-94217734D01*
X132106698Y-94372613D01*
X130131396Y-88062707D02*
X130155224Y-88086535D01*
X130226707Y-88110362D01*
X130274362Y-88110362D01*
X130345845Y-88086535D01*
X130393500Y-88038880D01*
X130417328Y-87991224D01*
X130441156Y-87895914D01*
X130441156Y-87824431D01*
X130417328Y-87729120D01*
X130393500Y-87681465D01*
X130345845Y-87633810D01*
X130274362Y-87609982D01*
X130226707Y-87609982D01*
X130155224Y-87633810D01*
X130131396Y-87657638D01*
X129964603Y-87609982D02*
X129654844Y-87609982D01*
X129821637Y-87800603D01*
X129750155Y-87800603D01*
X129702499Y-87824431D01*
X129678672Y-87848259D01*
X129654844Y-87895914D01*
X129654844Y-88015052D01*
X129678672Y-88062707D01*
X129702499Y-88086535D01*
X129750155Y-88110362D01*
X129893120Y-88110362D01*
X129940776Y-88086535D01*
X129964603Y-88062707D01*
X130538870Y-81730463D02*
X130547591Y-81763012D01*
X130597584Y-81819389D01*
X130638854Y-81843216D01*
X130712674Y-81858323D01*
X130777772Y-81840880D01*
X130822235Y-81811523D01*
X130890526Y-81740896D01*
X130926268Y-81678990D01*
X130953287Y-81584534D01*
X130956479Y-81531350D01*
X130939036Y-81466252D01*
X130889044Y-81409874D01*
X130847774Y-81386047D01*
X130773954Y-81370941D01*
X130741404Y-81379663D01*
X130310399Y-81268391D02*
X130143606Y-81557285D01*
X130508886Y-81162877D02*
X130433357Y-81531976D01*
X130165097Y-81377096D01*
X134506933Y-76615577D02*
X134498212Y-76648126D01*
X134513318Y-76721946D01*
X134537146Y-76763216D01*
X134593522Y-76813209D01*
X134658620Y-76830652D01*
X134711805Y-76827459D01*
X134806260Y-76800440D01*
X134868166Y-76764699D01*
X134938794Y-76696407D01*
X134968150Y-76651944D01*
X134985593Y-76586846D01*
X134970488Y-76513026D01*
X134946660Y-76471756D01*
X134890283Y-76421764D01*
X134857733Y-76413042D01*
X134672643Y-75997144D02*
X134791781Y-76203497D01*
X134597341Y-76343271D01*
X134606062Y-76310721D01*
X134602870Y-76257537D01*
X134543301Y-76154360D01*
X134498838Y-76125003D01*
X134466289Y-76116282D01*
X134413104Y-76119474D01*
X134309928Y-76179043D01*
X134280571Y-76223506D01*
X134271849Y-76256055D01*
X134275042Y-76309240D01*
X134334611Y-76412416D01*
X134379074Y-76441773D01*
X134411623Y-76450495D01*
X140894707Y-73830604D02*
X140918535Y-73806776D01*
X140942362Y-73735293D01*
X140942362Y-73687638D01*
X140918535Y-73616155D01*
X140870880Y-73568500D01*
X140823224Y-73544672D01*
X140727914Y-73520844D01*
X140656431Y-73520844D01*
X140561120Y-73544672D01*
X140513465Y-73568500D01*
X140465810Y-73616155D01*
X140441982Y-73687638D01*
X140441982Y-73735293D01*
X140465810Y-73806776D01*
X140489638Y-73830604D01*
X140441982Y-74259501D02*
X140441982Y-74164190D01*
X140465810Y-74116535D01*
X140489638Y-74092707D01*
X140561120Y-74045052D01*
X140656431Y-74021224D01*
X140847052Y-74021224D01*
X140894707Y-74045052D01*
X140918535Y-74068880D01*
X140942362Y-74116535D01*
X140942362Y-74211845D01*
X140918535Y-74259501D01*
X140894707Y-74283328D01*
X140847052Y-74307156D01*
X140727914Y-74307156D01*
X140680259Y-74283328D01*
X140656431Y-74259501D01*
X140632603Y-74211845D01*
X140632603Y-74116535D01*
X140656431Y-74068880D01*
X140680259Y-74045052D01*
X140727914Y-74021224D01*
X147262463Y-74693130D02*
X147295012Y-74684409D01*
X147351389Y-74634416D01*
X147375216Y-74593146D01*
X147390323Y-74519326D01*
X147372880Y-74454228D01*
X147343523Y-74409765D01*
X147272896Y-74341474D01*
X147210990Y-74305732D01*
X147116534Y-74278713D01*
X147063350Y-74275521D01*
X146998252Y-74292964D01*
X146941874Y-74342956D01*
X146918047Y-74384226D01*
X146902941Y-74458046D01*
X146911663Y-74490596D01*
X146786995Y-74611215D02*
X146620201Y-74900110D01*
X147160768Y-74964581D01*
X152307576Y-78853067D02*
X152340125Y-78861788D01*
X152413945Y-78846682D01*
X152455215Y-78822854D01*
X152505208Y-78766478D01*
X152522651Y-78701380D01*
X152519458Y-78648195D01*
X152492439Y-78553740D01*
X152456698Y-78491834D01*
X152388406Y-78421206D01*
X152343943Y-78391850D01*
X152278845Y-78374407D01*
X152205025Y-78389512D01*
X152163755Y-78413340D01*
X152113763Y-78469717D01*
X152105041Y-78502267D01*
X151940814Y-78789679D02*
X151970170Y-78745216D01*
X151978893Y-78712667D01*
X151975700Y-78659482D01*
X151963787Y-78638847D01*
X151919324Y-78609491D01*
X151886774Y-78600769D01*
X151833590Y-78603961D01*
X151751049Y-78651616D01*
X151721691Y-78696080D01*
X151712971Y-78728629D01*
X151716162Y-78781813D01*
X151728076Y-78802448D01*
X151772540Y-78831805D01*
X151805088Y-78840527D01*
X151858273Y-78837334D01*
X151940814Y-78789679D01*
X151993998Y-78786487D01*
X152026548Y-78795208D01*
X152071011Y-78824565D01*
X152118666Y-78907106D01*
X152121858Y-78960291D01*
X152113136Y-78992840D01*
X152083780Y-79037303D01*
X152001239Y-79084958D01*
X151948054Y-79088151D01*
X151915505Y-79079429D01*
X151871042Y-79050072D01*
X151823386Y-78967531D01*
X151820195Y-78914346D01*
X151828916Y-78881798D01*
X151858273Y-78837334D01*
X154769396Y-85014707D02*
X154793224Y-85038535D01*
X154864707Y-85062362D01*
X154912362Y-85062362D01*
X154983845Y-85038535D01*
X155031500Y-84990880D01*
X155055328Y-84943224D01*
X155079156Y-84847914D01*
X155079156Y-84776431D01*
X155055328Y-84681120D01*
X155031500Y-84633465D01*
X154983845Y-84585810D01*
X154912362Y-84561982D01*
X154864707Y-84561982D01*
X154793224Y-84585810D01*
X154769396Y-84609638D01*
X154531120Y-85062362D02*
X154435810Y-85062362D01*
X154388155Y-85038535D01*
X154364327Y-85014707D01*
X154316672Y-84943224D01*
X154292844Y-84847914D01*
X154292844Y-84657293D01*
X154316672Y-84609638D01*
X154340499Y-84585810D01*
X154388155Y-84561982D01*
X154483465Y-84561982D01*
X154531120Y-84585810D01*
X154554948Y-84609638D01*
X154578776Y-84657293D01*
X154578776Y-84776431D01*
X154554948Y-84824086D01*
X154531120Y-84847914D01*
X154483465Y-84871741D01*
X154388155Y-84871741D01*
X154340499Y-84847914D01*
X154316672Y-84824086D01*
X154292844Y-84776431D01*
X141972232Y-93958032D02*
X141785245Y-93735251D01*
X142046237Y-93681843D02*
X141562907Y-93552335D01*
X141513571Y-93736461D01*
X141524253Y-93788660D01*
X141541102Y-93817843D01*
X141580966Y-93853193D01*
X141650013Y-93871694D01*
X141702211Y-93861012D01*
X141731395Y-93844163D01*
X141766744Y-93804299D01*
X141816080Y-93620173D01*
X141848892Y-94418346D02*
X141922896Y-94142157D01*
X141885894Y-94280252D02*
X141402564Y-94150744D01*
X141483945Y-94123214D01*
X141542311Y-94089517D01*
X141577661Y-94049652D01*
X138141032Y-92557091D02*
X138090487Y-92270663D01*
X138343216Y-92354907D02*
X137989394Y-92001085D01*
X137854605Y-92135874D01*
X137837757Y-92186420D01*
X137837757Y-92220118D01*
X137854605Y-92270664D01*
X137905151Y-92321210D01*
X137955697Y-92338059D01*
X137989395Y-92338059D01*
X138039940Y-92321210D01*
X138174730Y-92186420D01*
X137686119Y-92371756D02*
X137652421Y-92371756D01*
X137601875Y-92388604D01*
X137517632Y-92472847D01*
X137500783Y-92523394D01*
X137500784Y-92557091D01*
X137517632Y-92607637D01*
X137551329Y-92641335D01*
X137618724Y-92675032D01*
X138023092Y-92675032D01*
X137804059Y-92894064D01*
X135521141Y-89859063D02*
X135620581Y-89585737D01*
X135797330Y-89785059D02*
X135667822Y-89301729D01*
X135483697Y-89351065D01*
X135443833Y-89386415D01*
X135426984Y-89415598D01*
X135416302Y-89467797D01*
X135434803Y-89536844D01*
X135470153Y-89576708D01*
X135499336Y-89593557D01*
X135551534Y-89604238D01*
X135735660Y-89554902D01*
X135230524Y-89418903D02*
X134931319Y-89499074D01*
X135141765Y-89640031D01*
X135072719Y-89658532D01*
X135032854Y-89693882D01*
X135016006Y-89723065D01*
X135005324Y-89775263D01*
X135036159Y-89890342D01*
X135071509Y-89930206D01*
X135100692Y-89947055D01*
X135152891Y-89957736D01*
X135290984Y-89920734D01*
X135330849Y-89885384D01*
X135347697Y-89856201D01*
X134641968Y-86092233D02*
X134864749Y-85905246D01*
X134918157Y-86166238D02*
X135047665Y-85682908D01*
X134863539Y-85633572D01*
X134811340Y-85644254D01*
X134782157Y-85661103D01*
X134746807Y-85700967D01*
X134728306Y-85770014D01*
X134738988Y-85822212D01*
X134755837Y-85851396D01*
X134795701Y-85886745D01*
X134979827Y-85936081D01*
X134314023Y-85659007D02*
X134227685Y-85981227D01*
X134478438Y-85505717D02*
X134501012Y-85881788D01*
X134201807Y-85801616D01*
X135788908Y-82261031D02*
X136075336Y-82210486D01*
X135991092Y-82463215D02*
X136344914Y-82109393D01*
X136210125Y-81974604D01*
X136159579Y-81957756D01*
X136125881Y-81957756D01*
X136075335Y-81974604D01*
X136024789Y-82025150D01*
X136007940Y-82075696D01*
X136007940Y-82109394D01*
X136024789Y-82159939D01*
X136159579Y-82294729D01*
X135822606Y-81587085D02*
X135991092Y-81755571D01*
X135839454Y-81940907D01*
X135839454Y-81907210D01*
X135822606Y-81856663D01*
X135738362Y-81772420D01*
X135687816Y-81755571D01*
X135654118Y-81755572D01*
X135603572Y-81772420D01*
X135519329Y-81856663D01*
X135502481Y-81907210D01*
X135502480Y-81940907D01*
X135519330Y-81991453D01*
X135603573Y-82075696D01*
X135654118Y-82092545D01*
X135687816Y-82092545D01*
X138994936Y-79895141D02*
X139268262Y-79994581D01*
X139068940Y-80171330D02*
X139552270Y-80041822D01*
X139502934Y-79857697D01*
X139467584Y-79817833D01*
X139438401Y-79800984D01*
X139386202Y-79790302D01*
X139317155Y-79808803D01*
X139277291Y-79844153D01*
X139260442Y-79873336D01*
X139249761Y-79925534D01*
X139299097Y-80109660D01*
X139367259Y-79351351D02*
X139391927Y-79443414D01*
X139381245Y-79495612D01*
X139364396Y-79524795D01*
X139307684Y-79589328D01*
X139221788Y-79637012D01*
X139037662Y-79686348D01*
X138985464Y-79675666D01*
X138956280Y-79658817D01*
X138920931Y-79618953D01*
X138896263Y-79526891D01*
X138906944Y-79474692D01*
X138923793Y-79445509D01*
X138963657Y-79410159D01*
X139078736Y-79379324D01*
X139130934Y-79390006D01*
X139160117Y-79406854D01*
X139195467Y-79446719D01*
X139220135Y-79538781D01*
X139209453Y-79590980D01*
X139192604Y-79620163D01*
X139152740Y-79655513D01*
X142988234Y-78972032D02*
X142801247Y-78749251D01*
X143062239Y-78695843D02*
X142578909Y-78566335D01*
X142529573Y-78750461D01*
X142540255Y-78802660D01*
X142557104Y-78831843D01*
X142596968Y-78867193D01*
X142666015Y-78885694D01*
X142718213Y-78875012D01*
X142747397Y-78858163D01*
X142782746Y-78818299D01*
X142832082Y-78634173D01*
X142461735Y-79003634D02*
X142375397Y-79325855D01*
X142914230Y-79248221D01*
X146523032Y-80111092D02*
X146472487Y-79824664D01*
X146725216Y-79908908D02*
X146371394Y-79555086D01*
X146236605Y-79689875D01*
X146219757Y-79740421D01*
X146219757Y-79774119D01*
X146236605Y-79824665D01*
X146287151Y-79875211D01*
X146337697Y-79892060D01*
X146371395Y-79892060D01*
X146421940Y-79875211D01*
X146556730Y-79740421D01*
X146118664Y-80111092D02*
X146135513Y-80060546D01*
X146135513Y-80026849D01*
X146118664Y-79976302D01*
X146101816Y-79959454D01*
X146051270Y-79942606D01*
X146017572Y-79942606D01*
X145967026Y-79959454D01*
X145899632Y-80026848D01*
X145882783Y-80077395D01*
X145882784Y-80111092D01*
X145899632Y-80161638D01*
X145916480Y-80178487D01*
X145967027Y-80195336D01*
X146000723Y-80195336D01*
X146051270Y-80178487D01*
X146118664Y-80111092D01*
X146169211Y-80094244D01*
X146202908Y-80094243D01*
X146253454Y-80111092D01*
X146320849Y-80178487D01*
X146337697Y-80229033D01*
X146337697Y-80262731D01*
X146320848Y-80313276D01*
X146253454Y-80380670D01*
X146202908Y-80397520D01*
X146169211Y-80397519D01*
X146118664Y-80380671D01*
X146051269Y-80313276D01*
X146034421Y-80262730D01*
X146034421Y-80229033D01*
X146051270Y-80178487D01*
X149237141Y-83255065D02*
X149336581Y-82981739D01*
X149513330Y-83181061D02*
X149383822Y-82697731D01*
X149199697Y-82747067D01*
X149159833Y-82782417D01*
X149142984Y-82811600D01*
X149132302Y-82863799D01*
X149150803Y-82932846D01*
X149186153Y-82972710D01*
X149215336Y-82989559D01*
X149267534Y-83000240D01*
X149451660Y-82950904D01*
X149006984Y-83316736D02*
X148914922Y-83341404D01*
X148862724Y-83330723D01*
X148833541Y-83313874D01*
X148769008Y-83257161D01*
X148721324Y-83171265D01*
X148671988Y-82987140D01*
X148682670Y-82934941D01*
X148699518Y-82905758D01*
X148739383Y-82870408D01*
X148831445Y-82845740D01*
X148883643Y-82856422D01*
X148912827Y-82873271D01*
X148948177Y-82913135D01*
X148979012Y-83028213D01*
X148968330Y-83080412D01*
X148951481Y-83109595D01*
X148911617Y-83144944D01*
X148819554Y-83169612D01*
X148767355Y-83158931D01*
X148738173Y-83142082D01*
X148702823Y-83102218D01*
%LPC*%
D15*
X142240000Y-99060000D03*
X149352000Y-97028000D03*
D10*
G36*
X136685419Y-97444087D02*
X135475581Y-96745587D01*
X135920081Y-95975691D01*
X137129919Y-96674191D01*
X136685419Y-97444087D01*
X136685419Y-97444087D01*
G37*
G36*
X137637919Y-95794309D02*
X136428081Y-95095809D01*
X136872581Y-94325913D01*
X138082419Y-95024413D01*
X137637919Y-95794309D01*
X137637919Y-95794309D01*
G37*
G36*
X131854413Y-93124419D02*
X131155913Y-91914581D01*
X131925809Y-91470081D01*
X132624309Y-92679919D01*
X131854413Y-93124419D01*
X131854413Y-93124419D01*
G37*
G36*
X133504191Y-92171919D02*
X132805691Y-90962081D01*
X133575587Y-90517581D01*
X134274087Y-91727419D01*
X133504191Y-92171919D01*
X133504191Y-92171919D01*
G37*
D16*
X130365500Y-86360000D03*
X132270500Y-86360000D03*
D10*
G36*
X131155913Y-80805419D02*
X131854413Y-79595581D01*
X132624309Y-80040081D01*
X131925809Y-81249919D01*
X131155913Y-80805419D01*
X131155913Y-80805419D01*
G37*
G36*
X132805691Y-81757919D02*
X133504191Y-80548081D01*
X134274087Y-80992581D01*
X133575587Y-82202419D01*
X132805691Y-81757919D01*
X132805691Y-81757919D01*
G37*
G36*
X135475581Y-75974413D02*
X136685419Y-75275913D01*
X137129919Y-76045809D01*
X135920081Y-76744309D01*
X135475581Y-75974413D01*
X135475581Y-75974413D01*
G37*
G36*
X136428081Y-77624191D02*
X137637919Y-76925691D01*
X138082419Y-77695587D01*
X136872581Y-78394087D01*
X136428081Y-77624191D01*
X136428081Y-77624191D01*
G37*
D17*
X142240000Y-74358500D03*
X142240000Y-76263500D03*
D10*
G36*
X147921581Y-75148913D02*
X149131419Y-75847413D01*
X148686919Y-76617309D01*
X147477081Y-75918809D01*
X147921581Y-75148913D01*
X147921581Y-75148913D01*
G37*
G36*
X146969081Y-76798691D02*
X148178919Y-77497191D01*
X147734419Y-78267087D01*
X146524581Y-77568587D01*
X146969081Y-76798691D01*
X146969081Y-76798691D01*
G37*
G36*
X152752587Y-79468581D02*
X153451087Y-80678419D01*
X152681191Y-81122919D01*
X151982691Y-79913081D01*
X152752587Y-79468581D01*
X152752587Y-79468581D01*
G37*
G36*
X151102809Y-80421081D02*
X151801309Y-81630919D01*
X151031413Y-82075419D01*
X150332913Y-80865581D01*
X151102809Y-80421081D01*
X151102809Y-80421081D01*
G37*
D16*
X154368500Y-86360000D03*
X152463500Y-86360000D03*
D10*
G36*
X140648129Y-95129183D02*
X139298731Y-94767613D01*
X139528821Y-93908905D01*
X140878219Y-94270475D01*
X140648129Y-95129183D01*
X140648129Y-95129183D01*
G37*
G36*
X141141179Y-93289095D02*
X139791781Y-92927525D01*
X140021871Y-92068817D01*
X141371269Y-92430387D01*
X141141179Y-93289095D01*
X141141179Y-93289095D01*
G37*
G36*
X136412086Y-93048742D02*
X135424258Y-92060914D01*
X136052876Y-91432296D01*
X137040704Y-92420124D01*
X136412086Y-93048742D01*
X136412086Y-93048742D01*
G37*
G36*
X137759124Y-91701704D02*
X136771296Y-90713876D01*
X137399914Y-90085258D01*
X138387742Y-91073086D01*
X137759124Y-91701704D01*
X137759124Y-91701704D01*
G37*
G36*
X133832387Y-89301269D02*
X133470817Y-87951871D01*
X134329525Y-87721781D01*
X134691095Y-89071179D01*
X133832387Y-89301269D01*
X133832387Y-89301269D01*
G37*
G36*
X135672475Y-88808219D02*
X135310905Y-87458821D01*
X136169613Y-87228731D01*
X136531183Y-88578129D01*
X135672475Y-88808219D01*
X135672475Y-88808219D01*
G37*
G36*
X133597817Y-84895129D02*
X133959387Y-83545731D01*
X134818095Y-83775821D01*
X134456525Y-85125219D01*
X133597817Y-84895129D01*
X133597817Y-84895129D01*
G37*
G36*
X135437905Y-85388179D02*
X135799475Y-84038781D01*
X136658183Y-84268871D01*
X136296613Y-85618269D01*
X135437905Y-85388179D01*
X135437905Y-85388179D01*
G37*
G36*
X135551258Y-80786086D02*
X136539086Y-79798258D01*
X137167704Y-80426876D01*
X136179876Y-81414704D01*
X135551258Y-80786086D01*
X135551258Y-80786086D01*
G37*
G36*
X136898296Y-82133124D02*
X137886124Y-81145296D01*
X138514742Y-81773914D01*
X137526914Y-82761742D01*
X136898296Y-82133124D01*
X136898296Y-82133124D01*
G37*
G36*
X139425731Y-78206387D02*
X140775129Y-77844817D01*
X141005219Y-78703525D01*
X139655821Y-79065095D01*
X139425731Y-78206387D01*
X139425731Y-78206387D01*
G37*
G36*
X139918781Y-80046475D02*
X141268179Y-79684905D01*
X141498269Y-80543613D01*
X140148871Y-80905183D01*
X139918781Y-80046475D01*
X139918781Y-80046475D01*
G37*
G36*
X143831871Y-77844817D02*
X145181269Y-78206387D01*
X144951179Y-79065095D01*
X143601781Y-78703525D01*
X143831871Y-77844817D01*
X143831871Y-77844817D01*
G37*
G36*
X143338821Y-79684905D02*
X144688219Y-80046475D01*
X144458129Y-80905183D01*
X143108731Y-80543613D01*
X143338821Y-79684905D01*
X143338821Y-79684905D01*
G37*
G36*
X147813914Y-79544258D02*
X148801742Y-80532086D01*
X148173124Y-81160704D01*
X147185296Y-80172876D01*
X147813914Y-79544258D01*
X147813914Y-79544258D01*
G37*
G36*
X146466876Y-80891296D02*
X147454704Y-81879124D01*
X146826086Y-82507742D01*
X145838258Y-81519914D01*
X146466876Y-80891296D01*
X146466876Y-80891296D01*
G37*
G36*
X150647613Y-83418731D02*
X151009183Y-84768129D01*
X150150475Y-84998219D01*
X149788905Y-83648821D01*
X150647613Y-83418731D01*
X150647613Y-83418731D01*
G37*
G36*
X148807525Y-83911781D02*
X149169095Y-85261179D01*
X148310387Y-85491269D01*
X147948817Y-84141871D01*
X148807525Y-83911781D01*
X148807525Y-83911781D01*
G37*
D18*
X145112891Y-97081776D03*
X139367109Y-97081776D03*
X134391115Y-94208885D03*
X131518224Y-89232891D03*
X131518224Y-83487109D03*
X134391115Y-78511115D03*
X139367109Y-75638224D03*
X145112891Y-75638224D03*
X150088885Y-78511115D03*
X152961776Y-83487109D03*
X152961776Y-89232891D03*
X150088885Y-94208885D03*
X139530000Y-89060000D03*
M02*
