%FSLAX46Y46*%
G04 Gerber Fmt 4.6, Leading zero omitted, Abs format (unit mm)*
G04 Created by KiCad (PCBNEW (2014-10-18 BZR 5203)-product) date 24/10/2014 14:08:12*
%MOMM*%
G01*
G04 APERTURE LIST*
%ADD10C,0.100000*%
%ADD11C,2.235200*%
%ADD12R,0.889000X1.397000*%
%ADD13R,1.397000X0.889000*%
%ADD14C,2.500000*%
%ADD15C,0.508000*%
G04 APERTURE END LIST*
D10*
D11*
X142240000Y-99060000D03*
X148590000Y-97282000D03*
D10*
G36*
X136685419Y-97444087D02*
X135475581Y-96745587D01*
X135920081Y-95975691D01*
X137129919Y-96674191D01*
X136685419Y-97444087D01*
X136685419Y-97444087D01*
G37*
G36*
X137637919Y-95794309D02*
X136428081Y-95095809D01*
X136872581Y-94325913D01*
X138082419Y-95024413D01*
X137637919Y-95794309D01*
X137637919Y-95794309D01*
G37*
G36*
X131854413Y-93124419D02*
X131155913Y-91914581D01*
X131925809Y-91470081D01*
X132624309Y-92679919D01*
X131854413Y-93124419D01*
X131854413Y-93124419D01*
G37*
G36*
X133504191Y-92171919D02*
X132805691Y-90962081D01*
X133575587Y-90517581D01*
X134274087Y-91727419D01*
X133504191Y-92171919D01*
X133504191Y-92171919D01*
G37*
D12*
X130365500Y-86360000D03*
X132270500Y-86360000D03*
D10*
G36*
X131155913Y-80805419D02*
X131854413Y-79595581D01*
X132624309Y-80040081D01*
X131925809Y-81249919D01*
X131155913Y-80805419D01*
X131155913Y-80805419D01*
G37*
G36*
X132805691Y-81757919D02*
X133504191Y-80548081D01*
X134274087Y-80992581D01*
X133575587Y-82202419D01*
X132805691Y-81757919D01*
X132805691Y-81757919D01*
G37*
G36*
X135475581Y-75974413D02*
X136685419Y-75275913D01*
X137129919Y-76045809D01*
X135920081Y-76744309D01*
X135475581Y-75974413D01*
X135475581Y-75974413D01*
G37*
G36*
X136428081Y-77624191D02*
X137637919Y-76925691D01*
X138082419Y-77695587D01*
X136872581Y-78394087D01*
X136428081Y-77624191D01*
X136428081Y-77624191D01*
G37*
D13*
X142240000Y-74358500D03*
X142240000Y-76263500D03*
D10*
G36*
X147921581Y-75148913D02*
X149131419Y-75847413D01*
X148686919Y-76617309D01*
X147477081Y-75918809D01*
X147921581Y-75148913D01*
X147921581Y-75148913D01*
G37*
G36*
X146969081Y-76798691D02*
X148178919Y-77497191D01*
X147734419Y-78267087D01*
X146524581Y-77568587D01*
X146969081Y-76798691D01*
X146969081Y-76798691D01*
G37*
G36*
X152752587Y-79468581D02*
X153451087Y-80678419D01*
X152681191Y-81122919D01*
X151982691Y-79913081D01*
X152752587Y-79468581D01*
X152752587Y-79468581D01*
G37*
G36*
X151102809Y-80421081D02*
X151801309Y-81630919D01*
X151031413Y-82075419D01*
X150332913Y-80865581D01*
X151102809Y-80421081D01*
X151102809Y-80421081D01*
G37*
D12*
X154368500Y-86360000D03*
X152463500Y-86360000D03*
D10*
G36*
X140648129Y-95129183D02*
X139298731Y-94767613D01*
X139528821Y-93908905D01*
X140878219Y-94270475D01*
X140648129Y-95129183D01*
X140648129Y-95129183D01*
G37*
G36*
X141141179Y-93289095D02*
X139791781Y-92927525D01*
X140021871Y-92068817D01*
X141371269Y-92430387D01*
X141141179Y-93289095D01*
X141141179Y-93289095D01*
G37*
G36*
X136412086Y-93048742D02*
X135424258Y-92060914D01*
X136052876Y-91432296D01*
X137040704Y-92420124D01*
X136412086Y-93048742D01*
X136412086Y-93048742D01*
G37*
G36*
X137759124Y-91701704D02*
X136771296Y-90713876D01*
X137399914Y-90085258D01*
X138387742Y-91073086D01*
X137759124Y-91701704D01*
X137759124Y-91701704D01*
G37*
G36*
X133832387Y-89301269D02*
X133470817Y-87951871D01*
X134329525Y-87721781D01*
X134691095Y-89071179D01*
X133832387Y-89301269D01*
X133832387Y-89301269D01*
G37*
G36*
X135672475Y-88808219D02*
X135310905Y-87458821D01*
X136169613Y-87228731D01*
X136531183Y-88578129D01*
X135672475Y-88808219D01*
X135672475Y-88808219D01*
G37*
G36*
X133597817Y-84895129D02*
X133959387Y-83545731D01*
X134818095Y-83775821D01*
X134456525Y-85125219D01*
X133597817Y-84895129D01*
X133597817Y-84895129D01*
G37*
G36*
X135437905Y-85388179D02*
X135799475Y-84038781D01*
X136658183Y-84268871D01*
X136296613Y-85618269D01*
X135437905Y-85388179D01*
X135437905Y-85388179D01*
G37*
G36*
X135551258Y-80786086D02*
X136539086Y-79798258D01*
X137167704Y-80426876D01*
X136179876Y-81414704D01*
X135551258Y-80786086D01*
X135551258Y-80786086D01*
G37*
G36*
X136898296Y-82133124D02*
X137886124Y-81145296D01*
X138514742Y-81773914D01*
X137526914Y-82761742D01*
X136898296Y-82133124D01*
X136898296Y-82133124D01*
G37*
G36*
X139425731Y-78206387D02*
X140775129Y-77844817D01*
X141005219Y-78703525D01*
X139655821Y-79065095D01*
X139425731Y-78206387D01*
X139425731Y-78206387D01*
G37*
G36*
X139918781Y-80046475D02*
X141268179Y-79684905D01*
X141498269Y-80543613D01*
X140148871Y-80905183D01*
X139918781Y-80046475D01*
X139918781Y-80046475D01*
G37*
G36*
X143831871Y-77844817D02*
X145181269Y-78206387D01*
X144951179Y-79065095D01*
X143601781Y-78703525D01*
X143831871Y-77844817D01*
X143831871Y-77844817D01*
G37*
G36*
X143338821Y-79684905D02*
X144688219Y-80046475D01*
X144458129Y-80905183D01*
X143108731Y-80543613D01*
X143338821Y-79684905D01*
X143338821Y-79684905D01*
G37*
G36*
X147813914Y-79544258D02*
X148801742Y-80532086D01*
X148173124Y-81160704D01*
X147185296Y-80172876D01*
X147813914Y-79544258D01*
X147813914Y-79544258D01*
G37*
G36*
X146466876Y-80891296D02*
X147454704Y-81879124D01*
X146826086Y-82507742D01*
X145838258Y-81519914D01*
X146466876Y-80891296D01*
X146466876Y-80891296D01*
G37*
G36*
X150647613Y-83418731D02*
X151009183Y-84768129D01*
X150150475Y-84998219D01*
X149788905Y-83648821D01*
X150647613Y-83418731D01*
X150647613Y-83418731D01*
G37*
G36*
X148807525Y-83911781D02*
X149169095Y-85261179D01*
X148310387Y-85491269D01*
X147948817Y-84141871D01*
X148807525Y-83911781D01*
X148807525Y-83911781D01*
G37*
D14*
X145112891Y-97081776D03*
X139367109Y-97081776D03*
X134391115Y-94208885D03*
X131518224Y-89232891D03*
X131518224Y-83487109D03*
X134391115Y-78511115D03*
X139367109Y-75638224D03*
X145112891Y-75638224D03*
X150088885Y-78511115D03*
X152961776Y-83487109D03*
X152961776Y-89232891D03*
X150088885Y-94208885D03*
X139530000Y-89060000D03*
D15*
X139367109Y-97081776D02*
X140088475Y-94519044D01*
X136302750Y-96709889D02*
X139367109Y-97081776D01*
X148111882Y-89415472D02*
X148844000Y-86487000D01*
X148082000Y-89535000D02*
X148111882Y-89415472D01*
X152463500Y-86360000D02*
X148844000Y-86487000D01*
X148844000Y-86487000D02*
X148558956Y-84701525D01*
X137255250Y-95060111D02*
X138954446Y-91938471D01*
X138954446Y-91938471D02*
X138954446Y-91938472D01*
X133539889Y-91344750D02*
X136564536Y-89481141D01*
X132270500Y-86360000D02*
X135794044Y-86360000D01*
X133539889Y-81375250D02*
X136614485Y-83322078D01*
X137255250Y-77659889D02*
X139009862Y-80883336D01*
X142240000Y-76263500D02*
X142380172Y-79978048D01*
X147351750Y-77532889D02*
X145390372Y-80768105D01*
X151067111Y-81248250D02*
X147802246Y-83088701D01*
X147802246Y-83088701D02*
X147802246Y-83088700D01*
X148558956Y-84701525D02*
X147802246Y-83088700D01*
X147802246Y-83088700D02*
X146646481Y-81699519D01*
X146646481Y-81699519D02*
X145390372Y-80768105D01*
X145390372Y-80768105D02*
X143898475Y-80295044D01*
X143898475Y-80295044D02*
X142380172Y-79978048D01*
X142380172Y-79978048D02*
X140708525Y-80295044D01*
X140708525Y-80295044D02*
X139009862Y-80883336D01*
X139009862Y-80883336D02*
X137706519Y-81953519D01*
X137706519Y-81953519D02*
X136614485Y-83322078D01*
X136614485Y-83322078D02*
X136048044Y-84828525D01*
X136048044Y-84828525D02*
X135794044Y-86360000D01*
X135794044Y-86360000D02*
X135921044Y-88018475D01*
X135921044Y-88018475D02*
X136564536Y-89481141D01*
X136564536Y-89481141D02*
X137579519Y-90893481D01*
X137579519Y-90893481D02*
X138954446Y-91938472D01*
X138954446Y-91938472D02*
X140581525Y-92678956D01*
X147320000Y-90715354D02*
X147320000Y-95504000D01*
X147320000Y-95504000D02*
X148590000Y-97282000D01*
X148111882Y-89415472D02*
X147320000Y-90715354D01*
X134391115Y-94208885D02*
X136232481Y-92240519D01*
X131890111Y-92297250D02*
X134391115Y-94208885D01*
X131518224Y-89232891D02*
X134080956Y-88511525D01*
X130365500Y-86360000D02*
X131518224Y-89232891D01*
X131518224Y-83487109D02*
X134207956Y-84335475D01*
X131890111Y-80422750D02*
X131518224Y-83487109D01*
X134391115Y-78511115D02*
X136359481Y-80606481D01*
X136302750Y-76010111D02*
X134391115Y-78511115D01*
X139367109Y-75638224D02*
X140215475Y-78454956D01*
X142240000Y-74358500D02*
X139367109Y-75638224D01*
X145112891Y-75638224D02*
X144391525Y-78454956D01*
X148304250Y-75883111D02*
X145112891Y-75638224D01*
X150088885Y-78511115D02*
X147993519Y-80352481D01*
X152716889Y-80295750D02*
X150088885Y-78511115D01*
X152961776Y-83487109D02*
X150399044Y-84208475D01*
X154368500Y-86360000D02*
X152961776Y-83487109D01*
X142240000Y-90678000D02*
X142240000Y-99060000D01*
X140622000Y-89060000D02*
X142240000Y-90678000D01*
X139530000Y-89060000D02*
X140622000Y-89060000D01*
M02*
