%FSLAX46Y46*%
G04 Gerber Fmt 4.6, Leading zero omitted, Abs format (unit mm)*
G04 Created by KiCad (PCBNEW (2014-10-18 BZR 5203)-product) date 24/10/2014 14:42:56*
%MOMM*%
G01*
G04 APERTURE LIST*
%ADD10C,0.100000*%
%ADD11C,0.190500*%
%ADD12C,0.222250*%
%ADD13C,0.099060*%
%ADD14C,0.109220*%
%ADD15R,0.889000X1.397000*%
%ADD16R,1.397000X0.889000*%
%ADD17C,2.000000*%
%ADD18C,2.500000*%
G04 APERTURE END LIST*
D10*
D11*
X177853222Y-81997461D02*
X178046805Y-81527791D01*
X178019150Y-81594887D02*
X177999431Y-81547512D01*
X177946162Y-81486309D01*
X177845519Y-81444827D01*
X177764596Y-81450720D01*
X177703393Y-81503988D01*
X177551292Y-81873014D01*
X177703393Y-81503988D02*
X177697500Y-81423065D01*
X177644232Y-81361862D01*
X177543589Y-81320380D01*
X177462665Y-81326273D01*
X177401463Y-81379541D01*
X177249362Y-81748568D01*
X176659328Y-81466127D02*
X176712596Y-81527329D01*
X176846788Y-81582638D01*
X176927710Y-81576746D01*
X176988913Y-81523477D01*
X177099533Y-81255095D01*
X177093639Y-81174172D01*
X177040371Y-81112969D01*
X176906180Y-81057659D01*
X176825257Y-81063553D01*
X176764055Y-81116820D01*
X176736400Y-81183917D01*
X177044223Y-81389286D01*
X176201676Y-80767284D02*
X175966610Y-81337596D01*
X175972503Y-81418520D01*
X175992223Y-81465895D01*
X176045492Y-81527097D01*
X176146135Y-81568580D01*
X176227057Y-81562687D01*
X176021919Y-81203406D02*
X176075187Y-81264608D01*
X176209379Y-81319917D01*
X176290302Y-81314025D01*
X176337677Y-81294304D01*
X176398880Y-81241036D01*
X176481844Y-81039749D01*
X176475951Y-80958826D01*
X176456231Y-80911451D01*
X176402963Y-80850248D01*
X176268771Y-80794938D01*
X176187848Y-80800832D01*
X175370683Y-80974232D02*
X175522785Y-80605206D01*
X175583988Y-80551938D01*
X175664910Y-80546045D01*
X175799102Y-80601355D01*
X175852370Y-80662557D01*
X175384511Y-80940685D02*
X175437779Y-81001887D01*
X175605518Y-81071024D01*
X175686440Y-81065132D01*
X175747644Y-81011863D01*
X175775298Y-80944768D01*
X175769405Y-80863844D01*
X175716137Y-80802642D01*
X175548398Y-80733505D01*
X175495130Y-80672302D01*
X175329432Y-80407771D02*
X175061050Y-80297151D01*
X175325580Y-80131454D02*
X175076687Y-80735314D01*
X175015484Y-80788583D01*
X174934561Y-80794476D01*
X174867466Y-80766821D01*
X174531987Y-80628546D02*
X174612910Y-80622654D01*
X174660285Y-80602933D01*
X174721488Y-80549665D01*
X174804452Y-80348378D01*
X174798559Y-80267455D01*
X174778839Y-80220080D01*
X174725571Y-80158877D01*
X174624927Y-80117395D01*
X174544005Y-80123288D01*
X174496629Y-80143009D01*
X174435426Y-80196277D01*
X174352462Y-80397563D01*
X174358355Y-80478487D01*
X174378076Y-80525862D01*
X174431344Y-80587064D01*
X174531987Y-80628546D01*
X174188805Y-79937638D02*
X173995221Y-80407308D01*
X174161150Y-80004734D02*
X174141431Y-79957359D01*
X174088162Y-79896156D01*
X173987519Y-79854674D01*
X173906596Y-79860567D01*
X173845393Y-79913835D01*
X173693292Y-80282861D01*
X173103258Y-80000421D02*
X173156526Y-80061622D01*
X173290717Y-80116932D01*
X173371640Y-80111040D01*
X173432843Y-80057771D01*
X173543462Y-79789388D01*
X173537569Y-79708465D01*
X173484301Y-79647263D01*
X173350110Y-79591953D01*
X173269187Y-79597846D01*
X173207984Y-79651114D01*
X173180329Y-79718210D01*
X173488153Y-79923580D01*
X172217187Y-79674455D02*
X172507563Y-78969951D01*
X172339824Y-78900814D01*
X172225353Y-78892880D01*
X172130603Y-78932320D01*
X172069400Y-78985589D01*
X171980543Y-79105953D01*
X171939061Y-79206596D01*
X171917299Y-79354615D01*
X171923191Y-79435537D01*
X171962632Y-79530289D01*
X172049449Y-79605318D01*
X172217187Y-79674455D01*
X171803059Y-78679575D02*
X171567993Y-79249888D01*
X171506791Y-79303157D01*
X171459415Y-79322877D01*
X171378493Y-79328770D01*
X171244301Y-79273460D01*
X171191032Y-79212258D01*
X171171313Y-79164883D01*
X171165420Y-79083959D01*
X171400486Y-78513646D01*
X170930816Y-78320063D02*
X170796625Y-78264753D01*
X170715701Y-78270646D01*
X170620951Y-78310087D01*
X170532093Y-78430450D01*
X170435302Y-78665285D01*
X170413540Y-78813304D01*
X170452980Y-78908055D01*
X170506249Y-78969257D01*
X170640441Y-79024567D01*
X170721363Y-79018674D01*
X170816113Y-78979233D01*
X170904971Y-78858869D01*
X171001763Y-78624034D01*
X171023524Y-78476015D01*
X170984084Y-78381265D01*
X170930816Y-78320063D01*
D12*
X172950063Y-67816500D02*
X173044103Y-67827323D01*
X173203224Y-67769408D01*
X173268306Y-67700669D01*
X173293607Y-67646410D01*
X173304430Y-67552370D01*
X173217557Y-67313688D01*
X173148818Y-67248607D01*
X173094559Y-67223305D01*
X173000520Y-67212483D01*
X172841399Y-67270398D01*
X172776316Y-67339136D01*
X172487178Y-68030027D02*
X172552260Y-67961288D01*
X172563082Y-67867249D01*
X172302463Y-67151204D01*
X171810912Y-68276167D02*
X171651645Y-67838584D01*
X171662468Y-67744544D01*
X171727549Y-67675806D01*
X171886671Y-67617890D01*
X171980710Y-67628713D01*
X171796433Y-68236387D02*
X171890473Y-68247210D01*
X172089375Y-68174815D01*
X172154456Y-68106077D01*
X172165279Y-68012038D01*
X172136322Y-67932477D01*
X172067583Y-67867395D01*
X171973544Y-67856572D01*
X171774642Y-67928967D01*
X171680602Y-67918145D01*
X171438411Y-68366696D02*
X171373329Y-68435435D01*
X171214208Y-68493350D01*
X171120168Y-68482527D01*
X171051431Y-68417446D01*
X171036952Y-68377665D01*
X171047774Y-68283626D01*
X171112856Y-68214887D01*
X171232197Y-68171450D01*
X171297278Y-68102713D01*
X171308101Y-68008673D01*
X171293623Y-67968893D01*
X171224884Y-67903811D01*
X171130845Y-67892989D01*
X171011504Y-67936425D01*
X170946422Y-68005163D01*
X170762145Y-68612836D02*
X170697063Y-68681575D01*
X170537942Y-68739491D01*
X170443902Y-68728667D01*
X170375165Y-68663586D01*
X170360686Y-68623805D01*
X170371508Y-68529766D01*
X170436590Y-68461028D01*
X170555931Y-68417591D01*
X170621013Y-68348854D01*
X170631836Y-68254814D01*
X170617357Y-68215034D01*
X170548618Y-68149952D01*
X170454579Y-68139129D01*
X170335238Y-68182566D01*
X170270156Y-68251304D01*
X170060578Y-68913237D02*
X169857874Y-68356312D01*
X169756522Y-68077850D02*
X169810781Y-68103151D01*
X169785479Y-68157410D01*
X169731221Y-68132109D01*
X169756522Y-68077850D01*
X169785479Y-68157410D01*
X169290273Y-69148554D02*
X169384313Y-69159377D01*
X169543434Y-69101462D01*
X169608516Y-69032723D01*
X169633817Y-68978465D01*
X169644640Y-68884425D01*
X169557767Y-68645743D01*
X169489029Y-68580662D01*
X169434769Y-68555359D01*
X169340730Y-68544537D01*
X169181609Y-68602453D01*
X169116527Y-68671190D01*
X179822391Y-68493399D02*
X179976764Y-67617905D01*
X179917956Y-67951426D02*
X179841927Y-67895034D01*
X179675166Y-67865629D01*
X179584435Y-67892617D01*
X179535393Y-67926957D01*
X179479001Y-68002985D01*
X179434894Y-68253127D01*
X179461882Y-68343858D01*
X179496222Y-68392900D01*
X179572250Y-68449292D01*
X179739011Y-68478697D01*
X179829742Y-68451708D01*
X178905207Y-68331675D02*
X178995939Y-68304686D01*
X179044980Y-68270347D01*
X179101373Y-68194318D01*
X179145480Y-67944177D01*
X179118491Y-67853446D01*
X179084152Y-67804404D01*
X179008123Y-67748012D01*
X178883052Y-67725958D01*
X178792321Y-67752946D01*
X178743279Y-67787286D01*
X178686887Y-67863315D01*
X178642781Y-68113456D01*
X178669768Y-68204187D01*
X178704108Y-68253229D01*
X178780137Y-68309622D01*
X178905207Y-68331675D01*
X178113094Y-68192004D02*
X178203826Y-68165015D01*
X178252867Y-68130676D01*
X178309260Y-68054647D01*
X178353366Y-67804506D01*
X178326378Y-67713775D01*
X178292039Y-67664733D01*
X178216009Y-67608341D01*
X178090939Y-67586287D01*
X178000208Y-67613275D01*
X177951166Y-67647615D01*
X177894774Y-67723644D01*
X177850667Y-67973785D01*
X177877655Y-68064517D01*
X177911995Y-68113558D01*
X177988023Y-68169951D01*
X178113094Y-68192004D01*
X177495093Y-68040047D02*
X177404361Y-68067035D01*
X177237601Y-68037631D01*
X177161571Y-67981238D01*
X177134583Y-67890507D01*
X177141935Y-67848816D01*
X177198327Y-67772787D01*
X177289059Y-67745799D01*
X177414129Y-67767852D01*
X177504860Y-67740864D01*
X177561253Y-67664835D01*
X177568604Y-67623145D01*
X177541616Y-67532413D01*
X177465587Y-67476021D01*
X177340516Y-67453968D01*
X177249785Y-67480955D01*
X176965304Y-67387808D02*
X176631783Y-67328999D01*
X176891691Y-67073923D02*
X176759371Y-67824347D01*
X176702979Y-67900375D01*
X176612247Y-67927364D01*
X176528867Y-67912662D01*
X184742674Y-71114632D02*
X184280081Y-71665929D01*
X184258088Y-71757999D01*
X184263305Y-71817640D01*
X184300953Y-71904491D01*
X184398240Y-71986125D01*
X184490310Y-72008119D01*
X184388926Y-71536212D02*
X184426573Y-71623064D01*
X184556290Y-71731909D01*
X184648360Y-71753903D01*
X184708000Y-71748685D01*
X184794853Y-71711038D01*
X184958121Y-71516463D01*
X184980114Y-71424393D01*
X184974896Y-71364752D01*
X184937249Y-71277900D01*
X184807532Y-71169055D01*
X184715463Y-71147061D01*
X184418382Y-70842519D02*
X184037423Y-71296528D01*
X184363959Y-70907378D02*
X184358742Y-70847737D01*
X184321094Y-70760885D01*
X184223806Y-70679251D01*
X184131737Y-70657258D01*
X184044885Y-70694904D01*
X183745560Y-71051626D01*
X183129405Y-70534611D02*
X183700843Y-69853597D01*
X183156617Y-70502181D02*
X183194264Y-70589034D01*
X183323980Y-70697879D01*
X183416051Y-70719872D01*
X183475691Y-70714654D01*
X183562543Y-70677007D01*
X183725811Y-70482432D01*
X183747804Y-70390362D01*
X183742587Y-70330721D01*
X183704939Y-70243870D01*
X183575223Y-70135024D01*
X183483153Y-70113031D01*
D11*
X180433694Y-84654925D02*
X180772466Y-83833003D01*
X180449827Y-84615785D02*
X180500790Y-84682579D01*
X180634981Y-84737889D01*
X180718209Y-84726404D01*
X180767888Y-84701093D01*
X180833701Y-84636642D01*
X180930492Y-84401807D01*
X180929208Y-84309702D01*
X180911793Y-84256735D01*
X180860829Y-84189941D01*
X180726637Y-84134631D01*
X180643410Y-84146116D01*
X179997572Y-84475168D02*
X180080801Y-84463683D01*
X180130480Y-84438372D01*
X180196292Y-84373921D01*
X180293084Y-84139086D01*
X180291799Y-84046981D01*
X180274384Y-83994014D01*
X180223420Y-83927220D01*
X180122777Y-83885738D01*
X180039550Y-83897222D01*
X179989869Y-83922534D01*
X179924058Y-83986984D01*
X179827266Y-84221819D01*
X179828550Y-84313925D01*
X179845966Y-84366891D01*
X179896929Y-84433686D01*
X179997572Y-84475168D01*
X179360163Y-84212447D02*
X179443392Y-84200962D01*
X179509203Y-84136512D01*
X179799578Y-83432008D01*
X179015698Y-83429433D02*
X178741455Y-84094798D01*
X178742739Y-84186904D01*
X178760154Y-84239870D01*
X178811118Y-84306664D01*
X178911762Y-84348147D01*
X178994989Y-84336662D01*
X178805983Y-83938241D02*
X178856946Y-84005036D01*
X178991137Y-84060346D01*
X179074366Y-84048861D01*
X179124045Y-84023549D01*
X179189857Y-83959098D01*
X179286649Y-83724263D01*
X179285364Y-83632158D01*
X179267949Y-83579191D01*
X179216985Y-83512398D01*
X179082794Y-83457088D01*
X178999567Y-83468572D01*
X178152442Y-83714660D02*
X178329894Y-83284130D01*
X178395706Y-83219679D01*
X178478933Y-83208194D01*
X178613124Y-83263504D01*
X178664088Y-83330298D01*
X178168574Y-83675520D02*
X178219537Y-83742315D01*
X178387276Y-83811452D01*
X178470504Y-83799967D01*
X178536316Y-83735517D01*
X178568580Y-83657238D01*
X178567296Y-83565132D01*
X178516332Y-83498339D01*
X178348593Y-83429202D01*
X178297630Y-83362408D01*
X178042811Y-83028438D02*
X177816963Y-83576386D01*
X178010547Y-83106716D02*
X177993132Y-83053749D01*
X177942167Y-82986956D01*
X177841524Y-82945473D01*
X177758297Y-82956958D01*
X177692485Y-83021409D01*
X177515033Y-83451939D01*
X177078911Y-83272183D02*
X177162139Y-83260698D01*
X177211818Y-83235386D01*
X177277630Y-83170935D01*
X177374422Y-82936101D01*
X177373138Y-82843995D01*
X177355723Y-82791029D01*
X177304759Y-82724235D01*
X177204115Y-82682752D01*
X177120888Y-82694237D01*
X177071208Y-82719549D01*
X177005396Y-82783999D01*
X176908604Y-83018834D01*
X176909888Y-83110940D01*
X176927304Y-83163906D01*
X176978267Y-83230700D01*
X177078911Y-83272183D01*
X176868637Y-82544478D02*
X176600254Y-82433859D01*
X176542145Y-83050944D02*
X176832521Y-82346440D01*
X176831238Y-82254334D01*
X176780273Y-82187540D01*
X176713178Y-82159886D01*
X176466063Y-82378549D02*
X176197680Y-82267930D01*
X176139571Y-82885015D02*
X176429947Y-82180511D01*
X176428664Y-82088405D01*
X176377699Y-82021611D01*
X176310604Y-81993956D01*
X175769261Y-82640807D02*
X175719582Y-82666119D01*
X175736997Y-82719086D01*
X175786677Y-82693773D01*
X175769261Y-82640807D01*
X175736997Y-82719086D01*
X175115721Y-82417225D02*
X175166684Y-82484020D01*
X175300876Y-82539329D01*
X175384104Y-82527845D01*
X175433783Y-82502533D01*
X175499595Y-82438082D01*
X175596387Y-82203247D01*
X175595103Y-82111142D01*
X175577688Y-82058175D01*
X175526723Y-81991381D01*
X175392532Y-81936072D01*
X175309305Y-81947556D01*
X174697015Y-82290436D02*
X174780243Y-82278951D01*
X174829922Y-82253640D01*
X174895734Y-82189189D01*
X174992526Y-81954354D01*
X174991242Y-81862249D01*
X174973827Y-81809282D01*
X174922863Y-81742488D01*
X174822219Y-81701006D01*
X174738992Y-81712490D01*
X174689312Y-81737802D01*
X174623500Y-81802252D01*
X174526708Y-82037087D01*
X174527992Y-82129193D01*
X174545408Y-82182159D01*
X174596371Y-82248954D01*
X174697015Y-82290436D01*
X174160249Y-82069197D02*
X174386097Y-81521249D01*
X174353833Y-81599528D02*
X174336418Y-81546561D01*
X174285454Y-81479767D01*
X174184810Y-81438285D01*
X174101583Y-81449769D01*
X174035771Y-81514220D01*
X173858319Y-81944751D01*
X174035771Y-81514220D02*
X174034487Y-81422114D01*
X173983524Y-81355321D01*
X173882881Y-81313838D01*
X173799653Y-81325322D01*
X173733841Y-81389774D01*
X173556389Y-81820304D01*
X173072598Y-80613558D02*
X173240895Y-81919207D01*
X172809350Y-80871361D02*
X172540968Y-80760742D01*
X172482858Y-81377827D02*
X172773234Y-80673322D01*
X172771951Y-80581217D01*
X172720987Y-80514423D01*
X172653891Y-80486768D01*
X172080284Y-81211897D02*
X172306132Y-80663949D01*
X172241604Y-80820506D02*
X172240321Y-80728401D01*
X172222905Y-80675434D01*
X172171942Y-80608640D01*
X172104845Y-80580985D01*
X171495850Y-79963669D02*
X171664147Y-81269319D01*
X170604181Y-80603491D02*
X170781633Y-80172961D01*
X170847445Y-80108510D01*
X170930672Y-80097026D01*
X171064863Y-80152335D01*
X171115827Y-80219129D01*
X170620313Y-80564352D02*
X170671276Y-80631146D01*
X170839015Y-80700283D01*
X170922243Y-80688798D01*
X170988055Y-80624348D01*
X171020319Y-80546070D01*
X171019035Y-80453964D01*
X170968071Y-80387170D01*
X170800332Y-80318033D01*
X170749369Y-80251239D01*
X170397758Y-80152104D02*
X169860993Y-79930865D01*
X169622306Y-79557756D02*
X169283535Y-80379678D01*
X169606174Y-79596895D02*
X169555211Y-79530102D01*
X169421020Y-79474792D01*
X169337792Y-79486276D01*
X169288112Y-79511588D01*
X169222300Y-79576038D01*
X169125508Y-79810873D01*
X169126792Y-79902979D01*
X169144209Y-79955945D01*
X169195172Y-80022740D01*
X169329363Y-80078050D01*
X169412591Y-80066564D01*
X168759049Y-79842983D02*
X168984897Y-79295035D01*
X168920369Y-79451591D02*
X168919086Y-79359487D01*
X168901670Y-79306519D01*
X168850707Y-79239726D01*
X168783611Y-79212071D01*
X168222285Y-79621745D02*
X168305513Y-79610260D01*
X168355192Y-79584948D01*
X168421004Y-79520497D01*
X168517796Y-79285663D01*
X168516512Y-79193558D01*
X168499097Y-79140591D01*
X168448133Y-79073797D01*
X168347489Y-79032315D01*
X168264262Y-79043799D01*
X168214582Y-79069111D01*
X168148770Y-79133561D01*
X168051978Y-79368396D01*
X168053262Y-79460502D01*
X168070679Y-79513468D01*
X168121642Y-79580263D01*
X168222285Y-79621745D01*
X167911367Y-78852558D02*
X167572596Y-79674480D01*
X167895235Y-78891697D02*
X167844272Y-78824903D01*
X167710081Y-78769594D01*
X167626853Y-78781078D01*
X167577173Y-78806390D01*
X167511361Y-78870840D01*
X167414569Y-79105675D01*
X167415853Y-79197781D01*
X167433270Y-79250747D01*
X167484233Y-79317542D01*
X167618424Y-79372851D01*
X167701652Y-79361366D01*
X166947467Y-79096303D02*
X167030696Y-79084818D01*
X167080375Y-79059507D01*
X167146187Y-78995056D01*
X167242979Y-78760221D01*
X167241694Y-78668116D01*
X167224279Y-78615149D01*
X167173315Y-78548355D01*
X167072672Y-78506873D01*
X166989445Y-78518357D01*
X166939764Y-78543669D01*
X166873952Y-78608119D01*
X166777161Y-78842954D01*
X166778445Y-78935060D01*
X166795861Y-78988026D01*
X166846824Y-79054821D01*
X166947467Y-79096303D01*
X166460382Y-78849752D02*
X166377154Y-78861237D01*
X166242963Y-78805927D01*
X166191999Y-78739133D01*
X166190716Y-78647028D01*
X166206848Y-78607888D01*
X166272659Y-78543438D01*
X166355887Y-78531953D01*
X166456530Y-78573435D01*
X166539758Y-78561951D01*
X166605570Y-78497500D01*
X166621702Y-78458361D01*
X166620418Y-78366255D01*
X166569454Y-78299462D01*
X166468811Y-78257979D01*
X166385583Y-78269463D01*
D13*
X181825411Y-71785692D02*
G75*
G03X181825411Y-71785692I-127000J0D01*
G01*
X181126911Y-72775559D02*
X181634911Y-71895677D01*
X181634911Y-71895677D02*
X180315089Y-71133677D01*
X180315089Y-71133677D02*
X179807089Y-72013559D01*
X179299089Y-72893441D02*
X178791089Y-73773323D01*
X178791089Y-73773323D02*
X180110911Y-74535323D01*
X180110911Y-74535323D02*
X180618911Y-73655441D01*
X186849808Y-75653411D02*
G75*
G03X186849808Y-75653411I-127000J0D01*
G01*
X185732941Y-76224911D02*
X186612823Y-75716911D01*
X186612823Y-75716911D02*
X185850823Y-74397089D01*
X185850823Y-74397089D02*
X184970941Y-74905089D01*
X184091059Y-75413089D02*
X183211177Y-75921089D01*
X183211177Y-75921089D02*
X183973177Y-77240911D01*
X183973177Y-77240911D02*
X184853059Y-76732911D01*
X188087000Y-82042000D02*
G75*
G03X188087000Y-82042000I-127000J0D01*
G01*
X186817000Y-82042000D02*
X187833000Y-82042000D01*
X187833000Y-82042000D02*
X187833000Y-80518000D01*
X187833000Y-80518000D02*
X186817000Y-80518000D01*
X185801000Y-80518000D02*
X184785000Y-80518000D01*
X184785000Y-80518000D02*
X184785000Y-82042000D01*
X184785000Y-82042000D02*
X185801000Y-82042000D01*
X185960808Y-88416911D02*
G75*
G03X185960808Y-88416911I-127000J0D01*
G01*
X184843941Y-87845411D02*
X185723823Y-88353411D01*
X185723823Y-88353411D02*
X186485823Y-87033589D01*
X186485823Y-87033589D02*
X185605941Y-86525589D01*
X184726059Y-86017589D02*
X183846177Y-85509589D01*
X183846177Y-85509589D02*
X183084177Y-86829411D01*
X183084177Y-86829411D02*
X183964059Y-87337411D01*
X181077089Y-92679308D02*
G75*
G03X181077089Y-92679308I-127000J0D01*
G01*
X180378589Y-91689441D02*
X180886589Y-92569323D01*
X180886589Y-92569323D02*
X182206411Y-91807323D01*
X182206411Y-91807323D02*
X181698411Y-90927441D01*
X181190411Y-90047559D02*
X180682411Y-89167677D01*
X180682411Y-89167677D02*
X179362589Y-89929677D01*
X179362589Y-89929677D02*
X179870589Y-90809559D01*
X174625000Y-93853000D02*
G75*
G03X174625000Y-93853000I-127000J0D01*
G01*
X174498000Y-92710000D02*
X174498000Y-93726000D01*
X174498000Y-93726000D02*
X176022000Y-93726000D01*
X176022000Y-93726000D02*
X176022000Y-92710000D01*
X176022000Y-91694000D02*
X176022000Y-90678000D01*
X176022000Y-90678000D02*
X174498000Y-90678000D01*
X174498000Y-90678000D02*
X174498000Y-91694000D01*
X174518346Y-86994477D02*
G75*
G03X174518346Y-86994477I-127000J0D01*
G01*
X174095516Y-88098530D02*
X174358476Y-87117149D01*
X174358476Y-87117149D02*
X172886405Y-86722709D01*
X172886405Y-86722709D02*
X172623445Y-87704090D01*
X172360484Y-88685470D02*
X172097524Y-89666851D01*
X172097524Y-89666851D02*
X173569595Y-90061291D01*
X173569595Y-90061291D02*
X173832555Y-89079910D01*
X178518846Y-72706977D02*
G75*
G03X178518846Y-72706977I-127000J0D01*
G01*
X178096016Y-73811030D02*
X178358976Y-72829649D01*
X178358976Y-72829649D02*
X176886905Y-72435209D01*
X176886905Y-72435209D02*
X176623945Y-73416590D01*
X176360984Y-74397970D02*
X176098024Y-75379351D01*
X176098024Y-75379351D02*
X177570095Y-75773791D01*
X177570095Y-75773791D02*
X177833055Y-74792410D01*
X182363749Y-75444382D02*
G75*
G03X182363749Y-75444382I-127000J0D01*
G01*
X181428526Y-76252605D02*
X182146946Y-75534185D01*
X182146946Y-75534185D02*
X181069315Y-74456554D01*
X181069315Y-74456554D02*
X180350895Y-75174974D01*
X179632474Y-75893395D02*
X178914054Y-76611815D01*
X178914054Y-76611815D02*
X179991685Y-77689446D01*
X179991685Y-77689446D02*
X180710105Y-76971026D01*
X184417963Y-79683725D02*
G75*
G03X184417963Y-79683725I-126999J0D01*
G01*
X183186910Y-79979555D02*
X184168291Y-79716595D01*
X184168291Y-79716595D02*
X183773851Y-78244524D01*
X183773851Y-78244524D02*
X182792470Y-78507484D01*
X181811090Y-78770445D02*
X180829709Y-79033405D01*
X180829709Y-79033405D02*
X181224149Y-80505476D01*
X181224149Y-80505476D02*
X182205530Y-80242516D01*
X184023523Y-84348346D02*
G75*
G03X184023523Y-84348346I-127000J0D01*
G01*
X182792470Y-84052516D02*
X183773851Y-84315476D01*
X183773851Y-84315476D02*
X184168291Y-82843405D01*
X184168291Y-82843405D02*
X183186910Y-82580445D01*
X182205530Y-82317484D02*
X181224149Y-82054524D01*
X181224149Y-82054524D02*
X180829709Y-83526595D01*
X180829709Y-83526595D02*
X181811090Y-83789555D01*
X181349618Y-88193249D02*
G75*
G03X181349618Y-88193249I-127000J0D01*
G01*
X180414395Y-87385026D02*
X181132815Y-88103446D01*
X181132815Y-88103446D02*
X182210446Y-87025815D01*
X182210446Y-87025815D02*
X181492026Y-86307395D01*
X180773605Y-85588974D02*
X180055185Y-84870554D01*
X180055185Y-84870554D02*
X178977554Y-85948185D01*
X178977554Y-85948185D02*
X179695974Y-86666605D01*
X176983274Y-90310964D02*
G75*
G03X176983274Y-90310964I-126999J0D01*
G01*
X176560445Y-89206910D02*
X176823405Y-90188291D01*
X176823405Y-90188291D02*
X178295476Y-89793851D01*
X178295476Y-89793851D02*
X178032516Y-88812470D01*
X177769555Y-87831090D02*
X177506595Y-86849709D01*
X177506595Y-86849709D02*
X176034524Y-87244149D01*
X176034524Y-87244149D02*
X176297484Y-88225530D01*
X168440589Y-91853808D02*
G75*
G03X168440589Y-91853808I-127000J0D01*
G01*
X168885089Y-90863941D02*
X168377089Y-91743823D01*
X168377089Y-91743823D02*
X169696911Y-92505823D01*
X169696911Y-92505823D02*
X170204911Y-91625941D01*
X170712911Y-90746059D02*
X171220911Y-89866177D01*
X171220911Y-89866177D02*
X169901089Y-89104177D01*
X169901089Y-89104177D02*
X169393089Y-89984059D01*
X164051192Y-86906589D02*
G75*
G03X164051192Y-86906589I-127000J0D01*
G01*
X164914059Y-86335089D02*
X164034177Y-86843089D01*
X164034177Y-86843089D02*
X164796177Y-88162911D01*
X164796177Y-88162911D02*
X165676059Y-87654911D01*
X166555941Y-87146911D02*
X167435823Y-86638911D01*
X167435823Y-86638911D02*
X166673823Y-85319089D01*
X166673823Y-85319089D02*
X165793941Y-85827089D01*
X162687000Y-80518000D02*
G75*
G03X162687000Y-80518000I-127000J0D01*
G01*
X163703000Y-80518000D02*
X162687000Y-80518000D01*
X162687000Y-80518000D02*
X162687000Y-82042000D01*
X162687000Y-82042000D02*
X163703000Y-82042000D01*
X164719000Y-82042000D02*
X165735000Y-82042000D01*
X165735000Y-82042000D02*
X165735000Y-80518000D01*
X165735000Y-80518000D02*
X164719000Y-80518000D01*
X164686192Y-74206589D02*
G75*
G03X164686192Y-74206589I-127000J0D01*
G01*
X165549059Y-74778089D02*
X164669177Y-74270089D01*
X164669177Y-74270089D02*
X163907177Y-75589911D01*
X163907177Y-75589911D02*
X164787059Y-76097911D01*
X165666941Y-76605911D02*
X166546823Y-77113911D01*
X166546823Y-77113911D02*
X167308823Y-75794089D01*
X167308823Y-75794089D02*
X166428941Y-75286089D01*
X170522411Y-71341192D02*
G75*
G03X170522411Y-71341192I-127000J0D01*
G01*
X170966911Y-72331059D02*
X170458911Y-71451177D01*
X170458911Y-71451177D02*
X169139089Y-72213177D01*
X169139089Y-72213177D02*
X169647089Y-73093059D01*
X170155089Y-73972941D02*
X170663089Y-74852823D01*
X170663089Y-74852823D02*
X171982911Y-74090823D01*
X171982911Y-74090823D02*
X171474911Y-73210941D01*
D14*
X182441463Y-71899130D02*
X182474012Y-71890409D01*
X182530389Y-71840416D01*
X182554216Y-71799146D01*
X182569323Y-71725326D01*
X182551880Y-71660228D01*
X182522523Y-71615765D01*
X182451896Y-71547474D01*
X182389990Y-71511732D01*
X182295534Y-71484713D01*
X182242350Y-71481521D01*
X182177252Y-71498964D01*
X182120874Y-71548956D01*
X182097047Y-71590226D01*
X182081941Y-71664046D01*
X182090663Y-71696596D01*
X182244457Y-72335664D02*
X182387423Y-72088040D01*
X182315940Y-72211852D02*
X181882598Y-71961662D01*
X181968332Y-71956133D01*
X182033430Y-71938690D01*
X182077894Y-71909333D01*
X187232577Y-76440067D02*
X187265126Y-76448788D01*
X187338946Y-76433682D01*
X187380216Y-76409854D01*
X187430209Y-76353478D01*
X187447652Y-76288380D01*
X187444459Y-76235195D01*
X187417440Y-76140740D01*
X187381699Y-76078834D01*
X187313407Y-76008206D01*
X187268944Y-75978850D01*
X187203846Y-75961407D01*
X187130026Y-75976512D01*
X187088756Y-76000340D01*
X187038764Y-76056717D01*
X187030042Y-76089267D01*
X186864960Y-76184577D02*
X186832411Y-76175855D01*
X186779226Y-76179047D01*
X186676050Y-76238616D01*
X186646692Y-76283080D01*
X186637972Y-76315629D01*
X186641163Y-76368813D01*
X186664991Y-76410084D01*
X186721368Y-76460076D01*
X187111957Y-76564734D01*
X186843698Y-76719613D01*
X188043396Y-82982707D02*
X188067224Y-83006535D01*
X188138707Y-83030362D01*
X188186362Y-83030362D01*
X188257845Y-83006535D01*
X188305500Y-82958880D01*
X188329328Y-82911224D01*
X188353156Y-82815914D01*
X188353156Y-82744431D01*
X188329328Y-82649120D01*
X188305500Y-82601465D01*
X188257845Y-82553810D01*
X188186362Y-82529982D01*
X188138707Y-82529982D01*
X188067224Y-82553810D01*
X188043396Y-82577638D01*
X187876603Y-82529982D02*
X187566844Y-82529982D01*
X187733637Y-82720603D01*
X187662155Y-82720603D01*
X187614499Y-82744431D01*
X187590672Y-82768259D01*
X187566844Y-82815914D01*
X187566844Y-82935052D01*
X187590672Y-82982707D01*
X187614499Y-83006535D01*
X187662155Y-83030362D01*
X187805120Y-83030362D01*
X187852776Y-83006535D01*
X187876603Y-82982707D01*
X185402870Y-89350463D02*
X185411591Y-89383012D01*
X185461584Y-89439389D01*
X185502854Y-89463216D01*
X185576674Y-89478323D01*
X185641772Y-89460880D01*
X185686235Y-89431523D01*
X185754526Y-89360896D01*
X185790268Y-89298990D01*
X185817287Y-89204534D01*
X185820479Y-89151350D01*
X185803036Y-89086252D01*
X185753044Y-89029874D01*
X185711774Y-89006047D01*
X185637954Y-88990941D01*
X185605404Y-88999663D01*
X185174399Y-88888391D02*
X185007606Y-89177285D01*
X185372886Y-88782877D02*
X185297357Y-89151976D01*
X185029097Y-88997096D01*
X180226933Y-93252576D02*
X180218212Y-93285125D01*
X180233318Y-93358945D01*
X180257146Y-93400215D01*
X180313522Y-93450208D01*
X180378620Y-93467651D01*
X180431805Y-93464458D01*
X180526260Y-93437439D01*
X180588166Y-93401698D01*
X180658794Y-93333406D01*
X180688150Y-93288943D01*
X180705593Y-93223845D01*
X180690488Y-93150025D01*
X180666660Y-93108755D01*
X180610283Y-93058763D01*
X180577733Y-93050041D01*
X180392643Y-92634143D02*
X180511781Y-92840496D01*
X180317341Y-92980270D01*
X180326062Y-92947720D01*
X180322870Y-92894536D01*
X180263301Y-92791359D01*
X180218838Y-92762002D01*
X180186289Y-92753281D01*
X180133104Y-92756473D01*
X180029928Y-92816042D01*
X180000571Y-92860505D01*
X179991849Y-92893054D01*
X179995042Y-92946239D01*
X180054611Y-93049415D01*
X180099074Y-93078772D01*
X180131623Y-93087494D01*
X173819396Y-94158707D02*
X173843224Y-94182535D01*
X173914707Y-94206362D01*
X173962362Y-94206362D01*
X174033845Y-94182535D01*
X174081500Y-94134880D01*
X174105328Y-94087224D01*
X174129156Y-93991914D01*
X174129156Y-93920431D01*
X174105328Y-93825120D01*
X174081500Y-93777465D01*
X174033845Y-93729810D01*
X173962362Y-93705982D01*
X173914707Y-93705982D01*
X173843224Y-93729810D01*
X173819396Y-93753638D01*
X173390499Y-93705982D02*
X173485810Y-93705982D01*
X173533465Y-93729810D01*
X173557293Y-93753638D01*
X173604948Y-93825120D01*
X173628776Y-93920431D01*
X173628776Y-94111052D01*
X173604948Y-94158707D01*
X173581120Y-94182535D01*
X173533465Y-94206362D01*
X173438155Y-94206362D01*
X173390499Y-94182535D01*
X173366672Y-94158707D01*
X173342844Y-94111052D01*
X173342844Y-93991914D01*
X173366672Y-93944259D01*
X173390499Y-93920431D01*
X173438155Y-93896603D01*
X173533465Y-93896603D01*
X173581120Y-93920431D01*
X173604948Y-93944259D01*
X173628776Y-93991914D01*
X174184202Y-86135198D02*
X174213385Y-86118349D01*
X174254902Y-86055469D01*
X174267236Y-86009438D01*
X174262722Y-85934224D01*
X174229025Y-85875859D01*
X174189160Y-85840508D01*
X174103264Y-85792824D01*
X174034217Y-85774323D01*
X173935987Y-85772671D01*
X173883788Y-85783353D01*
X173825423Y-85817050D01*
X173783906Y-85879930D01*
X173771572Y-85925961D01*
X173776087Y-86001176D01*
X173792936Y-86030359D01*
X173703734Y-86179134D02*
X173617396Y-86501355D01*
X174156229Y-86423721D01*
X176008233Y-73511032D02*
X175821246Y-73288251D01*
X176082238Y-73234843D02*
X175598908Y-73105335D01*
X175549572Y-73289461D01*
X175560254Y-73341660D01*
X175577103Y-73370843D01*
X175616967Y-73406193D01*
X175686014Y-73424694D01*
X175738212Y-73414012D01*
X175767396Y-73397163D01*
X175802745Y-73357299D01*
X175852081Y-73173173D01*
X175884893Y-73971346D02*
X175958897Y-73695157D01*
X175921895Y-73833252D02*
X175438565Y-73703744D01*
X175519946Y-73676214D01*
X175578312Y-73642517D01*
X175613662Y-73602652D01*
X179797032Y-75094592D02*
X179746487Y-74808164D01*
X179999216Y-74892408D02*
X179645394Y-74538586D01*
X179510605Y-74673375D01*
X179493757Y-74723921D01*
X179493757Y-74757619D01*
X179510605Y-74808165D01*
X179561151Y-74858711D01*
X179611697Y-74875560D01*
X179645395Y-74875560D01*
X179695940Y-74858711D01*
X179830730Y-74723921D01*
X179342119Y-74909257D02*
X179308421Y-74909257D01*
X179257875Y-74926105D01*
X179173632Y-75010348D01*
X179156783Y-75060895D01*
X179156784Y-75094592D01*
X179173632Y-75145138D01*
X179207329Y-75178836D01*
X179274724Y-75212533D01*
X179679092Y-75212533D01*
X179460059Y-75431565D01*
X182193641Y-78238564D02*
X182293081Y-77965238D01*
X182469830Y-78164560D02*
X182340322Y-77681230D01*
X182156197Y-77730566D01*
X182116333Y-77765916D01*
X182099484Y-77795099D01*
X182088802Y-77847298D01*
X182107303Y-77916345D01*
X182142653Y-77956209D01*
X182171836Y-77973058D01*
X182224034Y-77983739D01*
X182408160Y-77934403D01*
X181903024Y-77798404D02*
X181603819Y-77878575D01*
X181814265Y-78019532D01*
X181745219Y-78038033D01*
X181705354Y-78073383D01*
X181688506Y-78102566D01*
X181677824Y-78154764D01*
X181708659Y-78269843D01*
X181744009Y-78309707D01*
X181773192Y-78326556D01*
X181825391Y-78337237D01*
X181963484Y-78300235D01*
X182003349Y-78264885D01*
X182020197Y-78235702D01*
X182901968Y-81901233D02*
X183124749Y-81714246D01*
X183178157Y-81975238D02*
X183307665Y-81491908D01*
X183123539Y-81442572D01*
X183071340Y-81453254D01*
X183042157Y-81470103D01*
X183006807Y-81509967D01*
X182988306Y-81579014D01*
X182998988Y-81631212D01*
X183015837Y-81660396D01*
X183055701Y-81695745D01*
X183239827Y-81745081D01*
X182574023Y-81468007D02*
X182487685Y-81790227D01*
X182738438Y-81314717D02*
X182761012Y-81690788D01*
X182461807Y-81610616D01*
X181381907Y-85690032D02*
X181668335Y-85639487D01*
X181584091Y-85892216D02*
X181937913Y-85538394D01*
X181803124Y-85403605D01*
X181752578Y-85386757D01*
X181718880Y-85386757D01*
X181668334Y-85403605D01*
X181617788Y-85454151D01*
X181600939Y-85504697D01*
X181600939Y-85538395D01*
X181617788Y-85588940D01*
X181752578Y-85723730D01*
X181415605Y-85016086D02*
X181584091Y-85184572D01*
X181432453Y-85369908D01*
X181432453Y-85336211D01*
X181415605Y-85285664D01*
X181331361Y-85201421D01*
X181280815Y-85184572D01*
X181247117Y-85184573D01*
X181196571Y-85201421D01*
X181112328Y-85285664D01*
X181095480Y-85336211D01*
X181095479Y-85369908D01*
X181112329Y-85420454D01*
X181196572Y-85504697D01*
X181247117Y-85521546D01*
X181280815Y-85521546D01*
X178301436Y-88213641D02*
X178574762Y-88313081D01*
X178375440Y-88489830D02*
X178858770Y-88360322D01*
X178809434Y-88176197D01*
X178774084Y-88136333D01*
X178744901Y-88119484D01*
X178692702Y-88108802D01*
X178623655Y-88127303D01*
X178583791Y-88162653D01*
X178566942Y-88191836D01*
X178556261Y-88244034D01*
X178605597Y-88428160D01*
X178673759Y-87669851D02*
X178698427Y-87761914D01*
X178687745Y-87814112D01*
X178670896Y-87843295D01*
X178614184Y-87907828D01*
X178528288Y-87955512D01*
X178344162Y-88004848D01*
X178291964Y-87994166D01*
X178262780Y-87977317D01*
X178227431Y-87937453D01*
X178202763Y-87845391D01*
X178213444Y-87793192D01*
X178230293Y-87764009D01*
X178270157Y-87728659D01*
X178385236Y-87697824D01*
X178437434Y-87708506D01*
X178466617Y-87725354D01*
X178501967Y-87765219D01*
X178526635Y-87857281D01*
X178515953Y-87909480D01*
X178499104Y-87938663D01*
X178459240Y-87974013D01*
X171306733Y-88813958D02*
X171183777Y-88550372D01*
X171449699Y-88566334D02*
X171016357Y-88316144D01*
X170921047Y-88481226D01*
X170917855Y-88534411D01*
X170926577Y-88566960D01*
X170955933Y-88611423D01*
X171017839Y-88647165D01*
X171071024Y-88650357D01*
X171103573Y-88641635D01*
X171148036Y-88612278D01*
X171243346Y-88447196D01*
X170789995Y-88708215D02*
X170623201Y-88997110D01*
X171163768Y-89061581D01*
X167952404Y-85625337D02*
X167977714Y-85335587D01*
X168200028Y-85482371D02*
X167949838Y-85049029D01*
X167784756Y-85144340D01*
X167755399Y-85188803D01*
X167746678Y-85221353D01*
X167749870Y-85274537D01*
X167785611Y-85336443D01*
X167830074Y-85365800D01*
X167862624Y-85374521D01*
X167915808Y-85371329D01*
X168080890Y-85276018D01*
X167561815Y-85520679D02*
X167591171Y-85476216D01*
X167599894Y-85443667D01*
X167596701Y-85390482D01*
X167584788Y-85369847D01*
X167540325Y-85340491D01*
X167507775Y-85331769D01*
X167454591Y-85334961D01*
X167372050Y-85382616D01*
X167342692Y-85427080D01*
X167333972Y-85459629D01*
X167337163Y-85512813D01*
X167349077Y-85533448D01*
X167393541Y-85562805D01*
X167426089Y-85571527D01*
X167479274Y-85568334D01*
X167561815Y-85520679D01*
X167614999Y-85517487D01*
X167647549Y-85526208D01*
X167692012Y-85555565D01*
X167739667Y-85638106D01*
X167742859Y-85691291D01*
X167734137Y-85723840D01*
X167704781Y-85768303D01*
X167622240Y-85815958D01*
X167569055Y-85819151D01*
X167536506Y-85810429D01*
X167492043Y-85781072D01*
X167444387Y-85698531D01*
X167441196Y-85645346D01*
X167449917Y-85612798D01*
X167479274Y-85568334D01*
X166834396Y-81506362D02*
X167001190Y-81268086D01*
X167120328Y-81506362D02*
X167120328Y-81005982D01*
X166929707Y-81005982D01*
X166882052Y-81029810D01*
X166858224Y-81053638D01*
X166834396Y-81101293D01*
X166834396Y-81172776D01*
X166858224Y-81220431D01*
X166882052Y-81244259D01*
X166929707Y-81268086D01*
X167120328Y-81268086D01*
X166596120Y-81506362D02*
X166500810Y-81506362D01*
X166453155Y-81482535D01*
X166429327Y-81458707D01*
X166381672Y-81387224D01*
X166357844Y-81291914D01*
X166357844Y-81101293D01*
X166381672Y-81053638D01*
X166405499Y-81029810D01*
X166453155Y-81005982D01*
X166548465Y-81005982D01*
X166596120Y-81029810D01*
X166619948Y-81053638D01*
X166643776Y-81101293D01*
X166643776Y-81220431D01*
X166619948Y-81268086D01*
X166596120Y-81291914D01*
X166548465Y-81315741D01*
X166453155Y-81315741D01*
X166405499Y-81291914D01*
X166381672Y-81268086D01*
X166357844Y-81220431D01*
X168059395Y-77318871D02*
X168322981Y-77195915D01*
X168307019Y-77461837D02*
X168557209Y-77028495D01*
X168392127Y-76933185D01*
X168338942Y-76929993D01*
X168306393Y-76938715D01*
X168261930Y-76968071D01*
X168226188Y-77029977D01*
X168222996Y-77083162D01*
X168231718Y-77115711D01*
X168261075Y-77160174D01*
X168426157Y-77255484D01*
X167646689Y-77080595D02*
X167894313Y-77223561D01*
X167770501Y-77152078D02*
X168020691Y-76718736D01*
X168026220Y-76804470D01*
X168043663Y-76869568D01*
X168073020Y-76914032D01*
X167628620Y-76492374D02*
X167587349Y-76468546D01*
X167534165Y-76465355D01*
X167501615Y-76474076D01*
X167457153Y-76503433D01*
X167388862Y-76574060D01*
X167329293Y-76677237D01*
X167302274Y-76771692D01*
X167299081Y-76824876D01*
X167307802Y-76857426D01*
X167337159Y-76901888D01*
X167378430Y-76925716D01*
X167431615Y-76928909D01*
X167464163Y-76920187D01*
X167508627Y-76890830D01*
X167576918Y-76820203D01*
X167636487Y-76717026D01*
X167663506Y-76622571D01*
X167666698Y-76569387D01*
X167657977Y-76536838D01*
X167628620Y-76492374D01*
X171986301Y-75766257D02*
X172276051Y-75791567D01*
X172129267Y-76013881D02*
X172562609Y-75763691D01*
X172467298Y-75598609D01*
X172422835Y-75569252D01*
X172390285Y-75560531D01*
X172337101Y-75563723D01*
X172275195Y-75599464D01*
X172245838Y-75643927D01*
X172237117Y-75676477D01*
X172240309Y-75729661D01*
X172335620Y-75894743D01*
X171748025Y-75353551D02*
X171890991Y-75601175D01*
X171819508Y-75477363D02*
X172252850Y-75227173D01*
X172214771Y-75304185D01*
X172197328Y-75369283D01*
X172200520Y-75422468D01*
X171509749Y-74940845D02*
X171652715Y-75188469D01*
X171581232Y-75064657D02*
X172014574Y-74814467D01*
X171976495Y-74891479D01*
X171959052Y-74956577D01*
X171962244Y-75009762D01*
%LPC*%
D10*
G36*
X180306581Y-71275413D02*
X181516419Y-71973913D01*
X181071919Y-72743809D01*
X179862081Y-72045309D01*
X180306581Y-71275413D01*
X180306581Y-71275413D01*
G37*
G36*
X179354081Y-72925191D02*
X180563919Y-73623691D01*
X180119419Y-74393587D01*
X178909581Y-73695087D01*
X179354081Y-72925191D01*
X179354081Y-72925191D01*
G37*
G36*
X185772587Y-74515581D02*
X186471087Y-75725419D01*
X185701191Y-76169919D01*
X185002691Y-74960081D01*
X185772587Y-74515581D01*
X185772587Y-74515581D01*
G37*
G36*
X184122809Y-75468081D02*
X184821309Y-76677919D01*
X184051413Y-77122419D01*
X183352913Y-75912581D01*
X184122809Y-75468081D01*
X184122809Y-75468081D01*
G37*
D15*
X187261500Y-81280000D03*
X185356500Y-81280000D03*
D10*
G36*
X186344087Y-87025081D02*
X185645587Y-88234919D01*
X184875691Y-87790419D01*
X185574191Y-86580581D01*
X186344087Y-87025081D01*
X186344087Y-87025081D01*
G37*
G36*
X184694309Y-86072581D02*
X183995809Y-87282419D01*
X183225913Y-86837919D01*
X183924413Y-85628081D01*
X184694309Y-86072581D01*
X184694309Y-86072581D01*
G37*
G36*
X182087919Y-91729087D02*
X180878081Y-92427587D01*
X180433581Y-91657691D01*
X181643419Y-90959191D01*
X182087919Y-91729087D01*
X182087919Y-91729087D01*
G37*
G36*
X181135419Y-90079309D02*
X179925581Y-90777809D01*
X179481081Y-90007913D01*
X180690919Y-89309413D01*
X181135419Y-90079309D01*
X181135419Y-90079309D01*
G37*
D16*
X175260000Y-93154500D03*
X175260000Y-91249500D03*
D10*
G36*
X172914871Y-86861817D02*
X174264269Y-87223387D01*
X174034179Y-88082095D01*
X172684781Y-87720525D01*
X172914871Y-86861817D01*
X172914871Y-86861817D01*
G37*
G36*
X172421821Y-88701905D02*
X173771219Y-89063475D01*
X173541129Y-89922183D01*
X172191731Y-89560613D01*
X172421821Y-88701905D01*
X172421821Y-88701905D01*
G37*
G36*
X176915371Y-72574317D02*
X178264769Y-72935887D01*
X178034679Y-73794595D01*
X176685281Y-73433025D01*
X176915371Y-72574317D01*
X176915371Y-72574317D01*
G37*
G36*
X176422321Y-74414405D02*
X177771719Y-74775975D01*
X177541629Y-75634683D01*
X176192231Y-75273113D01*
X176422321Y-74414405D01*
X176422321Y-74414405D01*
G37*
G36*
X181024414Y-74591258D02*
X182012242Y-75579086D01*
X181383624Y-76207704D01*
X180395796Y-75219876D01*
X181024414Y-74591258D01*
X181024414Y-74591258D01*
G37*
G36*
X179677376Y-75938296D02*
X180665204Y-76926124D01*
X180036586Y-77554742D01*
X179048758Y-76566914D01*
X179677376Y-75938296D01*
X179677376Y-75938296D01*
G37*
G36*
X183667613Y-78338731D02*
X184029183Y-79688129D01*
X183170475Y-79918219D01*
X182808905Y-78568821D01*
X183667613Y-78338731D01*
X183667613Y-78338731D01*
G37*
G36*
X181827525Y-78831781D02*
X182189095Y-80181179D01*
X181330387Y-80411269D01*
X180968817Y-79061871D01*
X181827525Y-78831781D01*
X181827525Y-78831781D01*
G37*
G36*
X184029183Y-82871871D02*
X183667613Y-84221269D01*
X182808905Y-83991179D01*
X183170475Y-82641781D01*
X184029183Y-82871871D01*
X184029183Y-82871871D01*
G37*
G36*
X182189095Y-82378821D02*
X181827525Y-83728219D01*
X180968817Y-83498129D01*
X181330387Y-82148731D01*
X182189095Y-82378821D01*
X182189095Y-82378821D01*
G37*
G36*
X182075742Y-86980914D02*
X181087914Y-87968742D01*
X180459296Y-87340124D01*
X181447124Y-86352296D01*
X182075742Y-86980914D01*
X182075742Y-86980914D01*
G37*
G36*
X180728704Y-85633876D02*
X179740876Y-86621704D01*
X179112258Y-85993086D01*
X180100086Y-85005258D01*
X180728704Y-85633876D01*
X180728704Y-85633876D01*
G37*
G36*
X178201269Y-89687613D02*
X176851871Y-90049183D01*
X176621781Y-89190475D01*
X177971179Y-88828905D01*
X178201269Y-89687613D01*
X178201269Y-89687613D01*
G37*
G36*
X177708219Y-87847525D02*
X176358821Y-88209095D01*
X176128731Y-87350387D01*
X177478129Y-86988817D01*
X177708219Y-87847525D01*
X177708219Y-87847525D01*
G37*
G36*
X169705419Y-92364087D02*
X168495581Y-91665587D01*
X168940081Y-90895691D01*
X170149919Y-91594191D01*
X169705419Y-92364087D01*
X169705419Y-92364087D01*
G37*
G36*
X170657919Y-90714309D02*
X169448081Y-90015809D01*
X169892581Y-89245913D01*
X171102419Y-89944413D01*
X170657919Y-90714309D01*
X170657919Y-90714309D01*
G37*
G36*
X164874413Y-88044419D02*
X164175913Y-86834581D01*
X164945809Y-86390081D01*
X165644309Y-87599919D01*
X164874413Y-88044419D01*
X164874413Y-88044419D01*
G37*
G36*
X166524191Y-87091919D02*
X165825691Y-85882081D01*
X166595587Y-85437581D01*
X167294087Y-86647419D01*
X166524191Y-87091919D01*
X166524191Y-87091919D01*
G37*
D15*
X163258500Y-81280000D03*
X165163500Y-81280000D03*
D10*
G36*
X164048913Y-75598419D02*
X164747413Y-74388581D01*
X165517309Y-74833081D01*
X164818809Y-76042919D01*
X164048913Y-75598419D01*
X164048913Y-75598419D01*
G37*
G36*
X165698691Y-76550919D02*
X166397191Y-75341081D01*
X167167087Y-75785581D01*
X166468587Y-76995419D01*
X165698691Y-76550919D01*
X165698691Y-76550919D01*
G37*
G36*
X169257581Y-72291413D02*
X170467419Y-71592913D01*
X170911919Y-72362809D01*
X169702081Y-73061309D01*
X169257581Y-72291413D01*
X169257581Y-72291413D01*
G37*
G36*
X170210081Y-73941191D02*
X171419919Y-73242691D01*
X171864419Y-74012587D01*
X170654581Y-74711087D01*
X170210081Y-73941191D01*
X170210081Y-73941191D01*
G37*
D17*
X168402000Y-70104000D03*
X175260000Y-68072000D03*
X181737000Y-70104000D03*
D18*
X178132891Y-92001776D03*
X172387109Y-92001776D03*
X167411115Y-89128885D03*
X164538224Y-84152891D03*
X164538224Y-78407109D03*
X167411115Y-73431115D03*
X172387109Y-70558224D03*
X178132891Y-70558224D03*
X183108885Y-73431115D03*
X185981776Y-78407109D03*
X185981776Y-84152891D03*
X183108885Y-89128885D03*
X172550000Y-83980000D03*
X177972720Y-78567280D03*
M02*
