G04 #@! TF.FileFunction,Legend,Top*
%FSLAX46Y46*%
G04 Gerber Fmt 4.6, Leading zero omitted, Abs format (unit mm)*
G04 Created by KiCad (PCBNEW (2014-12-07 BZR 5316)-product) date 01/01/2015 14:06:39*
%MOMM*%
G01*
G04 APERTURE LIST*
%ADD10C,0.100000*%
%ADD11C,0.150000*%
%ADD12C,0.200000*%
%ADD13C,2.000000*%
%ADD14C,2.500000*%
G04 APERTURE END LIST*
D10*
D11*
X166410577Y-70282577D02*
X167969423Y-69382577D01*
X167969423Y-69382577D02*
X168869423Y-70941423D01*
X168869423Y-70941423D02*
X167310577Y-71841423D01*
X167310577Y-71841423D02*
X166410577Y-70282577D01*
X174360000Y-67172000D02*
X176160000Y-67172000D01*
X176160000Y-67172000D02*
X176160000Y-68972000D01*
X176160000Y-68972000D02*
X174360000Y-68972000D01*
X174360000Y-68972000D02*
X174360000Y-67172000D01*
X182550577Y-69382577D02*
X184109423Y-70282577D01*
X184109423Y-70282577D02*
X183209423Y-71841423D01*
X183209423Y-71841423D02*
X181650577Y-70941423D01*
X181650577Y-70941423D02*
X182550577Y-69382577D01*
X181634080Y-81280000D02*
G75*
G03X181634080Y-81280000I-6374080J0D01*
G01*
X188723818Y-81280000D02*
G75*
G03X188723818Y-81280000I-13463818J0D01*
G01*
D12*
X172466000Y-79864857D02*
X172683714Y-79937429D01*
X173046571Y-79937429D01*
X173191714Y-79864857D01*
X173264285Y-79792286D01*
X173336857Y-79647143D01*
X173336857Y-79502000D01*
X173264285Y-79356857D01*
X173191714Y-79284286D01*
X173046571Y-79211714D01*
X172756285Y-79139143D01*
X172611143Y-79066571D01*
X172538571Y-78994000D01*
X172466000Y-78848857D01*
X172466000Y-78703714D01*
X172538571Y-78558571D01*
X172611143Y-78486000D01*
X172756285Y-78413429D01*
X173119143Y-78413429D01*
X173336857Y-78486000D01*
X173844857Y-78413429D02*
X174207714Y-79937429D01*
X174498000Y-78848857D01*
X174788286Y-79937429D01*
X175151143Y-78413429D01*
X176530000Y-79937429D02*
X175659143Y-79937429D01*
X176094571Y-79937429D02*
X176094571Y-78413429D01*
X175949428Y-78631143D01*
X175804286Y-78776286D01*
X175659143Y-78848857D01*
%LPC*%
D13*
X167640000Y-70612000D03*
X175260000Y-68072000D03*
X182880000Y-70612000D03*
D14*
X178132891Y-92001776D03*
X172387109Y-92001776D03*
X167411115Y-89128885D03*
X164538224Y-84152891D03*
X164538224Y-78407109D03*
X167411115Y-73431115D03*
X172387109Y-70558224D03*
X178132891Y-70558224D03*
X183108885Y-73431115D03*
X185981776Y-78407109D03*
X185981776Y-84152891D03*
X183108885Y-89128885D03*
X172550000Y-83980000D03*
X177972720Y-78567280D03*
M02*
