%FSLAX46Y46*%
G04 Gerber Fmt 4.6, Leading zero omitted, Abs format (unit mm)*
G04 Created by KiCad (PCBNEW (2014-10-18 BZR 5203)-product) date 03/11/2014 16:13:10*
%MOMM*%
G01*
G04 APERTURE LIST*
%ADD10C,0.100000*%
%ADD11R,0.889000X1.397000*%
%ADD12R,1.397000X0.889000*%
%ADD13C,2.000000*%
%ADD14C,2.500000*%
G04 APERTURE END LIST*
D10*
G36*
X180306581Y-71275413D02*
X181516419Y-71973913D01*
X181071919Y-72743809D01*
X179862081Y-72045309D01*
X180306581Y-71275413D01*
X180306581Y-71275413D01*
G37*
G36*
X179354081Y-72925191D02*
X180563919Y-73623691D01*
X180119419Y-74393587D01*
X178909581Y-73695087D01*
X179354081Y-72925191D01*
X179354081Y-72925191D01*
G37*
G36*
X185772587Y-74515581D02*
X186471087Y-75725419D01*
X185701191Y-76169919D01*
X185002691Y-74960081D01*
X185772587Y-74515581D01*
X185772587Y-74515581D01*
G37*
G36*
X184122809Y-75468081D02*
X184821309Y-76677919D01*
X184051413Y-77122419D01*
X183352913Y-75912581D01*
X184122809Y-75468081D01*
X184122809Y-75468081D01*
G37*
D11*
X187261500Y-81280000D03*
X185356500Y-81280000D03*
D10*
G36*
X186344087Y-87025081D02*
X185645587Y-88234919D01*
X184875691Y-87790419D01*
X185574191Y-86580581D01*
X186344087Y-87025081D01*
X186344087Y-87025081D01*
G37*
G36*
X184694309Y-86072581D02*
X183995809Y-87282419D01*
X183225913Y-86837919D01*
X183924413Y-85628081D01*
X184694309Y-86072581D01*
X184694309Y-86072581D01*
G37*
G36*
X182087919Y-91729087D02*
X180878081Y-92427587D01*
X180433581Y-91657691D01*
X181643419Y-90959191D01*
X182087919Y-91729087D01*
X182087919Y-91729087D01*
G37*
G36*
X181135419Y-90079309D02*
X179925581Y-90777809D01*
X179481081Y-90007913D01*
X180690919Y-89309413D01*
X181135419Y-90079309D01*
X181135419Y-90079309D01*
G37*
D12*
X175260000Y-93154500D03*
X175260000Y-91249500D03*
D10*
G36*
X172914871Y-86861817D02*
X174264269Y-87223387D01*
X174034179Y-88082095D01*
X172684781Y-87720525D01*
X172914871Y-86861817D01*
X172914871Y-86861817D01*
G37*
G36*
X172421821Y-88701905D02*
X173771219Y-89063475D01*
X173541129Y-89922183D01*
X172191731Y-89560613D01*
X172421821Y-88701905D01*
X172421821Y-88701905D01*
G37*
G36*
X176915371Y-72574317D02*
X178264769Y-72935887D01*
X178034679Y-73794595D01*
X176685281Y-73433025D01*
X176915371Y-72574317D01*
X176915371Y-72574317D01*
G37*
G36*
X176422321Y-74414405D02*
X177771719Y-74775975D01*
X177541629Y-75634683D01*
X176192231Y-75273113D01*
X176422321Y-74414405D01*
X176422321Y-74414405D01*
G37*
G36*
X181024414Y-74591258D02*
X182012242Y-75579086D01*
X181383624Y-76207704D01*
X180395796Y-75219876D01*
X181024414Y-74591258D01*
X181024414Y-74591258D01*
G37*
G36*
X179677376Y-75938296D02*
X180665204Y-76926124D01*
X180036586Y-77554742D01*
X179048758Y-76566914D01*
X179677376Y-75938296D01*
X179677376Y-75938296D01*
G37*
G36*
X183667613Y-78338731D02*
X184029183Y-79688129D01*
X183170475Y-79918219D01*
X182808905Y-78568821D01*
X183667613Y-78338731D01*
X183667613Y-78338731D01*
G37*
G36*
X181827525Y-78831781D02*
X182189095Y-80181179D01*
X181330387Y-80411269D01*
X180968817Y-79061871D01*
X181827525Y-78831781D01*
X181827525Y-78831781D01*
G37*
G36*
X184029183Y-82871871D02*
X183667613Y-84221269D01*
X182808905Y-83991179D01*
X183170475Y-82641781D01*
X184029183Y-82871871D01*
X184029183Y-82871871D01*
G37*
G36*
X182189095Y-82378821D02*
X181827525Y-83728219D01*
X180968817Y-83498129D01*
X181330387Y-82148731D01*
X182189095Y-82378821D01*
X182189095Y-82378821D01*
G37*
G36*
X182075742Y-86980914D02*
X181087914Y-87968742D01*
X180459296Y-87340124D01*
X181447124Y-86352296D01*
X182075742Y-86980914D01*
X182075742Y-86980914D01*
G37*
G36*
X180728704Y-85633876D02*
X179740876Y-86621704D01*
X179112258Y-85993086D01*
X180100086Y-85005258D01*
X180728704Y-85633876D01*
X180728704Y-85633876D01*
G37*
G36*
X178201269Y-89687613D02*
X176851871Y-90049183D01*
X176621781Y-89190475D01*
X177971179Y-88828905D01*
X178201269Y-89687613D01*
X178201269Y-89687613D01*
G37*
G36*
X177708219Y-87847525D02*
X176358821Y-88209095D01*
X176128731Y-87350387D01*
X177478129Y-86988817D01*
X177708219Y-87847525D01*
X177708219Y-87847525D01*
G37*
G36*
X169705419Y-92364087D02*
X168495581Y-91665587D01*
X168940081Y-90895691D01*
X170149919Y-91594191D01*
X169705419Y-92364087D01*
X169705419Y-92364087D01*
G37*
G36*
X170657919Y-90714309D02*
X169448081Y-90015809D01*
X169892581Y-89245913D01*
X171102419Y-89944413D01*
X170657919Y-90714309D01*
X170657919Y-90714309D01*
G37*
G36*
X164874413Y-88044419D02*
X164175913Y-86834581D01*
X164945809Y-86390081D01*
X165644309Y-87599919D01*
X164874413Y-88044419D01*
X164874413Y-88044419D01*
G37*
G36*
X166524191Y-87091919D02*
X165825691Y-85882081D01*
X166595587Y-85437581D01*
X167294087Y-86647419D01*
X166524191Y-87091919D01*
X166524191Y-87091919D01*
G37*
D11*
X163258500Y-81280000D03*
X165163500Y-81280000D03*
D10*
G36*
X164048913Y-75598419D02*
X164747413Y-74388581D01*
X165517309Y-74833081D01*
X164818809Y-76042919D01*
X164048913Y-75598419D01*
X164048913Y-75598419D01*
G37*
G36*
X165698691Y-76550919D02*
X166397191Y-75341081D01*
X167167087Y-75785581D01*
X166468587Y-76995419D01*
X165698691Y-76550919D01*
X165698691Y-76550919D01*
G37*
G36*
X169257581Y-72291413D02*
X170467419Y-71592913D01*
X170911919Y-72362809D01*
X169702081Y-73061309D01*
X169257581Y-72291413D01*
X169257581Y-72291413D01*
G37*
G36*
X170210081Y-73941191D02*
X171419919Y-73242691D01*
X171864419Y-74012587D01*
X170654581Y-74711087D01*
X170210081Y-73941191D01*
X170210081Y-73941191D01*
G37*
D13*
X168402000Y-70104000D03*
X175260000Y-68072000D03*
X181737000Y-70104000D03*
D14*
X178132891Y-92001776D03*
X172387109Y-92001776D03*
X167411115Y-89128885D03*
X164538224Y-84152891D03*
X164538224Y-78407109D03*
X167411115Y-73431115D03*
X172387109Y-70558224D03*
X178132891Y-70558224D03*
X183108885Y-73431115D03*
X185981776Y-78407109D03*
X185981776Y-84152891D03*
X183108885Y-89128885D03*
X172550000Y-83980000D03*
X177972720Y-78567280D03*
M02*
