G04 #@! TF.FileFunction,Legend,Bot*
%FSLAX46Y46*%
G04 Gerber Fmt 4.6, Leading zero omitted, Abs format (unit mm)*
G04 Created by KiCad (PCBNEW (2014-10-31 BZR 5247)-product) date lun. 03 nov. 2014 19:37:52 CET*
%MOMM*%
G01*
G04 APERTURE LIST*
%ADD10C,0.100000*%
%ADD11C,0.190500*%
%ADD12C,0.222250*%
%ADD13C,0.171450*%
%ADD14C,0.099060*%
%ADD15C,0.109220*%
%ADD16R,0.889000X1.397000*%
%ADD17R,1.397000X0.889000*%
%ADD18C,2.000000*%
%ADD19C,2.500000*%
G04 APERTURE END LIST*
D10*
D11*
X177628262Y-84582130D02*
X177525630Y-84479499D01*
X177448656Y-84453841D01*
X177346025Y-84453841D01*
X177217736Y-84530814D01*
X177038130Y-84710419D01*
X176961157Y-84838709D01*
X176961156Y-84941341D01*
X176986815Y-85018314D01*
X177089447Y-85120946D01*
X177166419Y-85146604D01*
X177269051Y-85146603D01*
X177397341Y-85069630D01*
X177576946Y-84890025D01*
X177653919Y-84761735D01*
X177653919Y-84659104D01*
X177628262Y-84582130D01*
X176986814Y-84299893D02*
X176447999Y-84838708D01*
X176961156Y-84325551D02*
X176935499Y-84248578D01*
X176832867Y-84145946D01*
X176755894Y-84120289D01*
X176704578Y-84120289D01*
X176627604Y-84145946D01*
X176473657Y-84299893D01*
X176447999Y-84376867D01*
X176447999Y-84428183D01*
X176473657Y-84505156D01*
X176576289Y-84607788D01*
X176653261Y-84633446D01*
X175960499Y-83940684D02*
X175986157Y-84017656D01*
X176088789Y-84120288D01*
X176165762Y-84145946D01*
X176242736Y-84120288D01*
X176447999Y-83915025D01*
X176473656Y-83838051D01*
X176447999Y-83761078D01*
X176345367Y-83658446D01*
X176268394Y-83632789D01*
X176191420Y-83658446D01*
X176140104Y-83709762D01*
X176345367Y-84017656D01*
X176037473Y-83350551D02*
X175678262Y-83709762D01*
X175986156Y-83401867D02*
X175986157Y-83350552D01*
X175960499Y-83273578D01*
X175883526Y-83196604D01*
X175806552Y-83170947D01*
X175729578Y-83196604D01*
X175447342Y-83478841D01*
X174780237Y-82811736D02*
X175319052Y-82272921D01*
X175062473Y-82529499D02*
X174754579Y-82221605D01*
X174472343Y-82503842D02*
X175011158Y-81965026D01*
X173984843Y-82016342D02*
X174267079Y-81734105D01*
X174344053Y-81708448D01*
X174421026Y-81734105D01*
X174523658Y-81836737D01*
X174549315Y-81913710D01*
X174010500Y-81990685D02*
X174036158Y-82067657D01*
X174164448Y-82195947D01*
X174241421Y-82221605D01*
X174318395Y-82195947D01*
X174369710Y-82144632D01*
X174395368Y-82067657D01*
X174369710Y-81990685D01*
X174241421Y-81862395D01*
X174215763Y-81785421D01*
X173728263Y-81759763D02*
X174087474Y-81400552D01*
X173984842Y-81503184D02*
X174010500Y-81426211D01*
X174010500Y-81374895D01*
X173984843Y-81297921D01*
X173933527Y-81246605D01*
X173163791Y-81195290D02*
X173702606Y-80656474D01*
X173189448Y-81169632D02*
X173215106Y-81246605D01*
X173317738Y-81349237D01*
X173394711Y-81374896D01*
X173446027Y-81374895D01*
X173523001Y-81349237D01*
X173676948Y-81195290D01*
X173702605Y-81118316D01*
X173702606Y-81067001D01*
X173676948Y-80990027D01*
X173574316Y-80887395D01*
X173497343Y-80861738D01*
X173317738Y-80630816D02*
X172855896Y-80887395D01*
X173009843Y-80528185D01*
X172650633Y-80682132D01*
X172907211Y-80220290D01*
X172111817Y-80143316D02*
X172394054Y-79861080D01*
X172471028Y-79835422D01*
X172548001Y-79861080D01*
X172650633Y-79963711D01*
X172676290Y-80040685D01*
X172137475Y-80117659D02*
X172163133Y-80194632D01*
X172291422Y-80322922D01*
X172368395Y-80348580D01*
X172445369Y-80322922D01*
X172496685Y-80271606D01*
X172522343Y-80194632D01*
X172496685Y-80117659D01*
X172368395Y-79989369D01*
X172342738Y-79912396D01*
X171855238Y-79886737D02*
X172214448Y-79527527D01*
X172111817Y-79630158D02*
X172137475Y-79553186D01*
X172137475Y-79501870D01*
X172111817Y-79424896D01*
X172060501Y-79373580D01*
X171342081Y-79322265D02*
X171367739Y-79399238D01*
X171470370Y-79501870D01*
X171547343Y-79527528D01*
X171624317Y-79501870D01*
X171829581Y-79296606D01*
X171855238Y-79219633D01*
X171829581Y-79142659D01*
X171726949Y-79040028D01*
X171649975Y-79014370D01*
X171573002Y-79040028D01*
X171521686Y-79091344D01*
X171726949Y-79399238D01*
X179147104Y-83114603D02*
X179506314Y-82755393D01*
X179454998Y-82806709D02*
X179454999Y-82755394D01*
X179429341Y-82678419D01*
X179352367Y-82601446D01*
X179275394Y-82575789D01*
X179198420Y-82601446D01*
X178916183Y-82883683D01*
X179198420Y-82601446D02*
X179224078Y-82524472D01*
X179198420Y-82447499D01*
X179121447Y-82370525D01*
X179044472Y-82344867D01*
X178967500Y-82370525D01*
X178685263Y-82652762D01*
X178249078Y-82165263D02*
X178274736Y-82242236D01*
X178377368Y-82344867D01*
X178454341Y-82370525D01*
X178531315Y-82344867D01*
X178736578Y-82139604D01*
X178762236Y-82062631D01*
X178736578Y-81985657D01*
X178633947Y-81883025D01*
X178556973Y-81857368D01*
X178480000Y-81883025D01*
X178428684Y-81934342D01*
X178633947Y-82242236D01*
X178095131Y-81344210D02*
X177658948Y-81780394D01*
X177633290Y-81857368D01*
X177633289Y-81908684D01*
X177658948Y-81985657D01*
X177735921Y-82062631D01*
X177812894Y-82088289D01*
X177761578Y-81677763D02*
X177787237Y-81754736D01*
X177889868Y-81857367D01*
X177966842Y-81883026D01*
X178018157Y-81883025D01*
X178095131Y-81857367D01*
X178249078Y-81703420D01*
X178274736Y-81626447D01*
X178274736Y-81575131D01*
X178249078Y-81498157D01*
X178146447Y-81395526D01*
X178069473Y-81369868D01*
X177248421Y-81215920D02*
X177530658Y-80933684D01*
X177607631Y-80908026D01*
X177684605Y-80933684D01*
X177787237Y-81036315D01*
X177812894Y-81113289D01*
X177274079Y-81190263D02*
X177299737Y-81267236D01*
X177428026Y-81395526D01*
X177504999Y-81421184D01*
X177581973Y-81395526D01*
X177633289Y-81344210D01*
X177658947Y-81267236D01*
X177633289Y-81190263D01*
X177504999Y-81061973D01*
X177479342Y-80985000D01*
X177428026Y-80677105D02*
X177222763Y-80471842D01*
X177530657Y-80420526D02*
X177068815Y-80882368D01*
X176991842Y-80908026D01*
X176914868Y-80882368D01*
X176863553Y-80831052D01*
X176606974Y-80574473D02*
X176683947Y-80600132D01*
X176735262Y-80600131D01*
X176812237Y-80574473D01*
X176966184Y-80420526D01*
X176991841Y-80343552D01*
X176991842Y-80292237D01*
X176966184Y-80215262D01*
X176889210Y-80138289D01*
X176812237Y-80112632D01*
X176760921Y-80112632D01*
X176683947Y-80138289D01*
X176530000Y-80292236D01*
X176504342Y-80369210D01*
X176504342Y-80420526D01*
X176530000Y-80497499D01*
X176606974Y-80574473D01*
X176555657Y-79804736D02*
X176196447Y-80163946D01*
X176504341Y-79856052D02*
X176504342Y-79804737D01*
X176478684Y-79727763D01*
X176401710Y-79650789D01*
X176324737Y-79625132D01*
X176247763Y-79650789D01*
X175965527Y-79933026D01*
X175529342Y-79445527D02*
X175555000Y-79522499D01*
X175657632Y-79625131D01*
X175734605Y-79650789D01*
X175811579Y-79625131D01*
X176016842Y-79419868D01*
X176042499Y-79342894D01*
X176016842Y-79265921D01*
X175914210Y-79163289D01*
X175837237Y-79137632D01*
X175760263Y-79163289D01*
X175708947Y-79214605D01*
X175914210Y-79522499D01*
X174836580Y-78804079D02*
X175375395Y-78265264D01*
X175247106Y-78136975D01*
X175144474Y-78085659D01*
X175041843Y-78085658D01*
X174964869Y-78111317D01*
X174836580Y-78188291D01*
X174759606Y-78265264D01*
X174682633Y-78393554D01*
X174656975Y-78470527D01*
X174656975Y-78573159D01*
X174708291Y-78675790D01*
X174836580Y-78804079D01*
X174836580Y-77726448D02*
X174400396Y-78162632D01*
X174323422Y-78188291D01*
X174272106Y-78188291D01*
X174195133Y-78162633D01*
X174092502Y-78060001D01*
X174066843Y-77983028D01*
X174066844Y-77931712D01*
X174092502Y-77854738D01*
X174528686Y-77418554D01*
X174169475Y-77059344D02*
X174066844Y-76956712D01*
X173989870Y-76931054D01*
X173887239Y-76931054D01*
X173758949Y-77008028D01*
X173579344Y-77187633D01*
X173502370Y-77315922D01*
X173502370Y-77418554D01*
X173528028Y-77495528D01*
X173630660Y-77598159D01*
X173707633Y-77623817D01*
X173810264Y-77623817D01*
X173938554Y-77546843D01*
X174118159Y-77367238D01*
X174195133Y-77238948D01*
X174195133Y-77136317D01*
X174169475Y-77059344D01*
D12*
X172950063Y-67816500D02*
X173044103Y-67827323D01*
X173203224Y-67769408D01*
X173268306Y-67700669D01*
X173293607Y-67646410D01*
X173304430Y-67552370D01*
X173217557Y-67313688D01*
X173148818Y-67248607D01*
X173094559Y-67223305D01*
X173000520Y-67212483D01*
X172841399Y-67270398D01*
X172776316Y-67339136D01*
X172487178Y-68030027D02*
X172552260Y-67961288D01*
X172563082Y-67867249D01*
X172302463Y-67151204D01*
X171810912Y-68276167D02*
X171651645Y-67838584D01*
X171662468Y-67744544D01*
X171727549Y-67675806D01*
X171886671Y-67617890D01*
X171980710Y-67628713D01*
X171796433Y-68236387D02*
X171890473Y-68247210D01*
X172089375Y-68174815D01*
X172154456Y-68106077D01*
X172165279Y-68012038D01*
X172136322Y-67932477D01*
X172067583Y-67867395D01*
X171973544Y-67856572D01*
X171774642Y-67928967D01*
X171680602Y-67918145D01*
X171438411Y-68366696D02*
X171373329Y-68435435D01*
X171214208Y-68493350D01*
X171120168Y-68482527D01*
X171051431Y-68417446D01*
X171036952Y-68377665D01*
X171047774Y-68283626D01*
X171112856Y-68214887D01*
X171232197Y-68171450D01*
X171297278Y-68102713D01*
X171308101Y-68008673D01*
X171293623Y-67968893D01*
X171224884Y-67903811D01*
X171130845Y-67892989D01*
X171011504Y-67936425D01*
X170946422Y-68005163D01*
X170762145Y-68612836D02*
X170697063Y-68681575D01*
X170537942Y-68739491D01*
X170443902Y-68728667D01*
X170375165Y-68663586D01*
X170360686Y-68623805D01*
X170371508Y-68529766D01*
X170436590Y-68461028D01*
X170555931Y-68417591D01*
X170621013Y-68348854D01*
X170631836Y-68254814D01*
X170617357Y-68215034D01*
X170548618Y-68149952D01*
X170454579Y-68139129D01*
X170335238Y-68182566D01*
X170270156Y-68251304D01*
X170060578Y-68913237D02*
X169857874Y-68356312D01*
X169756522Y-68077850D02*
X169810781Y-68103151D01*
X169785479Y-68157410D01*
X169731221Y-68132109D01*
X169756522Y-68077850D01*
X169785479Y-68157410D01*
X169290273Y-69148554D02*
X169384313Y-69159377D01*
X169543434Y-69101462D01*
X169608516Y-69032723D01*
X169633817Y-68978465D01*
X169644640Y-68884425D01*
X169557767Y-68645743D01*
X169489029Y-68580662D01*
X169434769Y-68555359D01*
X169340730Y-68544537D01*
X169181609Y-68602453D01*
X169116527Y-68671190D01*
X179822391Y-68493399D02*
X179976764Y-67617905D01*
X179917956Y-67951426D02*
X179841927Y-67895034D01*
X179675166Y-67865629D01*
X179584435Y-67892617D01*
X179535393Y-67926957D01*
X179479001Y-68002985D01*
X179434894Y-68253127D01*
X179461882Y-68343858D01*
X179496222Y-68392900D01*
X179572250Y-68449292D01*
X179739011Y-68478697D01*
X179829742Y-68451708D01*
X178905207Y-68331675D02*
X178995939Y-68304686D01*
X179044980Y-68270347D01*
X179101373Y-68194318D01*
X179145480Y-67944177D01*
X179118491Y-67853446D01*
X179084152Y-67804404D01*
X179008123Y-67748012D01*
X178883052Y-67725958D01*
X178792321Y-67752946D01*
X178743279Y-67787286D01*
X178686887Y-67863315D01*
X178642781Y-68113456D01*
X178669768Y-68204187D01*
X178704108Y-68253229D01*
X178780137Y-68309622D01*
X178905207Y-68331675D01*
X178113094Y-68192004D02*
X178203826Y-68165015D01*
X178252867Y-68130676D01*
X178309260Y-68054647D01*
X178353366Y-67804506D01*
X178326378Y-67713775D01*
X178292039Y-67664733D01*
X178216009Y-67608341D01*
X178090939Y-67586287D01*
X178000208Y-67613275D01*
X177951166Y-67647615D01*
X177894774Y-67723644D01*
X177850667Y-67973785D01*
X177877655Y-68064517D01*
X177911995Y-68113558D01*
X177988023Y-68169951D01*
X178113094Y-68192004D01*
X177495093Y-68040047D02*
X177404361Y-68067035D01*
X177237601Y-68037631D01*
X177161571Y-67981238D01*
X177134583Y-67890507D01*
X177141935Y-67848816D01*
X177198327Y-67772787D01*
X177289059Y-67745799D01*
X177414129Y-67767852D01*
X177504860Y-67740864D01*
X177561253Y-67664835D01*
X177568604Y-67623145D01*
X177541616Y-67532413D01*
X177465587Y-67476021D01*
X177340516Y-67453968D01*
X177249785Y-67480955D01*
X176965304Y-67387808D02*
X176631783Y-67328999D01*
X176891691Y-67073923D02*
X176759371Y-67824347D01*
X176702979Y-67900375D01*
X176612247Y-67927364D01*
X176528867Y-67912662D01*
X184742674Y-71114632D02*
X184280081Y-71665929D01*
X184258088Y-71757999D01*
X184263305Y-71817640D01*
X184300953Y-71904491D01*
X184398240Y-71986125D01*
X184490310Y-72008119D01*
X184388926Y-71536212D02*
X184426573Y-71623064D01*
X184556290Y-71731909D01*
X184648360Y-71753903D01*
X184708000Y-71748685D01*
X184794853Y-71711038D01*
X184958121Y-71516463D01*
X184980114Y-71424393D01*
X184974896Y-71364752D01*
X184937249Y-71277900D01*
X184807532Y-71169055D01*
X184715463Y-71147061D01*
X184418382Y-70842519D02*
X184037423Y-71296528D01*
X184363959Y-70907378D02*
X184358742Y-70847737D01*
X184321094Y-70760885D01*
X184223806Y-70679251D01*
X184131737Y-70657258D01*
X184044885Y-70694904D01*
X183745560Y-71051626D01*
X183129405Y-70534611D02*
X183700843Y-69853597D01*
X183156617Y-70502181D02*
X183194264Y-70589034D01*
X183323980Y-70697879D01*
X183416051Y-70719872D01*
X183475691Y-70714654D01*
X183562543Y-70677007D01*
X183725811Y-70482432D01*
X183747804Y-70390362D01*
X183742587Y-70330721D01*
X183704939Y-70243870D01*
X183575223Y-70135024D01*
X183483153Y-70113031D01*
D13*
X178762781Y-84843531D02*
X179391399Y-84214913D01*
X178792715Y-84813596D02*
X178808965Y-84889715D01*
X178901333Y-84982083D01*
X178977452Y-84998333D01*
X179030478Y-84991491D01*
X179113439Y-84954714D01*
X179293044Y-84775109D01*
X179329820Y-84692149D01*
X179336662Y-84639122D01*
X179320412Y-84563005D01*
X179228044Y-84470636D01*
X179151926Y-84454386D01*
X178462584Y-84543334D02*
X178538702Y-84559583D01*
X178591728Y-84552741D01*
X178674689Y-84515964D01*
X178854294Y-84336359D01*
X178891070Y-84253399D01*
X178897912Y-84200373D01*
X178881662Y-84124255D01*
X178812386Y-84054978D01*
X178736268Y-84038728D01*
X178683241Y-84045571D01*
X178600281Y-84082347D01*
X178420676Y-84261952D01*
X178383899Y-84344912D01*
X178377058Y-84397938D01*
X178393307Y-84474057D01*
X178462584Y-84543334D01*
X178023834Y-84104584D02*
X178099952Y-84120833D01*
X178182912Y-84084057D01*
X178721728Y-83545242D01*
X178050347Y-83292939D02*
X177541465Y-83801820D01*
X177504689Y-83884780D01*
X177497847Y-83937807D01*
X177514097Y-84013926D01*
X177583373Y-84083201D01*
X177659491Y-84099451D01*
X177661202Y-83682083D02*
X177677452Y-83758202D01*
X177769820Y-83850570D01*
X177845939Y-83866820D01*
X177898965Y-83859978D01*
X177981926Y-83823201D01*
X178161531Y-83643596D01*
X178198307Y-83560636D01*
X178205149Y-83507609D01*
X178188899Y-83431492D01*
X178096531Y-83339123D01*
X178020413Y-83322873D01*
X177192518Y-83273268D02*
X177521794Y-82943992D01*
X177604755Y-82907215D01*
X177680873Y-82923465D01*
X177773241Y-83015834D01*
X177789491Y-83091952D01*
X177222453Y-83243333D02*
X177238702Y-83319452D01*
X177354163Y-83434913D01*
X177430281Y-83451162D01*
X177513241Y-83414386D01*
X177573110Y-83354517D01*
X177609886Y-83271557D01*
X177593636Y-83195439D01*
X177478176Y-83079978D01*
X177461926Y-83003860D01*
X177380675Y-82623268D02*
X176961597Y-83042347D01*
X177320807Y-82683136D02*
X177327650Y-82630110D01*
X177311400Y-82553992D01*
X177242123Y-82484715D01*
X177166005Y-82468465D01*
X177083044Y-82505242D01*
X176753768Y-82834518D01*
X176453571Y-82534321D02*
X176529689Y-82550570D01*
X176582715Y-82543728D01*
X176665676Y-82506952D01*
X176845281Y-82327346D01*
X176882057Y-82244387D01*
X176888900Y-82191360D01*
X176872650Y-82115242D01*
X176803373Y-82045965D01*
X176727255Y-82029715D01*
X176674228Y-82036558D01*
X176591269Y-82073334D01*
X176411663Y-82252939D01*
X176374887Y-82335900D01*
X176368045Y-82388926D01*
X176384294Y-82465044D01*
X176453571Y-82534321D01*
X176572452Y-81815045D02*
X176387716Y-81630308D01*
X176084097Y-82164847D02*
X176622912Y-81626032D01*
X176659689Y-81543071D01*
X176643439Y-81466953D01*
X176597255Y-81420769D01*
X176295347Y-81537939D02*
X176110611Y-81353203D01*
X175806992Y-81887742D02*
X176345807Y-81348926D01*
X176382584Y-81265966D01*
X176366334Y-81189848D01*
X176320150Y-81143664D01*
X175589755Y-81550768D02*
X175536729Y-81557610D01*
X175529886Y-81610636D01*
X175582913Y-81603794D01*
X175589755Y-81550768D01*
X175529886Y-81610636D01*
X175121072Y-81141953D02*
X175137321Y-81218071D01*
X175229690Y-81310440D01*
X175305809Y-81326689D01*
X175358834Y-81319847D01*
X175441795Y-81283071D01*
X175621400Y-81103466D01*
X175658176Y-81020506D01*
X175665019Y-80967479D01*
X175648769Y-80891361D01*
X175556400Y-80798992D01*
X175480282Y-80782742D01*
X174814032Y-80894782D02*
X174890151Y-80911031D01*
X174943177Y-80904189D01*
X175026137Y-80867413D01*
X175205742Y-80687808D01*
X175242518Y-80604848D01*
X175249361Y-80551821D01*
X175233111Y-80475703D01*
X175163834Y-80406427D01*
X175087716Y-80390176D01*
X175034690Y-80397019D01*
X174951730Y-80433795D01*
X174772125Y-80613400D01*
X174735348Y-80696361D01*
X174728506Y-80749387D01*
X174744755Y-80825505D01*
X174814032Y-80894782D01*
X174444558Y-80525308D02*
X174863637Y-80106229D01*
X174803768Y-80166098D02*
X174810611Y-80113071D01*
X174794361Y-80036953D01*
X174725084Y-79967677D01*
X174648966Y-79951427D01*
X174566006Y-79988203D01*
X174236730Y-80317480D01*
X174566006Y-79988203D02*
X174602782Y-79905243D01*
X174586532Y-79829125D01*
X174517256Y-79759848D01*
X174441138Y-79743598D01*
X174358177Y-79780375D01*
X174028901Y-80109651D01*
X174110151Y-78873796D02*
X173717586Y-80097677D01*
X173778309Y-79020902D02*
X173593573Y-78836165D01*
X173289954Y-79370704D02*
X173828769Y-78831889D01*
X173865546Y-78748928D01*
X173849296Y-78672810D01*
X173803112Y-78626626D01*
X173012849Y-79093599D02*
X173431927Y-78674520D01*
X173312191Y-78794256D02*
X173348967Y-78711296D01*
X173355810Y-78658270D01*
X173339560Y-78582152D01*
X173293375Y-78535967D01*
X173024823Y-77788468D02*
X172632258Y-79012349D01*
X171996797Y-78077547D02*
X172326073Y-77748271D01*
X172409034Y-77711494D01*
X172485152Y-77727744D01*
X172577520Y-77820113D01*
X172593770Y-77896231D01*
X172026732Y-78047612D02*
X172042981Y-78123731D01*
X172158442Y-78239192D01*
X172234560Y-78255441D01*
X172317520Y-78218665D01*
X172377389Y-78158796D01*
X172414165Y-78075836D01*
X172397915Y-77999718D01*
X172282455Y-77884257D01*
X172266205Y-77808139D01*
X172005349Y-77607152D02*
X171635876Y-77237679D01*
X171584560Y-76827152D02*
X170955942Y-77455770D01*
X171554626Y-76857086D02*
X171538376Y-76780968D01*
X171446007Y-76688600D01*
X171369890Y-76672350D01*
X171316863Y-76679192D01*
X171233903Y-76715968D01*
X171054298Y-76895573D01*
X171017521Y-76978534D01*
X171010679Y-77031560D01*
X171026929Y-77107679D01*
X171119297Y-77200047D01*
X171195416Y-77216297D01*
X170726731Y-76807481D02*
X171145810Y-76388403D01*
X171026074Y-76508139D02*
X171062850Y-76425179D01*
X171069692Y-76372153D01*
X171053442Y-76296035D01*
X171007258Y-76249850D01*
X170357258Y-76438008D02*
X170433377Y-76454258D01*
X170486403Y-76447416D01*
X170569363Y-76410639D01*
X170748968Y-76231034D01*
X170785744Y-76148074D01*
X170792587Y-76095047D01*
X170776337Y-76018929D01*
X170707060Y-75949653D01*
X170630942Y-75933403D01*
X170577916Y-75940245D01*
X170494956Y-75977021D01*
X170315351Y-76156626D01*
X170278574Y-76239587D01*
X170271732Y-76292613D01*
X170287982Y-76368732D01*
X170357258Y-76438008D01*
X170406863Y-75649455D02*
X169778245Y-76278073D01*
X170376929Y-75679389D02*
X170360679Y-75603271D01*
X170268311Y-75510903D01*
X170192193Y-75494653D01*
X170139166Y-75501495D01*
X170056206Y-75538271D01*
X169876601Y-75717877D01*
X169839824Y-75800837D01*
X169832982Y-75853863D01*
X169849232Y-75929982D01*
X169941600Y-76022350D01*
X170017719Y-76038600D01*
X169479758Y-75560508D02*
X169555877Y-75576758D01*
X169608903Y-75569916D01*
X169691864Y-75533139D01*
X169871469Y-75353534D01*
X169908245Y-75270574D01*
X169915087Y-75217548D01*
X169898837Y-75141430D01*
X169829561Y-75072153D01*
X169753443Y-75055903D01*
X169700416Y-75062746D01*
X169617456Y-75099522D01*
X169437851Y-75279127D01*
X169401074Y-75362087D01*
X169394232Y-75415113D01*
X169410482Y-75491232D01*
X169479758Y-75560508D01*
X169163311Y-75184192D02*
X169087193Y-75167943D01*
X168994825Y-75075575D01*
X168978575Y-74999455D01*
X169015351Y-74916495D01*
X169045285Y-74886561D01*
X169128245Y-74849785D01*
X169204364Y-74866035D01*
X169273640Y-74935311D01*
X169349758Y-74951561D01*
X169432719Y-74914784D01*
X169462653Y-74884850D01*
X169499429Y-74801890D01*
X169483179Y-74725772D01*
X169413903Y-74656496D01*
X169337785Y-74640245D01*
D14*
X181825411Y-71785692D02*
G75*
G03X181825411Y-71785692I-127000J0D01*
G01*
X181126911Y-72775559D02*
X181634911Y-71895677D01*
X181634911Y-71895677D02*
X180315089Y-71133677D01*
X180315089Y-71133677D02*
X179807089Y-72013559D01*
X179299089Y-72893441D02*
X178791089Y-73773323D01*
X178791089Y-73773323D02*
X180110911Y-74535323D01*
X180110911Y-74535323D02*
X180618911Y-73655441D01*
X186849808Y-75653411D02*
G75*
G03X186849808Y-75653411I-127000J0D01*
G01*
X185732941Y-76224911D02*
X186612823Y-75716911D01*
X186612823Y-75716911D02*
X185850823Y-74397089D01*
X185850823Y-74397089D02*
X184970941Y-74905089D01*
X184091059Y-75413089D02*
X183211177Y-75921089D01*
X183211177Y-75921089D02*
X183973177Y-77240911D01*
X183973177Y-77240911D02*
X184853059Y-76732911D01*
X188087000Y-82042000D02*
G75*
G03X188087000Y-82042000I-127000J0D01*
G01*
X186817000Y-82042000D02*
X187833000Y-82042000D01*
X187833000Y-82042000D02*
X187833000Y-80518000D01*
X187833000Y-80518000D02*
X186817000Y-80518000D01*
X185801000Y-80518000D02*
X184785000Y-80518000D01*
X184785000Y-80518000D02*
X184785000Y-82042000D01*
X184785000Y-82042000D02*
X185801000Y-82042000D01*
X185960808Y-88416911D02*
G75*
G03X185960808Y-88416911I-127000J0D01*
G01*
X184843941Y-87845411D02*
X185723823Y-88353411D01*
X185723823Y-88353411D02*
X186485823Y-87033589D01*
X186485823Y-87033589D02*
X185605941Y-86525589D01*
X184726059Y-86017589D02*
X183846177Y-85509589D01*
X183846177Y-85509589D02*
X183084177Y-86829411D01*
X183084177Y-86829411D02*
X183964059Y-87337411D01*
X181077089Y-92679308D02*
G75*
G03X181077089Y-92679308I-127000J0D01*
G01*
X180378589Y-91689441D02*
X180886589Y-92569323D01*
X180886589Y-92569323D02*
X182206411Y-91807323D01*
X182206411Y-91807323D02*
X181698411Y-90927441D01*
X181190411Y-90047559D02*
X180682411Y-89167677D01*
X180682411Y-89167677D02*
X179362589Y-89929677D01*
X179362589Y-89929677D02*
X179870589Y-90809559D01*
X174625000Y-93853000D02*
G75*
G03X174625000Y-93853000I-127000J0D01*
G01*
X174498000Y-92710000D02*
X174498000Y-93726000D01*
X174498000Y-93726000D02*
X176022000Y-93726000D01*
X176022000Y-93726000D02*
X176022000Y-92710000D01*
X176022000Y-91694000D02*
X176022000Y-90678000D01*
X176022000Y-90678000D02*
X174498000Y-90678000D01*
X174498000Y-90678000D02*
X174498000Y-91694000D01*
X174518346Y-86994477D02*
G75*
G03X174518346Y-86994477I-127000J0D01*
G01*
X174095516Y-88098530D02*
X174358476Y-87117149D01*
X174358476Y-87117149D02*
X172886405Y-86722709D01*
X172886405Y-86722709D02*
X172623445Y-87704090D01*
X172360484Y-88685470D02*
X172097524Y-89666851D01*
X172097524Y-89666851D02*
X173569595Y-90061291D01*
X173569595Y-90061291D02*
X173832555Y-89079910D01*
X178518846Y-72706977D02*
G75*
G03X178518846Y-72706977I-127000J0D01*
G01*
X178096016Y-73811030D02*
X178358976Y-72829649D01*
X178358976Y-72829649D02*
X176886905Y-72435209D01*
X176886905Y-72435209D02*
X176623945Y-73416590D01*
X176360984Y-74397970D02*
X176098024Y-75379351D01*
X176098024Y-75379351D02*
X177570095Y-75773791D01*
X177570095Y-75773791D02*
X177833055Y-74792410D01*
X182363749Y-75444382D02*
G75*
G03X182363749Y-75444382I-127000J0D01*
G01*
X181428526Y-76252605D02*
X182146946Y-75534185D01*
X182146946Y-75534185D02*
X181069315Y-74456554D01*
X181069315Y-74456554D02*
X180350895Y-75174974D01*
X179632474Y-75893395D02*
X178914054Y-76611815D01*
X178914054Y-76611815D02*
X179991685Y-77689446D01*
X179991685Y-77689446D02*
X180710105Y-76971026D01*
X184417963Y-79683725D02*
G75*
G03X184417963Y-79683725I-126999J0D01*
G01*
X183186910Y-79979555D02*
X184168291Y-79716595D01*
X184168291Y-79716595D02*
X183773851Y-78244524D01*
X183773851Y-78244524D02*
X182792470Y-78507484D01*
X181811090Y-78770445D02*
X180829709Y-79033405D01*
X180829709Y-79033405D02*
X181224149Y-80505476D01*
X181224149Y-80505476D02*
X182205530Y-80242516D01*
X184023523Y-84348346D02*
G75*
G03X184023523Y-84348346I-127000J0D01*
G01*
X182792470Y-84052516D02*
X183773851Y-84315476D01*
X183773851Y-84315476D02*
X184168291Y-82843405D01*
X184168291Y-82843405D02*
X183186910Y-82580445D01*
X182205530Y-82317484D02*
X181224149Y-82054524D01*
X181224149Y-82054524D02*
X180829709Y-83526595D01*
X180829709Y-83526595D02*
X181811090Y-83789555D01*
X181349618Y-88193249D02*
G75*
G03X181349618Y-88193249I-127000J0D01*
G01*
X180414395Y-87385026D02*
X181132815Y-88103446D01*
X181132815Y-88103446D02*
X182210446Y-87025815D01*
X182210446Y-87025815D02*
X181492026Y-86307395D01*
X180773605Y-85588974D02*
X180055185Y-84870554D01*
X180055185Y-84870554D02*
X178977554Y-85948185D01*
X178977554Y-85948185D02*
X179695974Y-86666605D01*
X176983274Y-90310964D02*
G75*
G03X176983274Y-90310964I-126999J0D01*
G01*
X176560445Y-89206910D02*
X176823405Y-90188291D01*
X176823405Y-90188291D02*
X178295476Y-89793851D01*
X178295476Y-89793851D02*
X178032516Y-88812470D01*
X177769555Y-87831090D02*
X177506595Y-86849709D01*
X177506595Y-86849709D02*
X176034524Y-87244149D01*
X176034524Y-87244149D02*
X176297484Y-88225530D01*
X168440589Y-91853808D02*
G75*
G03X168440589Y-91853808I-127000J0D01*
G01*
X168885089Y-90863941D02*
X168377089Y-91743823D01*
X168377089Y-91743823D02*
X169696911Y-92505823D01*
X169696911Y-92505823D02*
X170204911Y-91625941D01*
X170712911Y-90746059D02*
X171220911Y-89866177D01*
X171220911Y-89866177D02*
X169901089Y-89104177D01*
X169901089Y-89104177D02*
X169393089Y-89984059D01*
X164051192Y-86906589D02*
G75*
G03X164051192Y-86906589I-127000J0D01*
G01*
X164914059Y-86335089D02*
X164034177Y-86843089D01*
X164034177Y-86843089D02*
X164796177Y-88162911D01*
X164796177Y-88162911D02*
X165676059Y-87654911D01*
X166555941Y-87146911D02*
X167435823Y-86638911D01*
X167435823Y-86638911D02*
X166673823Y-85319089D01*
X166673823Y-85319089D02*
X165793941Y-85827089D01*
X162687000Y-80518000D02*
G75*
G03X162687000Y-80518000I-127000J0D01*
G01*
X163703000Y-80518000D02*
X162687000Y-80518000D01*
X162687000Y-80518000D02*
X162687000Y-82042000D01*
X162687000Y-82042000D02*
X163703000Y-82042000D01*
X164719000Y-82042000D02*
X165735000Y-82042000D01*
X165735000Y-82042000D02*
X165735000Y-80518000D01*
X165735000Y-80518000D02*
X164719000Y-80518000D01*
X164686192Y-74206589D02*
G75*
G03X164686192Y-74206589I-127000J0D01*
G01*
X165549059Y-74778089D02*
X164669177Y-74270089D01*
X164669177Y-74270089D02*
X163907177Y-75589911D01*
X163907177Y-75589911D02*
X164787059Y-76097911D01*
X165666941Y-76605911D02*
X166546823Y-77113911D01*
X166546823Y-77113911D02*
X167308823Y-75794089D01*
X167308823Y-75794089D02*
X166428941Y-75286089D01*
X170522411Y-71341192D02*
G75*
G03X170522411Y-71341192I-127000J0D01*
G01*
X170966911Y-72331059D02*
X170458911Y-71451177D01*
X170458911Y-71451177D02*
X169139089Y-72213177D01*
X169139089Y-72213177D02*
X169647089Y-73093059D01*
X170155089Y-73972941D02*
X170663089Y-74852823D01*
X170663089Y-74852823D02*
X171982911Y-74090823D01*
X171982911Y-74090823D02*
X171474911Y-73210941D01*
D15*
X182441463Y-71899130D02*
X182474012Y-71890409D01*
X182530389Y-71840416D01*
X182554216Y-71799146D01*
X182569323Y-71725326D01*
X182551880Y-71660228D01*
X182522523Y-71615765D01*
X182451896Y-71547474D01*
X182389990Y-71511732D01*
X182295534Y-71484713D01*
X182242350Y-71481521D01*
X182177252Y-71498964D01*
X182120874Y-71548956D01*
X182097047Y-71590226D01*
X182081941Y-71664046D01*
X182090663Y-71696596D01*
X182244457Y-72335664D02*
X182387423Y-72088040D01*
X182315940Y-72211852D02*
X181882598Y-71961662D01*
X181968332Y-71956133D01*
X182033430Y-71938690D01*
X182077894Y-71909333D01*
X187232577Y-76440067D02*
X187265126Y-76448788D01*
X187338946Y-76433682D01*
X187380216Y-76409854D01*
X187430209Y-76353478D01*
X187447652Y-76288380D01*
X187444459Y-76235195D01*
X187417440Y-76140740D01*
X187381699Y-76078834D01*
X187313407Y-76008206D01*
X187268944Y-75978850D01*
X187203846Y-75961407D01*
X187130026Y-75976512D01*
X187088756Y-76000340D01*
X187038764Y-76056717D01*
X187030042Y-76089267D01*
X186864960Y-76184577D02*
X186832411Y-76175855D01*
X186779226Y-76179047D01*
X186676050Y-76238616D01*
X186646692Y-76283080D01*
X186637972Y-76315629D01*
X186641163Y-76368813D01*
X186664991Y-76410084D01*
X186721368Y-76460076D01*
X187111957Y-76564734D01*
X186843698Y-76719613D01*
X188043396Y-82982707D02*
X188067224Y-83006535D01*
X188138707Y-83030362D01*
X188186362Y-83030362D01*
X188257845Y-83006535D01*
X188305500Y-82958880D01*
X188329328Y-82911224D01*
X188353156Y-82815914D01*
X188353156Y-82744431D01*
X188329328Y-82649120D01*
X188305500Y-82601465D01*
X188257845Y-82553810D01*
X188186362Y-82529982D01*
X188138707Y-82529982D01*
X188067224Y-82553810D01*
X188043396Y-82577638D01*
X187876603Y-82529982D02*
X187566844Y-82529982D01*
X187733637Y-82720603D01*
X187662155Y-82720603D01*
X187614499Y-82744431D01*
X187590672Y-82768259D01*
X187566844Y-82815914D01*
X187566844Y-82935052D01*
X187590672Y-82982707D01*
X187614499Y-83006535D01*
X187662155Y-83030362D01*
X187805120Y-83030362D01*
X187852776Y-83006535D01*
X187876603Y-82982707D01*
X185402870Y-89350463D02*
X185411591Y-89383012D01*
X185461584Y-89439389D01*
X185502854Y-89463216D01*
X185576674Y-89478323D01*
X185641772Y-89460880D01*
X185686235Y-89431523D01*
X185754526Y-89360896D01*
X185790268Y-89298990D01*
X185817287Y-89204534D01*
X185820479Y-89151350D01*
X185803036Y-89086252D01*
X185753044Y-89029874D01*
X185711774Y-89006047D01*
X185637954Y-88990941D01*
X185605404Y-88999663D01*
X185174399Y-88888391D02*
X185007606Y-89177285D01*
X185372886Y-88782877D02*
X185297357Y-89151976D01*
X185029097Y-88997096D01*
X180226933Y-93252576D02*
X180218212Y-93285125D01*
X180233318Y-93358945D01*
X180257146Y-93400215D01*
X180313522Y-93450208D01*
X180378620Y-93467651D01*
X180431805Y-93464458D01*
X180526260Y-93437439D01*
X180588166Y-93401698D01*
X180658794Y-93333406D01*
X180688150Y-93288943D01*
X180705593Y-93223845D01*
X180690488Y-93150025D01*
X180666660Y-93108755D01*
X180610283Y-93058763D01*
X180577733Y-93050041D01*
X180392643Y-92634143D02*
X180511781Y-92840496D01*
X180317341Y-92980270D01*
X180326062Y-92947720D01*
X180322870Y-92894536D01*
X180263301Y-92791359D01*
X180218838Y-92762002D01*
X180186289Y-92753281D01*
X180133104Y-92756473D01*
X180029928Y-92816042D01*
X180000571Y-92860505D01*
X179991849Y-92893054D01*
X179995042Y-92946239D01*
X180054611Y-93049415D01*
X180099074Y-93078772D01*
X180131623Y-93087494D01*
X173819396Y-94158707D02*
X173843224Y-94182535D01*
X173914707Y-94206362D01*
X173962362Y-94206362D01*
X174033845Y-94182535D01*
X174081500Y-94134880D01*
X174105328Y-94087224D01*
X174129156Y-93991914D01*
X174129156Y-93920431D01*
X174105328Y-93825120D01*
X174081500Y-93777465D01*
X174033845Y-93729810D01*
X173962362Y-93705982D01*
X173914707Y-93705982D01*
X173843224Y-93729810D01*
X173819396Y-93753638D01*
X173390499Y-93705982D02*
X173485810Y-93705982D01*
X173533465Y-93729810D01*
X173557293Y-93753638D01*
X173604948Y-93825120D01*
X173628776Y-93920431D01*
X173628776Y-94111052D01*
X173604948Y-94158707D01*
X173581120Y-94182535D01*
X173533465Y-94206362D01*
X173438155Y-94206362D01*
X173390499Y-94182535D01*
X173366672Y-94158707D01*
X173342844Y-94111052D01*
X173342844Y-93991914D01*
X173366672Y-93944259D01*
X173390499Y-93920431D01*
X173438155Y-93896603D01*
X173533465Y-93896603D01*
X173581120Y-93920431D01*
X173604948Y-93944259D01*
X173628776Y-93991914D01*
X174184202Y-86135198D02*
X174213385Y-86118349D01*
X174254902Y-86055469D01*
X174267236Y-86009438D01*
X174262722Y-85934224D01*
X174229025Y-85875859D01*
X174189160Y-85840508D01*
X174103264Y-85792824D01*
X174034217Y-85774323D01*
X173935987Y-85772671D01*
X173883788Y-85783353D01*
X173825423Y-85817050D01*
X173783906Y-85879930D01*
X173771572Y-85925961D01*
X173776087Y-86001176D01*
X173792936Y-86030359D01*
X173703734Y-86179134D02*
X173617396Y-86501355D01*
X174156229Y-86423721D01*
X176008233Y-73511032D02*
X175821246Y-73288251D01*
X176082238Y-73234843D02*
X175598908Y-73105335D01*
X175549572Y-73289461D01*
X175560254Y-73341660D01*
X175577103Y-73370843D01*
X175616967Y-73406193D01*
X175686014Y-73424694D01*
X175738212Y-73414012D01*
X175767396Y-73397163D01*
X175802745Y-73357299D01*
X175852081Y-73173173D01*
X175884893Y-73971346D02*
X175958897Y-73695157D01*
X175921895Y-73833252D02*
X175438565Y-73703744D01*
X175519946Y-73676214D01*
X175578312Y-73642517D01*
X175613662Y-73602652D01*
X179797032Y-75094592D02*
X179746487Y-74808164D01*
X179999216Y-74892408D02*
X179645394Y-74538586D01*
X179510605Y-74673375D01*
X179493757Y-74723921D01*
X179493757Y-74757619D01*
X179510605Y-74808165D01*
X179561151Y-74858711D01*
X179611697Y-74875560D01*
X179645395Y-74875560D01*
X179695940Y-74858711D01*
X179830730Y-74723921D01*
X179342119Y-74909257D02*
X179308421Y-74909257D01*
X179257875Y-74926105D01*
X179173632Y-75010348D01*
X179156783Y-75060895D01*
X179156784Y-75094592D01*
X179173632Y-75145138D01*
X179207329Y-75178836D01*
X179274724Y-75212533D01*
X179679092Y-75212533D01*
X179460059Y-75431565D01*
X182193641Y-78238564D02*
X182293081Y-77965238D01*
X182469830Y-78164560D02*
X182340322Y-77681230D01*
X182156197Y-77730566D01*
X182116333Y-77765916D01*
X182099484Y-77795099D01*
X182088802Y-77847298D01*
X182107303Y-77916345D01*
X182142653Y-77956209D01*
X182171836Y-77973058D01*
X182224034Y-77983739D01*
X182408160Y-77934403D01*
X181903024Y-77798404D02*
X181603819Y-77878575D01*
X181814265Y-78019532D01*
X181745219Y-78038033D01*
X181705354Y-78073383D01*
X181688506Y-78102566D01*
X181677824Y-78154764D01*
X181708659Y-78269843D01*
X181744009Y-78309707D01*
X181773192Y-78326556D01*
X181825391Y-78337237D01*
X181963484Y-78300235D01*
X182003349Y-78264885D01*
X182020197Y-78235702D01*
X182901968Y-81901233D02*
X183124749Y-81714246D01*
X183178157Y-81975238D02*
X183307665Y-81491908D01*
X183123539Y-81442572D01*
X183071340Y-81453254D01*
X183042157Y-81470103D01*
X183006807Y-81509967D01*
X182988306Y-81579014D01*
X182998988Y-81631212D01*
X183015837Y-81660396D01*
X183055701Y-81695745D01*
X183239827Y-81745081D01*
X182574023Y-81468007D02*
X182487685Y-81790227D01*
X182738438Y-81314717D02*
X182761012Y-81690788D01*
X182461807Y-81610616D01*
X181381907Y-85690032D02*
X181668335Y-85639487D01*
X181584091Y-85892216D02*
X181937913Y-85538394D01*
X181803124Y-85403605D01*
X181752578Y-85386757D01*
X181718880Y-85386757D01*
X181668334Y-85403605D01*
X181617788Y-85454151D01*
X181600939Y-85504697D01*
X181600939Y-85538395D01*
X181617788Y-85588940D01*
X181752578Y-85723730D01*
X181415605Y-85016086D02*
X181584091Y-85184572D01*
X181432453Y-85369908D01*
X181432453Y-85336211D01*
X181415605Y-85285664D01*
X181331361Y-85201421D01*
X181280815Y-85184572D01*
X181247117Y-85184573D01*
X181196571Y-85201421D01*
X181112328Y-85285664D01*
X181095480Y-85336211D01*
X181095479Y-85369908D01*
X181112329Y-85420454D01*
X181196572Y-85504697D01*
X181247117Y-85521546D01*
X181280815Y-85521546D01*
X178301436Y-88213641D02*
X178574762Y-88313081D01*
X178375440Y-88489830D02*
X178858770Y-88360322D01*
X178809434Y-88176197D01*
X178774084Y-88136333D01*
X178744901Y-88119484D01*
X178692702Y-88108802D01*
X178623655Y-88127303D01*
X178583791Y-88162653D01*
X178566942Y-88191836D01*
X178556261Y-88244034D01*
X178605597Y-88428160D01*
X178673759Y-87669851D02*
X178698427Y-87761914D01*
X178687745Y-87814112D01*
X178670896Y-87843295D01*
X178614184Y-87907828D01*
X178528288Y-87955512D01*
X178344162Y-88004848D01*
X178291964Y-87994166D01*
X178262780Y-87977317D01*
X178227431Y-87937453D01*
X178202763Y-87845391D01*
X178213444Y-87793192D01*
X178230293Y-87764009D01*
X178270157Y-87728659D01*
X178385236Y-87697824D01*
X178437434Y-87708506D01*
X178466617Y-87725354D01*
X178501967Y-87765219D01*
X178526635Y-87857281D01*
X178515953Y-87909480D01*
X178499104Y-87938663D01*
X178459240Y-87974013D01*
X171306733Y-88813958D02*
X171183777Y-88550372D01*
X171449699Y-88566334D02*
X171016357Y-88316144D01*
X170921047Y-88481226D01*
X170917855Y-88534411D01*
X170926577Y-88566960D01*
X170955933Y-88611423D01*
X171017839Y-88647165D01*
X171071024Y-88650357D01*
X171103573Y-88641635D01*
X171148036Y-88612278D01*
X171243346Y-88447196D01*
X170789995Y-88708215D02*
X170623201Y-88997110D01*
X171163768Y-89061581D01*
X167952404Y-85625337D02*
X167977714Y-85335587D01*
X168200028Y-85482371D02*
X167949838Y-85049029D01*
X167784756Y-85144340D01*
X167755399Y-85188803D01*
X167746678Y-85221353D01*
X167749870Y-85274537D01*
X167785611Y-85336443D01*
X167830074Y-85365800D01*
X167862624Y-85374521D01*
X167915808Y-85371329D01*
X168080890Y-85276018D01*
X167561815Y-85520679D02*
X167591171Y-85476216D01*
X167599894Y-85443667D01*
X167596701Y-85390482D01*
X167584788Y-85369847D01*
X167540325Y-85340491D01*
X167507775Y-85331769D01*
X167454591Y-85334961D01*
X167372050Y-85382616D01*
X167342692Y-85427080D01*
X167333972Y-85459629D01*
X167337163Y-85512813D01*
X167349077Y-85533448D01*
X167393541Y-85562805D01*
X167426089Y-85571527D01*
X167479274Y-85568334D01*
X167561815Y-85520679D01*
X167614999Y-85517487D01*
X167647549Y-85526208D01*
X167692012Y-85555565D01*
X167739667Y-85638106D01*
X167742859Y-85691291D01*
X167734137Y-85723840D01*
X167704781Y-85768303D01*
X167622240Y-85815958D01*
X167569055Y-85819151D01*
X167536506Y-85810429D01*
X167492043Y-85781072D01*
X167444387Y-85698531D01*
X167441196Y-85645346D01*
X167449917Y-85612798D01*
X167479274Y-85568334D01*
X166834396Y-81506362D02*
X167001190Y-81268086D01*
X167120328Y-81506362D02*
X167120328Y-81005982D01*
X166929707Y-81005982D01*
X166882052Y-81029810D01*
X166858224Y-81053638D01*
X166834396Y-81101293D01*
X166834396Y-81172776D01*
X166858224Y-81220431D01*
X166882052Y-81244259D01*
X166929707Y-81268086D01*
X167120328Y-81268086D01*
X166596120Y-81506362D02*
X166500810Y-81506362D01*
X166453155Y-81482535D01*
X166429327Y-81458707D01*
X166381672Y-81387224D01*
X166357844Y-81291914D01*
X166357844Y-81101293D01*
X166381672Y-81053638D01*
X166405499Y-81029810D01*
X166453155Y-81005982D01*
X166548465Y-81005982D01*
X166596120Y-81029810D01*
X166619948Y-81053638D01*
X166643776Y-81101293D01*
X166643776Y-81220431D01*
X166619948Y-81268086D01*
X166596120Y-81291914D01*
X166548465Y-81315741D01*
X166453155Y-81315741D01*
X166405499Y-81291914D01*
X166381672Y-81268086D01*
X166357844Y-81220431D01*
X168059395Y-77318871D02*
X168322981Y-77195915D01*
X168307019Y-77461837D02*
X168557209Y-77028495D01*
X168392127Y-76933185D01*
X168338942Y-76929993D01*
X168306393Y-76938715D01*
X168261930Y-76968071D01*
X168226188Y-77029977D01*
X168222996Y-77083162D01*
X168231718Y-77115711D01*
X168261075Y-77160174D01*
X168426157Y-77255484D01*
X167646689Y-77080595D02*
X167894313Y-77223561D01*
X167770501Y-77152078D02*
X168020691Y-76718736D01*
X168026220Y-76804470D01*
X168043663Y-76869568D01*
X168073020Y-76914032D01*
X167628620Y-76492374D02*
X167587349Y-76468546D01*
X167534165Y-76465355D01*
X167501615Y-76474076D01*
X167457153Y-76503433D01*
X167388862Y-76574060D01*
X167329293Y-76677237D01*
X167302274Y-76771692D01*
X167299081Y-76824876D01*
X167307802Y-76857426D01*
X167337159Y-76901888D01*
X167378430Y-76925716D01*
X167431615Y-76928909D01*
X167464163Y-76920187D01*
X167508627Y-76890830D01*
X167576918Y-76820203D01*
X167636487Y-76717026D01*
X167663506Y-76622571D01*
X167666698Y-76569387D01*
X167657977Y-76536838D01*
X167628620Y-76492374D01*
X171986301Y-75766257D02*
X172276051Y-75791567D01*
X172129267Y-76013881D02*
X172562609Y-75763691D01*
X172467298Y-75598609D01*
X172422835Y-75569252D01*
X172390285Y-75560531D01*
X172337101Y-75563723D01*
X172275195Y-75599464D01*
X172245838Y-75643927D01*
X172237117Y-75676477D01*
X172240309Y-75729661D01*
X172335620Y-75894743D01*
X171748025Y-75353551D02*
X171890991Y-75601175D01*
X171819508Y-75477363D02*
X172252850Y-75227173D01*
X172214771Y-75304185D01*
X172197328Y-75369283D01*
X172200520Y-75422468D01*
X171509749Y-74940845D02*
X171652715Y-75188469D01*
X171581232Y-75064657D02*
X172014574Y-74814467D01*
X171976495Y-74891479D01*
X171959052Y-74956577D01*
X171962244Y-75009762D01*
%LPC*%
D10*
G36*
X180306581Y-71275413D02*
X181516419Y-71973913D01*
X181071919Y-72743809D01*
X179862081Y-72045309D01*
X180306581Y-71275413D01*
X180306581Y-71275413D01*
G37*
G36*
X179354081Y-72925191D02*
X180563919Y-73623691D01*
X180119419Y-74393587D01*
X178909581Y-73695087D01*
X179354081Y-72925191D01*
X179354081Y-72925191D01*
G37*
G36*
X185772587Y-74515581D02*
X186471087Y-75725419D01*
X185701191Y-76169919D01*
X185002691Y-74960081D01*
X185772587Y-74515581D01*
X185772587Y-74515581D01*
G37*
G36*
X184122809Y-75468081D02*
X184821309Y-76677919D01*
X184051413Y-77122419D01*
X183352913Y-75912581D01*
X184122809Y-75468081D01*
X184122809Y-75468081D01*
G37*
D16*
X187261500Y-81280000D03*
X185356500Y-81280000D03*
D10*
G36*
X186344087Y-87025081D02*
X185645587Y-88234919D01*
X184875691Y-87790419D01*
X185574191Y-86580581D01*
X186344087Y-87025081D01*
X186344087Y-87025081D01*
G37*
G36*
X184694309Y-86072581D02*
X183995809Y-87282419D01*
X183225913Y-86837919D01*
X183924413Y-85628081D01*
X184694309Y-86072581D01*
X184694309Y-86072581D01*
G37*
G36*
X182087919Y-91729087D02*
X180878081Y-92427587D01*
X180433581Y-91657691D01*
X181643419Y-90959191D01*
X182087919Y-91729087D01*
X182087919Y-91729087D01*
G37*
G36*
X181135419Y-90079309D02*
X179925581Y-90777809D01*
X179481081Y-90007913D01*
X180690919Y-89309413D01*
X181135419Y-90079309D01*
X181135419Y-90079309D01*
G37*
D17*
X175260000Y-93154500D03*
X175260000Y-91249500D03*
D10*
G36*
X172914871Y-86861817D02*
X174264269Y-87223387D01*
X174034179Y-88082095D01*
X172684781Y-87720525D01*
X172914871Y-86861817D01*
X172914871Y-86861817D01*
G37*
G36*
X172421821Y-88701905D02*
X173771219Y-89063475D01*
X173541129Y-89922183D01*
X172191731Y-89560613D01*
X172421821Y-88701905D01*
X172421821Y-88701905D01*
G37*
G36*
X176915371Y-72574317D02*
X178264769Y-72935887D01*
X178034679Y-73794595D01*
X176685281Y-73433025D01*
X176915371Y-72574317D01*
X176915371Y-72574317D01*
G37*
G36*
X176422321Y-74414405D02*
X177771719Y-74775975D01*
X177541629Y-75634683D01*
X176192231Y-75273113D01*
X176422321Y-74414405D01*
X176422321Y-74414405D01*
G37*
G36*
X181024414Y-74591258D02*
X182012242Y-75579086D01*
X181383624Y-76207704D01*
X180395796Y-75219876D01*
X181024414Y-74591258D01*
X181024414Y-74591258D01*
G37*
G36*
X179677376Y-75938296D02*
X180665204Y-76926124D01*
X180036586Y-77554742D01*
X179048758Y-76566914D01*
X179677376Y-75938296D01*
X179677376Y-75938296D01*
G37*
G36*
X183667613Y-78338731D02*
X184029183Y-79688129D01*
X183170475Y-79918219D01*
X182808905Y-78568821D01*
X183667613Y-78338731D01*
X183667613Y-78338731D01*
G37*
G36*
X181827525Y-78831781D02*
X182189095Y-80181179D01*
X181330387Y-80411269D01*
X180968817Y-79061871D01*
X181827525Y-78831781D01*
X181827525Y-78831781D01*
G37*
G36*
X184029183Y-82871871D02*
X183667613Y-84221269D01*
X182808905Y-83991179D01*
X183170475Y-82641781D01*
X184029183Y-82871871D01*
X184029183Y-82871871D01*
G37*
G36*
X182189095Y-82378821D02*
X181827525Y-83728219D01*
X180968817Y-83498129D01*
X181330387Y-82148731D01*
X182189095Y-82378821D01*
X182189095Y-82378821D01*
G37*
G36*
X182075742Y-86980914D02*
X181087914Y-87968742D01*
X180459296Y-87340124D01*
X181447124Y-86352296D01*
X182075742Y-86980914D01*
X182075742Y-86980914D01*
G37*
G36*
X180728704Y-85633876D02*
X179740876Y-86621704D01*
X179112258Y-85993086D01*
X180100086Y-85005258D01*
X180728704Y-85633876D01*
X180728704Y-85633876D01*
G37*
G36*
X178201269Y-89687613D02*
X176851871Y-90049183D01*
X176621781Y-89190475D01*
X177971179Y-88828905D01*
X178201269Y-89687613D01*
X178201269Y-89687613D01*
G37*
G36*
X177708219Y-87847525D02*
X176358821Y-88209095D01*
X176128731Y-87350387D01*
X177478129Y-86988817D01*
X177708219Y-87847525D01*
X177708219Y-87847525D01*
G37*
G36*
X169705419Y-92364087D02*
X168495581Y-91665587D01*
X168940081Y-90895691D01*
X170149919Y-91594191D01*
X169705419Y-92364087D01*
X169705419Y-92364087D01*
G37*
G36*
X170657919Y-90714309D02*
X169448081Y-90015809D01*
X169892581Y-89245913D01*
X171102419Y-89944413D01*
X170657919Y-90714309D01*
X170657919Y-90714309D01*
G37*
G36*
X164874413Y-88044419D02*
X164175913Y-86834581D01*
X164945809Y-86390081D01*
X165644309Y-87599919D01*
X164874413Y-88044419D01*
X164874413Y-88044419D01*
G37*
G36*
X166524191Y-87091919D02*
X165825691Y-85882081D01*
X166595587Y-85437581D01*
X167294087Y-86647419D01*
X166524191Y-87091919D01*
X166524191Y-87091919D01*
G37*
D16*
X163258500Y-81280000D03*
X165163500Y-81280000D03*
D10*
G36*
X164048913Y-75598419D02*
X164747413Y-74388581D01*
X165517309Y-74833081D01*
X164818809Y-76042919D01*
X164048913Y-75598419D01*
X164048913Y-75598419D01*
G37*
G36*
X165698691Y-76550919D02*
X166397191Y-75341081D01*
X167167087Y-75785581D01*
X166468587Y-76995419D01*
X165698691Y-76550919D01*
X165698691Y-76550919D01*
G37*
G36*
X169257581Y-72291413D02*
X170467419Y-71592913D01*
X170911919Y-72362809D01*
X169702081Y-73061309D01*
X169257581Y-72291413D01*
X169257581Y-72291413D01*
G37*
G36*
X170210081Y-73941191D02*
X171419919Y-73242691D01*
X171864419Y-74012587D01*
X170654581Y-74711087D01*
X170210081Y-73941191D01*
X170210081Y-73941191D01*
G37*
D18*
X168402000Y-70104000D03*
X175260000Y-68072000D03*
X181737000Y-70104000D03*
D19*
X178132891Y-92001776D03*
X172387109Y-92001776D03*
X167411115Y-89128885D03*
X164538224Y-84152891D03*
X164538224Y-78407109D03*
X167411115Y-73431115D03*
X172387109Y-70558224D03*
X178132891Y-70558224D03*
X183108885Y-73431115D03*
X185981776Y-78407109D03*
X185981776Y-84152891D03*
X183108885Y-89128885D03*
X172550000Y-83980000D03*
X177972720Y-78567280D03*
M02*
