G04 #@! TF.FileFunction,Copper,L2,Bot,Signal*
%FSLAX46Y46*%
G04 Gerber Fmt 4.6, Leading zero omitted, Abs format (unit mm)*
G04 Created by KiCad (PCBNEW (2014-12-07 BZR 5316)-product) date 05/04/2015 11:00:25*
%MOMM*%
G01*
G04 APERTURE LIST*
%ADD10C,0.100000*%
%ADD11R,0.889000X1.397000*%
%ADD12R,1.397000X0.889000*%
%ADD13C,2.000000*%
%ADD14C,2.500000*%
%ADD15C,0.889000*%
%ADD16C,0.508000*%
G04 APERTURE END LIST*
D10*
G36*
X180306581Y-71275413D02*
X181516419Y-71973913D01*
X181071919Y-72743809D01*
X179862081Y-72045309D01*
X180306581Y-71275413D01*
X180306581Y-71275413D01*
G37*
G36*
X179354081Y-72925191D02*
X180563919Y-73623691D01*
X180119419Y-74393587D01*
X178909581Y-73695087D01*
X179354081Y-72925191D01*
X179354081Y-72925191D01*
G37*
G36*
X185772587Y-74515581D02*
X186471087Y-75725419D01*
X185701191Y-76169919D01*
X185002691Y-74960081D01*
X185772587Y-74515581D01*
X185772587Y-74515581D01*
G37*
G36*
X184122809Y-75468081D02*
X184821309Y-76677919D01*
X184051413Y-77122419D01*
X183352913Y-75912581D01*
X184122809Y-75468081D01*
X184122809Y-75468081D01*
G37*
D11*
X187261500Y-81280000D03*
X185356500Y-81280000D03*
D10*
G36*
X186344087Y-87025081D02*
X185645587Y-88234919D01*
X184875691Y-87790419D01*
X185574191Y-86580581D01*
X186344087Y-87025081D01*
X186344087Y-87025081D01*
G37*
G36*
X184694309Y-86072581D02*
X183995809Y-87282419D01*
X183225913Y-86837919D01*
X183924413Y-85628081D01*
X184694309Y-86072581D01*
X184694309Y-86072581D01*
G37*
G36*
X182087919Y-91729087D02*
X180878081Y-92427587D01*
X180433581Y-91657691D01*
X181643419Y-90959191D01*
X182087919Y-91729087D01*
X182087919Y-91729087D01*
G37*
G36*
X181135419Y-90079309D02*
X179925581Y-90777809D01*
X179481081Y-90007913D01*
X180690919Y-89309413D01*
X181135419Y-90079309D01*
X181135419Y-90079309D01*
G37*
D12*
X175260000Y-93154500D03*
X175260000Y-91249500D03*
D10*
G36*
X172914871Y-86861817D02*
X174264269Y-87223387D01*
X174034179Y-88082095D01*
X172684781Y-87720525D01*
X172914871Y-86861817D01*
X172914871Y-86861817D01*
G37*
G36*
X172421821Y-88701905D02*
X173771219Y-89063475D01*
X173541129Y-89922183D01*
X172191731Y-89560613D01*
X172421821Y-88701905D01*
X172421821Y-88701905D01*
G37*
G36*
X176915371Y-72574317D02*
X178264769Y-72935887D01*
X178034679Y-73794595D01*
X176685281Y-73433025D01*
X176915371Y-72574317D01*
X176915371Y-72574317D01*
G37*
G36*
X176422321Y-74414405D02*
X177771719Y-74775975D01*
X177541629Y-75634683D01*
X176192231Y-75273113D01*
X176422321Y-74414405D01*
X176422321Y-74414405D01*
G37*
G36*
X181024414Y-74591258D02*
X182012242Y-75579086D01*
X181383624Y-76207704D01*
X180395796Y-75219876D01*
X181024414Y-74591258D01*
X181024414Y-74591258D01*
G37*
G36*
X179677376Y-75938296D02*
X180665204Y-76926124D01*
X180036586Y-77554742D01*
X179048758Y-76566914D01*
X179677376Y-75938296D01*
X179677376Y-75938296D01*
G37*
G36*
X183667613Y-78338731D02*
X184029183Y-79688129D01*
X183170475Y-79918219D01*
X182808905Y-78568821D01*
X183667613Y-78338731D01*
X183667613Y-78338731D01*
G37*
G36*
X181827525Y-78831781D02*
X182189095Y-80181179D01*
X181330387Y-80411269D01*
X180968817Y-79061871D01*
X181827525Y-78831781D01*
X181827525Y-78831781D01*
G37*
G36*
X184029183Y-82871871D02*
X183667613Y-84221269D01*
X182808905Y-83991179D01*
X183170475Y-82641781D01*
X184029183Y-82871871D01*
X184029183Y-82871871D01*
G37*
G36*
X182189095Y-82378821D02*
X181827525Y-83728219D01*
X180968817Y-83498129D01*
X181330387Y-82148731D01*
X182189095Y-82378821D01*
X182189095Y-82378821D01*
G37*
G36*
X182075742Y-86980914D02*
X181087914Y-87968742D01*
X180459296Y-87340124D01*
X181447124Y-86352296D01*
X182075742Y-86980914D01*
X182075742Y-86980914D01*
G37*
G36*
X180728704Y-85633876D02*
X179740876Y-86621704D01*
X179112258Y-85993086D01*
X180100086Y-85005258D01*
X180728704Y-85633876D01*
X180728704Y-85633876D01*
G37*
G36*
X178201269Y-89687613D02*
X176851871Y-90049183D01*
X176621781Y-89190475D01*
X177971179Y-88828905D01*
X178201269Y-89687613D01*
X178201269Y-89687613D01*
G37*
G36*
X177708219Y-87847525D02*
X176358821Y-88209095D01*
X176128731Y-87350387D01*
X177478129Y-86988817D01*
X177708219Y-87847525D01*
X177708219Y-87847525D01*
G37*
G36*
X169705419Y-92364087D02*
X168495581Y-91665587D01*
X168940081Y-90895691D01*
X170149919Y-91594191D01*
X169705419Y-92364087D01*
X169705419Y-92364087D01*
G37*
G36*
X170657919Y-90714309D02*
X169448081Y-90015809D01*
X169892581Y-89245913D01*
X171102419Y-89944413D01*
X170657919Y-90714309D01*
X170657919Y-90714309D01*
G37*
G36*
X166144413Y-87282419D02*
X165445913Y-86072581D01*
X166215809Y-85628081D01*
X166914309Y-86837919D01*
X166144413Y-87282419D01*
X166144413Y-87282419D01*
G37*
G36*
X167794191Y-86329919D02*
X167095691Y-85120081D01*
X167865587Y-84675581D01*
X168564087Y-85885419D01*
X167794191Y-86329919D01*
X167794191Y-86329919D01*
G37*
D11*
X164782500Y-81280000D03*
X166687500Y-81280000D03*
D10*
G36*
X165445913Y-76487419D02*
X166144413Y-75277581D01*
X166914309Y-75722081D01*
X166215809Y-76931919D01*
X165445913Y-76487419D01*
X165445913Y-76487419D01*
G37*
G36*
X167095691Y-77439919D02*
X167794191Y-76230081D01*
X168564087Y-76674581D01*
X167865587Y-77884419D01*
X167095691Y-77439919D01*
X167095691Y-77439919D01*
G37*
G36*
X169257581Y-72291413D02*
X170467419Y-71592913D01*
X170911919Y-72362809D01*
X169702081Y-73061309D01*
X169257581Y-72291413D01*
X169257581Y-72291413D01*
G37*
G36*
X170210081Y-73941191D02*
X171419919Y-73242691D01*
X171864419Y-74012587D01*
X170654581Y-74711087D01*
X170210081Y-73941191D01*
X170210081Y-73941191D01*
G37*
D13*
X164084000Y-87757000D03*
X162179000Y-81280000D03*
X164084000Y-74803000D03*
D14*
X178132891Y-92001776D03*
X172387109Y-92001776D03*
X167411115Y-89128885D03*
X164538224Y-84152891D03*
X164538224Y-78407109D03*
X167411115Y-73431115D03*
X172387109Y-70558224D03*
X178132891Y-70558224D03*
X183108885Y-73431115D03*
X185981776Y-78407109D03*
X185981776Y-84152891D03*
X183108885Y-89128885D03*
X172550000Y-83980000D03*
X177972720Y-78567280D03*
D15*
X174879000Y-75184000D03*
D16*
X179382890Y-71808223D02*
X178132891Y-70558224D01*
X178132891Y-70558224D02*
X178132891Y-72526590D01*
X180689250Y-72009611D02*
X180434639Y-71755000D01*
X180434639Y-71755000D02*
X180340000Y-71755000D01*
X180340000Y-71755000D02*
X180286777Y-71808223D01*
X180286777Y-71808223D02*
X179382890Y-71808223D01*
X178132891Y-72526590D02*
X177919524Y-72739957D01*
X177919524Y-72739957D02*
X177475025Y-73184456D01*
X179736750Y-73659389D02*
X178551592Y-75539199D01*
X178551592Y-75539199D02*
X178551592Y-75539200D01*
X184087111Y-76295250D02*
X180995056Y-77978342D01*
X180995056Y-77978342D02*
X180995056Y-77978341D01*
X185356500Y-81280000D02*
X181862800Y-81417008D01*
X181862800Y-81417008D02*
X181862800Y-81417029D01*
X183960111Y-86455250D02*
X180925378Y-84655985D01*
X180925378Y-84655985D02*
X180925378Y-84655986D01*
X180308250Y-90043611D02*
X178638236Y-86986091D01*
X175260000Y-91249500D02*
X175118168Y-87916456D01*
X176981975Y-75024544D02*
X178551592Y-75539200D01*
X178551592Y-75539200D02*
X179856981Y-76746519D01*
X179856981Y-76746519D02*
X180995056Y-77978341D01*
X180995056Y-77978341D02*
X181578956Y-79621525D01*
X181578956Y-79621525D02*
X181862800Y-81417029D01*
X181862800Y-81417029D02*
X181578956Y-82938475D01*
X181578956Y-82938475D02*
X180925378Y-84655986D01*
X180925378Y-84655986D02*
X179920481Y-85813481D01*
X179920481Y-85813481D02*
X178638236Y-86986091D01*
X178638236Y-86986091D02*
X176918475Y-87598956D01*
X176918475Y-87598956D02*
X175118168Y-87916456D01*
X175118168Y-87916456D02*
X173474525Y-87471956D01*
X176822519Y-75184000D02*
X176981975Y-75024544D01*
X174879000Y-75184000D02*
X176822519Y-75184000D01*
X185736889Y-75342750D02*
X183108885Y-73431115D01*
X183108885Y-73431115D02*
X181204019Y-75399481D01*
X187261500Y-81280000D02*
X185981776Y-78407109D01*
X185981776Y-78407109D02*
X183419044Y-79128475D01*
X185981776Y-84152891D02*
X183419044Y-83431525D01*
X185609889Y-87407750D02*
X185981776Y-84152891D01*
X183108885Y-89128885D02*
X181267519Y-87160519D01*
X181260750Y-91693389D02*
X183108885Y-89128885D01*
X178132891Y-92001776D02*
X177411525Y-89439044D01*
X175260000Y-93154500D02*
X178132891Y-92001776D01*
X172387109Y-92001776D02*
X172981475Y-89312044D01*
X172387109Y-92001776D02*
X169322750Y-91629889D01*
X167411115Y-89128885D02*
X170275250Y-89980111D01*
X166180111Y-86455250D02*
X167411115Y-89128885D01*
X164538224Y-84152891D02*
X167829889Y-85502750D01*
X164782500Y-81280000D02*
X164538224Y-84152891D01*
X164538224Y-78407109D02*
X166687500Y-81280000D01*
X166180111Y-76104750D02*
X164538224Y-78407109D01*
X167411115Y-73431115D02*
X167829889Y-77057250D01*
X170084750Y-72327111D02*
X167411115Y-73431115D01*
X172387109Y-70558224D02*
X171037250Y-73976889D01*
M02*
