G04 #@! TF.FileFunction,Legend,Top*
%FSLAX46Y46*%
G04 Gerber Fmt 4.6, Leading zero omitted, Abs format (unit mm)*
G04 Created by KiCad (PCBNEW (2014-12-07 BZR 5316)-product) date 05/04/2015 11:00:25*
%MOMM*%
G01*
G04 APERTURE LIST*
%ADD10C,0.100000*%
%ADD11C,0.150000*%
%ADD12C,0.200000*%
%ADD13C,2.000000*%
%ADD14C,2.500000*%
G04 APERTURE END LIST*
D10*
D11*
X162854577Y-87427577D02*
X164413423Y-86527577D01*
X164413423Y-86527577D02*
X165313423Y-88086423D01*
X165313423Y-88086423D02*
X163754577Y-88986423D01*
X163754577Y-88986423D02*
X162854577Y-87427577D01*
X161279000Y-80380000D02*
X163079000Y-80380000D01*
X163079000Y-80380000D02*
X163079000Y-82180000D01*
X163079000Y-82180000D02*
X161279000Y-82180000D01*
X161279000Y-82180000D02*
X161279000Y-80380000D01*
X163754577Y-73573577D02*
X165313423Y-74473577D01*
X165313423Y-74473577D02*
X164413423Y-76032423D01*
X164413423Y-76032423D02*
X162854577Y-75132423D01*
X162854577Y-75132423D02*
X163754577Y-73573577D01*
X182831203Y-69850000D02*
G75*
G03X182831203Y-69850000I-967203J0D01*
G01*
X169623203Y-69850000D02*
G75*
G03X169623203Y-69850000I-967203J0D01*
G01*
X169623203Y-92710000D02*
G75*
G03X169623203Y-92710000I-967203J0D01*
G01*
X182831203Y-92710000D02*
G75*
G03X182831203Y-92710000I-967203J0D01*
G01*
X181634080Y-81280000D02*
G75*
G03X181634080Y-81280000I-6374080J0D01*
G01*
X188723818Y-81280000D02*
G75*
G03X188723818Y-81280000I-13463818J0D01*
G01*
D10*
X165034000Y-87757000D02*
G75*
G03X165034000Y-87757000I-950000J0D01*
G01*
X163129000Y-81280000D02*
G75*
G03X163129000Y-81280000I-950000J0D01*
G01*
X165034000Y-74803000D02*
G75*
G03X165034000Y-74803000I-950000J0D01*
G01*
X179332891Y-92001776D02*
G75*
G03X179332891Y-92001776I-1200000J0D01*
G01*
X173587109Y-92001776D02*
G75*
G03X173587109Y-92001776I-1200000J0D01*
G01*
X168611115Y-89128885D02*
G75*
G03X168611115Y-89128885I-1200000J0D01*
G01*
X165738224Y-84152891D02*
G75*
G03X165738224Y-84152891I-1200000J0D01*
G01*
X165738224Y-78407109D02*
G75*
G03X165738224Y-78407109I-1200000J0D01*
G01*
X168611115Y-73431115D02*
G75*
G03X168611115Y-73431115I-1200000J0D01*
G01*
X173587109Y-70558224D02*
G75*
G03X173587109Y-70558224I-1200000J0D01*
G01*
X179332891Y-70558224D02*
G75*
G03X179332891Y-70558224I-1200000J0D01*
G01*
X184308885Y-73431115D02*
G75*
G03X184308885Y-73431115I-1200000J0D01*
G01*
X187181776Y-78407109D02*
G75*
G03X187181776Y-78407109I-1200000J0D01*
G01*
X187181776Y-84152891D02*
G75*
G03X187181776Y-84152891I-1200000J0D01*
G01*
X184308885Y-89128885D02*
G75*
G03X184308885Y-89128885I-1200000J0D01*
G01*
X173750000Y-83980000D02*
G75*
G03X173750000Y-83980000I-1200000J0D01*
G01*
X179172720Y-78567280D02*
G75*
G03X179172720Y-78567280I-1200000J0D01*
G01*
D12*
X172466000Y-79864857D02*
X172683714Y-79937429D01*
X173046571Y-79937429D01*
X173191714Y-79864857D01*
X173264285Y-79792286D01*
X173336857Y-79647143D01*
X173336857Y-79502000D01*
X173264285Y-79356857D01*
X173191714Y-79284286D01*
X173046571Y-79211714D01*
X172756285Y-79139143D01*
X172611143Y-79066571D01*
X172538571Y-78994000D01*
X172466000Y-78848857D01*
X172466000Y-78703714D01*
X172538571Y-78558571D01*
X172611143Y-78486000D01*
X172756285Y-78413429D01*
X173119143Y-78413429D01*
X173336857Y-78486000D01*
X173844857Y-78413429D02*
X174207714Y-79937429D01*
X174498000Y-78848857D01*
X174788286Y-79937429D01*
X175151143Y-78413429D01*
X176530000Y-79937429D02*
X175659143Y-79937429D01*
X176094571Y-79937429D02*
X176094571Y-78413429D01*
X175949428Y-78631143D01*
X175804286Y-78776286D01*
X175659143Y-78848857D01*
%LPC*%
D13*
X164084000Y-87757000D03*
X162179000Y-81280000D03*
X164084000Y-74803000D03*
D14*
X178132891Y-92001776D03*
X172387109Y-92001776D03*
X167411115Y-89128885D03*
X164538224Y-84152891D03*
X164538224Y-78407109D03*
X167411115Y-73431115D03*
X172387109Y-70558224D03*
X178132891Y-70558224D03*
X183108885Y-73431115D03*
X185981776Y-78407109D03*
X185981776Y-84152891D03*
X183108885Y-89128885D03*
X172550000Y-83980000D03*
X177972720Y-78567280D03*
M02*
